<mxfile host="app.diagrams.net" agent="Mozilla/5.0 (Windows NT 10.0; Win64; x64) AppleWebKit/537.36 (KHTML, like Gecko) Chrome/138.0.0.0 Safari/537.36" version="28.0.7">
  <diagram name="Page-1" id="fSSCDBlllA60C32qFvkq">
    <mxGraphModel dx="1042" dy="604" grid="1" gridSize="10" guides="1" tooltips="1" connect="1" arrows="1" fold="1" page="1" pageScale="1" pageWidth="850" pageHeight="1100" math="0" shadow="0">
      <root>
        <mxCell id="0" />
        <mxCell id="1" parent="0" />
        <mxCell id="guoJjqlwkhtF7B335C00-1" value="" style="edgeStyle=orthogonalEdgeStyle;rounded=0;orthogonalLoop=1;jettySize=auto;html=1;fillColor=#008a00;strokeColor=#005700;" edge="1" parent="1" source="guoJjqlwkhtF7B335C00-55" target="guoJjqlwkhtF7B335C00-43">
          <mxGeometry relative="1" as="geometry" />
        </mxCell>
        <mxCell id="guoJjqlwkhtF7B335C00-2" value="Domain Controller and Clent Relations" style="text;html=1;align=center;verticalAlign=middle;resizable=0;points=[];autosize=1;strokeColor=none;fillColor=none;" vertex="1" parent="1">
          <mxGeometry x="40" y="42" width="230" height="30" as="geometry" />
        </mxCell>
        <mxCell id="guoJjqlwkhtF7B335C00-3" value="" style="edgeStyle=none;orthogonalLoop=1;jettySize=auto;html=1;rounded=0;fillColor=#1ba1e2;strokeColor=#006EAF;" edge="1" parent="1">
          <mxGeometry width="100" relative="1" as="geometry">
            <mxPoint x="280" y="56.5" as="sourcePoint" />
            <mxPoint x="380" y="56.5" as="targetPoint" />
            <Array as="points" />
          </mxGeometry>
        </mxCell>
        <mxCell id="guoJjqlwkhtF7B335C00-4" value="Network Connections" style="text;html=1;align=center;verticalAlign=middle;resizable=0;points=[];autosize=1;strokeColor=none;fillColor=none;" vertex="1" parent="1">
          <mxGeometry x="40" y="72" width="140" height="30" as="geometry" />
        </mxCell>
        <mxCell id="guoJjqlwkhtF7B335C00-5" value="" style="edgeStyle=none;orthogonalLoop=1;jettySize=auto;html=1;rounded=0;fillColor=#e51400;strokeColor=#B20000;" edge="1" parent="1">
          <mxGeometry width="100" relative="1" as="geometry">
            <mxPoint x="280" y="86.5" as="sourcePoint" />
            <mxPoint x="380" y="86.5" as="targetPoint" />
            <Array as="points" />
          </mxGeometry>
        </mxCell>
        <mxCell id="guoJjqlwkhtF7B335C00-6" value="Log Flow between Nodes" style="text;html=1;align=center;verticalAlign=middle;resizable=0;points=[];autosize=1;strokeColor=none;fillColor=none;" vertex="1" parent="1">
          <mxGeometry x="40" y="102" width="152" height="32" as="geometry" />
        </mxCell>
        <mxCell id="guoJjqlwkhtF7B335C00-7" value="" style="edgeStyle=none;orthogonalLoop=1;jettySize=auto;html=1;rounded=0;fillColor=#008a00;strokeColor=#005700;" edge="1" parent="1">
          <mxGeometry width="100" relative="1" as="geometry">
            <mxPoint x="280" y="110.5" as="sourcePoint" />
            <mxPoint x="380" y="110.5" as="targetPoint" />
            <Array as="points" />
          </mxGeometry>
        </mxCell>
        <mxCell id="guoJjqlwkhtF7B335C00-8" value="" style="edgeStyle=orthogonalEdgeStyle;rounded=0;orthogonalLoop=1;jettySize=auto;html=1;fillColor=#008a00;strokeColor=#005700;" edge="1" parent="1" source="guoJjqlwkhtF7B335C00-43" target="guoJjqlwkhtF7B335C00-28">
          <mxGeometry relative="1" as="geometry">
            <Array as="points">
              <mxPoint x="70" y="287" />
            </Array>
          </mxGeometry>
        </mxCell>
        <mxCell id="guoJjqlwkhtF7B335C00-9" value="" style="edgeStyle=orthogonalEdgeStyle;rounded=0;orthogonalLoop=1;jettySize=auto;html=1;fillColor=#e51400;strokeColor=#B20000;" edge="1" parent="1" source="guoJjqlwkhtF7B335C00-16" target="guoJjqlwkhtF7B335C00-43">
          <mxGeometry relative="1" as="geometry" />
        </mxCell>
        <mxCell id="guoJjqlwkhtF7B335C00-10" value="" style="edgeStyle=orthogonalEdgeStyle;rounded=0;orthogonalLoop=1;jettySize=auto;html=1;fillColor=#e51400;strokeColor=#B20000;" edge="1" parent="1" source="guoJjqlwkhtF7B335C00-16" target="guoJjqlwkhtF7B335C00-24">
          <mxGeometry relative="1" as="geometry" />
        </mxCell>
        <mxCell id="guoJjqlwkhtF7B335C00-11" value="" style="edgeStyle=orthogonalEdgeStyle;rounded=0;orthogonalLoop=1;jettySize=auto;html=1;fillColor=#e51400;strokeColor=#B20000;" edge="1" parent="1" source="guoJjqlwkhtF7B335C00-16" target="guoJjqlwkhtF7B335C00-28">
          <mxGeometry relative="1" as="geometry" />
        </mxCell>
        <mxCell id="guoJjqlwkhtF7B335C00-12" value="" style="edgeStyle=orthogonalEdgeStyle;rounded=0;orthogonalLoop=1;jettySize=auto;html=1;fillColor=#e51400;strokeColor=#B20000;" edge="1" parent="1" source="guoJjqlwkhtF7B335C00-55" target="guoJjqlwkhtF7B335C00-33">
          <mxGeometry relative="1" as="geometry">
            <Array as="points">
              <mxPoint x="150" y="150" />
            </Array>
          </mxGeometry>
        </mxCell>
        <mxCell id="guoJjqlwkhtF7B335C00-13" value="" style="edgeStyle=orthogonalEdgeStyle;rounded=0;orthogonalLoop=1;jettySize=auto;html=1;fillColor=#e51400;strokeColor=#B20000;" edge="1" parent="1" source="guoJjqlwkhtF7B335C00-16" target="guoJjqlwkhtF7B335C00-36">
          <mxGeometry relative="1" as="geometry" />
        </mxCell>
        <mxCell id="guoJjqlwkhtF7B335C00-14" value="" style="edgeStyle=orthogonalEdgeStyle;rounded=0;orthogonalLoop=1;jettySize=auto;html=1;fillColor=#e51400;strokeColor=#B20000;" edge="1" parent="1" target="guoJjqlwkhtF7B335C00-42">
          <mxGeometry relative="1" as="geometry">
            <mxPoint x="480" y="162" as="sourcePoint" />
            <Array as="points">
              <mxPoint x="470" y="162" />
              <mxPoint x="470" y="242" />
              <mxPoint x="500" y="242" />
            </Array>
          </mxGeometry>
        </mxCell>
        <mxCell id="guoJjqlwkhtF7B335C00-15" value="" style="edgeStyle=orthogonalEdgeStyle;rounded=0;orthogonalLoop=1;jettySize=auto;html=1;fillColor=#e51400;strokeColor=#B20000;" edge="1" parent="1">
          <mxGeometry relative="1" as="geometry">
            <mxPoint x="482.5" y="167" as="sourcePoint" />
            <mxPoint x="475" y="392" as="targetPoint" />
            <Array as="points">
              <mxPoint x="483" y="265" />
              <mxPoint x="465" y="265" />
              <mxPoint x="465" y="392" />
            </Array>
          </mxGeometry>
        </mxCell>
        <mxCell id="guoJjqlwkhtF7B335C00-16" value="" style="shape=image;verticalLabelPosition=bottom;labelBackgroundColor=default;verticalAlign=top;aspect=fixed;imageAspect=0;image=data:image/png,iVBORw0KGgoAAAANSUhEUgAAAF4AAABeCAYAAACq0qNuAAAAAXNSR0IArs4c6QAAIABJREFUeAHtfQd4VNeZNsnmzzq7ySa7cWx6EeqARO8qqPeKRBEdjOm9GrBFLzZgML0ZYxtsOuoSoN6mz2hGDUkggSkGiW6KZu73/vudO2P7cbK7yROyG8fS87zPuXP7fc97vvOd99wZtWrV8tfCQAsDLQy0MNDCQAsDP10GAPzsp/v0/8dPjsTEnzP+j2/jp3N51NX9FsAb339inDz5T9//3LL8ihkA8O8WxbkiOryuUTr75XEYqn1tl0Bi4i9syy3lK2LAFtNffraph/TlOjOtGQdp8UTQru2g5NRzzeU1vfhSaNXqZwBaws8r4l0QKoj1drWX5oc9pE1vkTQpyCyNi7TQ8oWgT449Ql7pMhvpyMlpUf+rIJ+VLIh3c3uD4gfdoBWjQHPjJRoVRDQi7KU0dQKwbRso9WIKvmpqL/Ztifuvgnr5HPD2/h0iBuikORGQFo620JgQUEwAaESERONGNFNiIuiLc1dhrB0syG+J+6+GfEyd+i8U55UjzQhh4s00PhJSpB9Jkf4kjYyENCa+mRYvBB35/KmlWB8tyG9R/l9PPk6e/BXNiM+SZkdCWjDKTJNiQTFBRKE+RBF+JI2IBI2JN9Oc2cC+oxYU6+JayP/reW+FHNOvadfqIumdcZDmjrJIk4eDhocQhfmSFOpLFO5PNDwcNDreTDNmgnYdaYauwl+Q39Lh/uU1YEsnn9y58wZlnr4urZkBacZIiSbGgeLDicIDQCF+RMG+oDB/otgISAkjzTR9DnDwxC08fuwoyG9JNf8y8m1povnJEy8qyICUOFOS3h5JNCEeFBdJiAiCID3Il8DkhwYQxUSBEkY305xloFNpWQBaRrd/Ge2tWtlIk+7e2U7ZKZBWzbLQlJGQxsYTxUeDIoNBIQGgQF9QoA8oyA8UEkQUGwMaMcZMq95Hc4FyrlB9YkuO/2fxbwszANpQbfVXdOoTYNU8icbGQUqIJ4qLJooMBYUEggL9QP6+DEKAPxASAoqNN2PcDND+41VPnz59U5Df4m7+z9xDrf5/vJd0585GUpaAju0z06IZoJExJI0aASk2GhQRzgoHBfkD/n4gPyv8A4kiYohixzTTsg2wJGVNEMS3pJj/PfG2ENP89Kk71dU9lpLPgg7ukKRJYyHFx4JGxJMUHQ0pMhwUGgIKDBDEw9cXNMyXyCeAKCgCFBlvpkkLQJv2nf3vr9iy9VsGYMIv6c7Xl6ioAHTmhJk2JkKKjyMaHgdpeBwoihUfAeKwEhAI8vUHhvmCvH0J3v5EvqGgsFgJwyfDPHH+jYZly/7925O3LPwxAza1S/fubya9AUg6Z8YXx0CzppMUFUMUE0dSdBwoPBoUGgEKCgX5B8nEe/sBnowAwrBQUGAUIWQkLD6xzQ+HDuvDV7NNolgdzZYZLUEKINxFy4MH46nuGigj04KUC0QfbCZpxCiSwmPApEuRwyGFRYNCZOLhFwQM8we8/EAejACQVyhJfhEgz3AJ3YfSI7vuoeIarVr93NZx/3G1/wTXwEq6ufGpH924+ZRy8kHp6RKOfwpMn0UUFgsKjSWKZLXHgkKiQMERoIBQwDcY8A4AefqBhvqBhgQQeYQQeYUCfX0t1L4b7re1G2WjVdq9d6O08+BB2+efbGkjHU2PBtKtr+9SYYlQO6Ukg9asJ4pNAAVGE4XEgsLjIMqgKFBgBMgvFDQsGOQZADDpg/2AwQFEQ0OIhgSBXAZY6HddcP8N+wQm+JsTF9pK4cPvUMI0SCcy1vA6xP0EpxABiLQRjY/6062vb1OJEpR5yUyZWaC9B4gmTYcUPJzIjxUeCyl0OKTgGEiBUSC/cJBPKMgrGDTUHxjsBxroCwwMAA0OIRrgD2rbXaJftqPHbRyFa/ly+rI4yW0IaJCfmeZtslhU9cGC/J+Sp/Ot0h8+7EO3792UStSgrOxmyroM+vQLogXvgCITiHyiQL7RoMDhoODhoKAYkF8kyCcc5B0K8gxilQMDfEH9fUD9AwgDQ4h6+xB+25WkX7Snh+1cfZjgZp/oT6lrHz72BfmMhLT7vBbArwX5P4UBlo30Zlb6zbs3pRIN6GKumbJyQF+eJby3GTTiLSK/4SAvJjkaFBAHCoiVK8EnEhgWDniGgIYGgQb5A/19QX18QH0CiAaEgHp4Ev65A56/1rG5ptVvu6JAZSe5Dm4kp0Gg4JES9fJpprc3QrqkW/KTCDnfkn6naSDdvHubSrSgrNxmKTMHOJ1E2PQRaNwcooBRII9ISB6RoGGxEJXgHwsKiILkyxlLGGhoCDA4CCKs9PEBevmAevsTDQgFuQyR8E/t8ORfuzbmJOe8LnlFHSa73iDv+GYKSgD6+Eo0bBKr/tYzPOvwD61624S0HNPv3kKxBlJmbjNl5oJOJRO2HwCmLgWFjifyjAENjgR5RMnE+7L6YyD1iYY0MJJTRmBIMDAwEOjrB+rlA7gNA/X0JxoYAXL1IrT6PV4MinlqHjcvE116NdPAcFDAWCKfeKI+vqDeUWaauQ3mLNVWQfw/oq1gGxw1373bi27cvUmFGlB6jpkyckCnUwk7Pyaa9S5R5BSCdzxoUCRoUATgEQN4xwIechoprfEBxQaA3MNBQ4JBAwNBvf2Anj6gHt5AD19gQBRR71CQ01CisIkg92GgXkGEoXFEQ2JBA8MJPbwJvcMlCpoDaf+Fuy/q6v7x/Hubt/7izkM76fqdWilfDUrJbqa0HNCZNKI9nwLz1xHFTAd5j2LiQAMiZPKHRAMcatwjIG0eCYIHqN4etN4D1DMY6BMAYsW7DQO6eYNchxH1CQd5jCQKngzyGknUL9JM/aOI+oaD+oQR9fQHXD2JeoYSDR7fTIs/gjmjaLNQ/T9KhmMbKTY1Nf2b5frtEirQgM5dfEnJ2aDT6YQDJ4DFm4ni5xD5jgUGxAB9IoB+EcCAaNCgaMArBtQ9BNKnI0DmANCtLqCnjqDjg0B9AwB3a6hx9QI5e4LcAkD9I4BBMUT9okC9wwH3YCK3QEIPf6DbMCInT6B7EGhggoVil0E6fP7Gc52usyA/8R/gBSmb2i037x0khRHSyYxmOpvFM0SEQycJK7cRjVoA8p8ADIoHekeCekeA+kYCA6NlDI0G9fjPAdGX4SBzIOi6PajBDnjkBCl5CKifH9DNB9RzGMDEu3qDeviRqIAeAUTd/And/IlcfUEuTLoXYO9F5BpINGAkMOztZnp3H8zJ2XKG82OP9bYMxvL1/TFkrAWdSDNLnycTnUgmHDlNtHoXaNxSUMAU0KCRQO8oUM8IUC+ZeOoXDfSPBgZbiT8TCDwPAl13Bl13ANV0ATW5gJKHcRoJdPcD9fQFXLgCvEEu3iDnYYDTMJCjN+DA8AS6egB2niCnAEKf4SCPSRImrUXz/lOV9woLf8Oq/9H+2ZSOZ8/aUe2NBjp9EbTvpFk6ehZ0+BRh/T5g0kqi4GmgIZzeyXEc7uFAz3DOOIC+0aC+HO+jQD0CIKUFgr4JglTvDGpwAV21A1V1BN3tDumkvwgxcA8EufmDXP0AFx+Z9K7eoK5eIDtPwG4o0NkD1MUTcPAjco8iGjoeFDFfsqzdj2fHzo5k0m1O5o+uAmzES3eadlCeFrT9s2Zp7wnQgS8Jmw+Cpq0mhM0EPMaB+sUB7lEgtwjRiVLPSDBEC2DiGT19IZWEAo+CQNdcQNe6AXWOoCtdQKaOoNvukPb4A46BoJ6BoO4BIBd/kJMvqKs3wOQz8Z2GAu2Hgjp6AF19QN3CiAaNBvlPM9OsTXi25WDSj5Z4W4fa/OBpT6ni6lM6eBa08RBJ+06ANh0gzFpPiJwL8poA9B8J9IoFdY8CukUC3SMB90iAyefK6B0J9IgC+XhDujoKdNcPqHMB1bqBrriAquxBFZ1Ahs6g6/0gLfED2QXI5LsGgJz8QPY+MvGdPIEOMvFo7wnq4kPkHAL0jSfymiRZRi2DZfn2u02rtnX7UZJvy9ktDbeOUlYJaOUus7TpEOj9I0Sz1oOi54O8JgH9R4F6DQf1iAa6RYG6MflRgJtV8e6RIM5w7MJBs31Bz2aCGgYCNd2AajdQlSuowglksgPpOgJl9iDTAEgxfoB9gAhP5OQPsvcFug4DdfYGOngC7T3kspMPyDGI0CuaaHACWUJnm5unvocH05fPsxL/43kD2RZiXt665UKVdV/TruOgWesladVHRHM2gmIXEHlPBvUfDfSKA7nHAt05XYwWxFP3SJCblfxerPxokLMvpEtjgG9mA1dcQUx6RQ+gvDvI6AxJ7wDSdQEpOoNMTpBSB4N6cYwPBLHqHf0Bez85tHT2Ajp4Ae29ACbegVPMCKIB8TAPm2x+GbcAz0bOPh/XqtU/2VrujyLO22wBqaJuKbIKQHPWNVPCEpImryIpdh6RDytdDi9wjwGDmFx3Bsf5SFnxHG76RoI6h4AWBoFeJIKuB4OqnEDl7iCjG8jQA6TvBmidQSp7kMIOVNgFVN4D0loPkD3n+IGAawDg7AdykEMO7LyAzhzzmXjO64OJ+kTCPHiU1BwyDc+Cxtys6u/ZRai+1Y/oO1e31Op/IW1ZDu05CoRPNlPYW6DwqUTeCYT+saBeUQCnjRzHe0WLThSsbhHbIwB3TifDAedwUPgw0M2lQOMUUKULyOQGKusJ0ruDdG4gTXeQyhWkcAKK7UFFXUHFDqDi3pDCOKUMBPXyB3WTsxxy8gbsOaX0ksOPI48BAojcA9HcL4Kee4623B8chgb3/mEy8XF//2+j2VKwl/n5rtKpC49p7goijxiJfEaABkcT9QoBuQWCegSC3INAvUJFDKe+ERDD/F5hIPdQUN9QUPdQ0BAvkG4W6NFcUFVPkKk7SN8TpHUHadwBtRtI1QOSojuoxBVU6AQqcICU7QBSukLaPRDU3QfozZaCD8ADK2cPwHEoyN4T5DBMhDEeWFm6edNLdz887RNiftTTG1+79lr9o1G87Zt4lv2fjKd31wGRCWYMZj8knB+cyHko4OQhD+tdvQHOt3sFgXoHW8sgUL8guVL6DgXlvQU8mQ+q6CeTrnMHqd1BSndISjeQwg1U0gNU3B1U6Aop3xmU6wTKdgRddgLl9oYlZpAgHD15RDsU5DxEAM687CkGW1I3b2p2GkTPnQfhkctgy1PHPrhj1/2cTLz8zRRe/rv9sylemrFgB0aMBQ32N1Nf9sm9CQ79ibr2AwT6A44DAVcPUI9hIHdfWZG9fGXfxX0QpNRxwNN5oPJ+oLIeICZd5QYqdYNU0l0mu6gbqKgbpIJukPJdIOU4gS47gi45Qspg9feA+f2+sDgNBNwGgZwHAgyngSDnQQBXQjcvWFw98MK+D33TxR0PO7tJDzo440YHB8P+qX3E1OTfLeE/vDHyC0qngaywvha49gM59iHq4gay6wl0scKuF8ixH+AyCOg2BNRjMNDDA+TUF9IX8aAnc0DG/nIHqnUDKTmcsLK7yeoucAHls8q7gXK7gXJcIF1yBmU5gTIdQekMV0hJffDC2x2SfW/ApQ/IidFXXFty6g+L6yCYnQfgWefu9KStI+63sZfutu6C+nadG7W9ev3hh8/2d/uZw43Uu3c5nLuB7FwksnMFOrkQdXAm6uQKdHYFdeoG6twdsHMHOfQWZKBbP1CHHpC2BIIeTwcZB4B03UEaN0DhCipyBRW4gvKcZeS6gHJcQdmuoMsuoItOoAwHGWn2oBRHSOedgIu98HxWD7xo7wLJuQcke4YbLF3dYLbviZeOvfCia088bedID9/ohMY3OtLtN9qjvl3H5wY3Nycm2vZFuL9b0vnG7sfF/dbi6nILXbqCOthJaN8V1LYroY0d0NYeaO8AaucI6uwM4kro0h1wcgO1dYU0qg/o9gSQaSBI5QJScChxBuVzvHaGlOsIynH+jmxW+EUnSFmsbgeQINwelOwAKckB0hknULIbmne547F9V7zs4gSznRPMnZ3Q3NEJLzo54XkXF3zT0QmP3uyMptfb0devt6Wbf2iL6x06vKx2d+1vJf7v/3u0TyN832x2tL+HTp1A7TpKaN0JaN2JqE0nyOgCtLUDOtiDOjuAujgBnZwhOXSFlBMCqvGEVGwnp4T5DqAcO0iX7UGXGA4gQbZMOGVyWHGClO4ESnX8jvBzXUFn7SGdcgSd7AbLF+54MLQznr7ZBS/suuJFBzs8b98Fz9rb4Wn7rnjUjt+9aU93X29Nt19vTV+92RrXu3RqNvXtOeTvhngezf1JWH/c4ZsxMW1euDreQ5dOoA4dJWrbEdS2I0GUnYC2nUFtu4Da2QEdu4IcHIDX7SDNcgXVDQLldwbldQJd7gjpUmdIWR0hZXYBZdiJ2C1lOUHKdAIyWOVOkNJcQKnOoCQOLfags11Bp7uCTjpAOu4I6VNXSCfd8XB0FzT9vj2edumMpx064Um7TnjctiMetu2Iptbtcff1Nrj9+pt08w+t6XrbdmhwdXhZ6dV/kCA+7v8wl2dvne2AP0m6XBmiOT6YN+93z91cbqNjB1C7dhJatwW92ZboTVGCWrcHtekAatsJ1LET0LEzpE4dIJ1xgaSyg5TZFlJGO0hp7WWktoWU2gFSamdI6XYipEhpHFYcIKU6QkrhcOIIOm8P6YwdpJN2kL6wA33eFdIxe0iHXSAd64GHc7rg1htt8KBjJzxs3wkP23XC/Xad0NiuA+627YBbrTvQV23a0/X27amhU0dc6+n6oioiyE0Qf/KksA9+8OzMBXPyv/PyKxtg1grgC/OyDaJiruXkvPasb49Kya4jLO3bSmjdGvjDG4Q/vAG88SbwZhtQ23ZA+w5Ap/ag/2gHi39bUM7vgaRfAid/AXz5S+DL10BfvAY69Rvg9L8D534PnH8DuNAGON8WON8GONcOONMeON0O+LIN6LPWoKOtQYdbA/tbg/a0gWVHB5h3dsHD+a/j6uu/wZ3f/R5N//E67v3md7j3q1/j3q/+FXdeew03//mf6atf/hIN//IaXW39B9T0dn10Lc67tSAe/30u/zcjH8BrAJYRIYsI+UQoIMiAXBYSwCiwAIXm2iuPLTotzBotmdVqmFVqsqjUsCjVMDNUGpiVGvlzkQrNVWq8qDuFxuIP0Vi6G/eKd6OxeBeeGQ7jWeUZPK06j6fVyXhanYKn1anf4kl1Gp5Up+JJVSqeVKbiSbkVplQ8MabisSENj/TpeKTPwANFCu6cT8LdU0loOp2Me5+fwrX3d6Hs3fdhTNwC46pNZHhnHSpWradHyWl4rNc/f/bsRc7zF5aLz15YLj9vJoFnL+jSNy/o4jfPKe3JU/OHz59Dnqd9lcpnNXONvzBLCywWCd88b8ajJy/w8NEz3H/4DR48eoaHj5/j8dMXAryN1zU9t6DxJajxJaGpGdRkBu5bgAeW70pebmoG7r0E7jyx4HajhDzNHaSpbiNNeQvaKw/R+Biov/Mc127/EC9Qf+cFGu7IZf3tF9/tw/vfeY76r1+g4e5LNNx7IXC98SWuP2pGw6OXaHj4AlfvP0PFnaf45HIZ9mXocDSnHHvTtaStvwcLQI3PJNxreoK7jY9xt/EJvrbizr0nkPEY9+4/x41bTzK2bTv5K7llvKKwYyO+oeHmZzdv3cW1+lvPamtvmKuq6s2m8hpzuanGXF1Vb66paTDX1F0319RcN1+5Um+urr5KV6quorb6GtXVNOBq3Q26dvUGGq7dREP9LVxvuCXKq3U3UFN1FZXl1aisrMHHJ1Kx/eML+OhYEi7mFKG2pg56vQk6nQk6rQl6fTkMhnIY9LxshF5nhE5bBi1DbYBGUyb25f3KyqpgMl2BsbwGRlM1jMZqlOmrYNBWQKcxQVGsRWG+Guu3HMaSNfuxZc8pWrXpEEoUemq6dx/VVVepquqqubLShlpzRUWduby81mwqrzWXGa+81OmrpcLisltJJzNlJ/NVqf6kdbbdoCs7Wl1Vi8rKOnN11TVUVtTCWFaNMkOleEB+yDJDlVjHD8vbq6quUnX1NVRfqf8WV2rqcaWmAVdqG1Bd04Cq6muorKpDeWUtKiuuYvue41i+6TDW7vgMpy9korz8CpRKPUpL9ShV6MWyUqFHaYkGRYVKFBYoZBQqUVykQmmpRuyjUXNlVcJgqIZeXwWdrgIajQkqdRmUpToUF2uQm1uKy9mlWLFmN2Ys2YpNe07hnU2HUFCixc2bX5PReIX4uQwGPk8l9LpyAZ22HBptOdSacktJqQGZmUW1R46ceLWvANqI12vLDrMqTaZqM5NaWVFLFeU1ZDJWk8FQSXpdBem05WLZWFZNJtMV3o7y8hoqL6+RlWeslivLWCXUxxVUUV6LCj5f9VVUVddj8/YjmLNyO1ZuPojjJ5NRUXEFKpUBCgVDD5VSD4VCh5JiNQoLmHilqIDiYjVKS7RQKnRQq1j5Rmi1JgGN2ijOwccylEqDqMiiIg3yC7RY/t4OjHprBVZuPoQF7+1Adr6CGupvwqCvJL2en8tEWq2JNBoTadQmUqtNpFKZoFSVWYqKdMjILKzcv//TNq801NiIN+iNhyrKr0CnKzcb9BUwllWRaLqsCH0lrxdq4G3cCgxWpej1FSJEqNVl4qGZREGMugxaDYeKChgNVTCV16DMWIO1m/fh7cWbsHzDPnz+ZRIqKmoEaUwWQ63i8xigKNWhtFSLUgWTzYTK2/g6Aiq5FEQr5Mri/eRKMQn1K5VlKC4pw9JVWxExehZmL3sf0xevR9blAly9egOsbK2G9zWCK08tKpAr0Uh8rEJhsBQUapCeUWjYu/eY+L20V5bd2IjX641HTMYqJs/M5Gk0RlaD3Ay51MvNUTRJJlvHN803KxPOKrURxaTxZ4Z8Lo7L5VAoyrBqzU5MWbAOy9bvxYlTKSg3VVuVboCGK8uqYi457nPz52PF9bQySVpBknxdDlMMUTHfq2wOPxpNOUoVRix+ZzNC46dh8pxETJq9CulZuaipviauJ5NdBpWqjBUOJlypLCNugaWlektegRppaUWa/R/sf/1vonitWveJQc/k6MxMmFJpICbW9tBcCdyhcafFCpFVZ4BKZYvLfIxtmWO2TsRprgyFgA55+SosXfUBJs1djUVrPsIXp1JgLKtASYlGtBY+L1+PWwlXtNy/VIplXicUyhVjVSirlJdZtaLCrKW4V0MVtNoKlJSWYeHSjQiJexsTZq7C2LeX4kLKRVRVXhWVxWQrZHXL/Qz3NaV6KikR/YQlN1+F5NQC3c4NR4SL+coVryxVfarXmVihZlaPUqknW8gQqlaJdd8qmWOtHFOZfFmttgoRnWWJBsVFanBs5k6xsFCFy5dLsOidzZg4JxHz392Oz06cF1kLx/HvWgdnMax2ObR9q3ihdmtYsG4XlSM6fVvlfHcMV5RMvBELl20SxI+fsRKjJi3EybOpqKqsEy3NqmyUlOohk61FcbGWuH8oLFRZcvOUSE7JM3744cFX+7V9W6hRKdSfcPzWaIxmbvJKpY5YrazGokIVCvJLkZdXjPz8UhQWKgShHFKYZLmCjFBrTNaOTSuILshXoKBAAS7z8kpx6VIxFi7fhPEzV2Hmss345LPT4FbGFSS3MrlzFBUq+gprHP/esq1VcMjjrMtkvCI6cjkD48yrEkLxIjxVQK2uxJIV7yM0fjrGz1iF+Inz8fmXF1BZWStaZUmJnolGEUOQrUZhoZoKClTIz1dYcnIVTHzlRx8dbvs3CTUaheYwE69Q6M1MdmGBgvJyS5CdXYjLlwtw8WIesjJzxXJubokgk5UsFC1UrUZRkQr5BQrk5haL4y5dyhdldk4hLl4qQHp6LhYv34RxM1di+pKNOPrZaZGWcnyVO1StaB18Hj5vSbFGhClb6xKkW/sbTgOZbKO1FBlUhZxBcVLAz8IhSK2pwIrE7ULxY6ctx4gJ83DqbCqMxioUFQmSkZ+vRF6+Erl5fO+lyMkpoeycEly+XGzJzCrE2bNZpi1btlithVc0gLIpPuX8+XcuZVxERuolS2pyJpIvpFHSuVQwzp9JwbnTSTh7OgnnzybjwrlUJF9IR0pSBlIuZCD5fLpYd+FsiijPn0uBWD6b+r31aThzKgUz5q7CxNnvYtbyzfhgxwEYDXLGxCoXratAgaIChagATim5f+BtHO44/Iic25pJaTVlooPk0MTry001In3lyuB9+RjOdOYuWo3QuKkYM3UJYsbMxL4Dn0Cl0OHypXxcyspDVkYusjJykJmeLZCRnk0ZaZeRmnLJkpachZ0f7i3v10/2dFpZfzmQ1f9X/dmI3/jBzoRVKxNp6aLFlmWLl2HJwsW0eMEiMBbOW4gFc+dbsQAL5y3Aovnyet7Gn23rlixYiiWLlmLpomUCSxYuw+IFS7FsyQrMnLUQsQnTMXXBWix4bzumzVuFjRu34sjhYzi4/wgO7DuMA3sPydh3CAf3H8YhxoEjVnyMwwfk/fbv2Y99u/diz6692Lt7H/btOYADfMy+Qziw7yD27d6P/XsOYsWKNQiJHofI0TMQP34e4sbPQfyYKVi+bCXWvLcW761MFFi14j2seuddrFy+EiuWraSVy1dh5fIVltkz5yI6bmK5d0icUPwrJ37rwc/HzVm+HmGxCZbgyDgEhMWQf0gU/IKj4B8SjcCwWIGAsFjeJi+HxsA/OAp+QZHwDYr83n7DERjOiENg2HAEhA1HUORIRIyYgrFvL8OMxRuwdN1uLErcjuEJbyMkahSCI0cgOCIeQeFxAgGhsQgIiYZfMJ87An6B4d9exzcoSqzzCQiDp28wPLwDMMTTF4OtGOLlhyFeARg6LBheAdEIi5uC6NEzMXzcHCRMWYjhY6fD0zcM/Qd7oe9AD/QdMESU/QZ5irJP/yHUu/8Q9Bkw1DLQKwShsZPL4ybMeLXEx1ktg00fHRkzP/FDSpi23DJiykLEjptD0QkzETV6BqLHzELs2DmIHTcXMWNnIyZhFkZNXohJs1di0uwVmDjzHUyYvhQjJsx58HMPAAAMQ0lEQVRF5KjpiBg5HWEjpglw/hw2YjrCR81CZMJcRI1dgDHT38X0Ze9j7qrtoqONGD0TYfFvIzh2CgKjJyIgagL8I8fDL2Ic/CLGwjd8DHzDRiM4ZiLix8/BqEnzMXLiXIwYPxtRo96Cb0g8PP1j4OEfjaH+0fDwi8YQ/xgM8Y+FR+BIeAaPhldIAnwjJiAkbqq4v9DhU+ARMByDhoVjgFcoBnqHYZBPhMAA73Dq5xmCvh7BloE+0XxPFTFjpoqR6ytX/PHTmeMPn0jFhg8/tqzecgAr1u+id9bsxPLVO7B8zU6sWLsLK9fvxop1jF2YvnA9EqatEIOhKfPWYMTERZg8exVWbdiNdzfuBZ9j7QcHsX7rIaz74BDWvn8Iaz84gk07jmH3kTP4+It0fHo6EweOnceWnZ9gg9jvINa9fwBrt+zD6s17kbhpj8B7G/dg9aa9mLFwLaISZiHhraUC8RPmIyzuLUyavgwz5idi2rz3MH1+ImbMX42ZC1Zj1qJ1mLN4A+Yt24yFKz4AP8/qzfuw9v39WPf+fqxc8yEWLN+IOYvXYvbiNaKcu2Qd5i5dT/OWbsD8ZRss85dvxpgpi4wDBviKdPKVES8GBGj1s6fPXiaz/XvrzgPzV7fv48atJrp+sxE3BJr487fg9WUV17Bqwz6Mm5WIsdNXYfr81aiorseDR8/R9IDt5Od4yHj8fbwQlvPjJy+tJVvNLwXYbv5j8H5WPG3GjVv3sfS97YgeOw/jpq9EWPw0bN15GNW1X6G8ugHl1ddRceUGKq/cQFXNV6iuvYkrdbdQc+2OQG3916irv4NaxrU7qKv/WpRXrt6GDHm/uvqvqa7hLq423JWu3WhCqbb2q+17P7Z58n/9pLjtrV+DwdC+tq6h3mCogt5QbSkz1ZKpvI7KK+tgqqhDOTuVphoYyqqh01dCqTKioqIORz9PwojJSwURazd9hK9u3kVN3Q1UXakXxpjweozVMJVfkY2yqqtgN5Pdy5ra66i7+hVq2TauuyHcTF5fW3sDV+tvov76HdTfuINrDbfEfmywXa2/jZ17Pxep4ei3liFixFQkpV5CZfU1KNlnYXAKKTuL7C4KqNQmKNUmKFRGKNgHYluAU1jrvhpdJbT6SohSVwmNtoJ4m0JZRoXFOsvFbCXOncsWP61uS0b+qozGNvxNS0v7t+JChYEHRGqVycwjPq22nLhkv4P9DB7h8UCjsFCN/AKV8DQ+PZ6EkZMWIWr0bKxI3GJN4XhftnW1wmHklJAtXj63bYQr+zDfmW4iFzdWi3SwsrIOVVWy1cwlO5+8nS3piopr2LbzYwRET5SvO3IqTp1JERYu31N+gRI88LENhDg/z80TeTnn5iJH51yd9+UcnkeqXBGiYpRlwjLgdUVFWjGAys0tpayLReYzZ7Nw/HhyFJP9SonPycn5tUqlMVidve+IZ19GbRLE26xW4cGU6qDXV+LzL1LEEHz4uHl4570tguDCQqV4qNISNs3YKJNtWh4k8YiYB0ECvGw1xXjoz62D83AmupwnN3hSo6xK+DZsG3BrrKpqwLadR+EbPhYjJs5H5IgpOHM2VYxUC78bdQriuQKYZCY8J6dYlHl5PIpWgfdlgtn/l+1oA0pKdWL0aj2PID4vT0HZOaXm5ORcnDiRLH4d5FUT/7qxrKJCNpyMFuFLa0zCJGN18gQD27VKq1/DJVu8xz47j9GTF2PUlCVYtWYrSopVyMsrEXYBT2yw06dW8/Hl0LLJJexl2UPR8mSDMLXYfLMaYgZ5UkIYYux+8kySji0A2RmtqLiKDz48DO/gkSInjxo5FecvZAibgFXO4FZZLFSrEeq3tQJuqd/fzkTL3gwrnH0ZeRRbKPwlLfE5Cos0VFCoMadlFOKLU+kxr1LxoqMoLi5ud6X6ag37JhqNlXitPNHAI0DZt7Yq1eoMmky1OHL0DEZPWYwxby9D4rrtYnaIvRxuxqUKg+gL2L9hkplAhhzGbCGMh/RyxajVHNLkChaxWsXX4+O4MqoFjMZabPxgH7yCRiJuwjzEjpmOlNSLwr1k8oSKxUyWPLHyfUVb/XWhcL43NsVEBbFHw6QXqVFUrBHr2J0U+yvLqKTEYM7MKsapsxmRr5z4wsLCtjU1165w09Zqyy08IyPPf7IavwNXgtwCjGDijx47h9GTFwnymXiVUieUww/AihKdmJK9bu74THKpMoqWIKzYP7Zjrc1f9sX5OEG+vkpM7xnKarB+8154Bo3AcB5XJExDWvpl4dmzYpl4Dh3y9di65lDJYpIrldfbbGCuFOFIWl1JbqE2p1KhMJA4h8pIpYoyc9bFEpw6mym+xPBKQ41Ccen31VW1Fez0GfSVljK56fN8pAxDFfE0mUFfQVpdOanVZWQy1tDxL1MpYcpiip84n1atfp+UCh0VFmmJmyhbq8UlOrmUbVZi18+Goh9sLylhN1TPExDE2YQNSpWR1JpyUnPo01XRuo27ySNgOEWNmk5RI6dQWtolcT/5BUoqLtGK43kGSaWSp/A4bMpTeUbic4nzWq/BEx4qnurj84vpPjHzxGoXileqyph4S9alUpz9WxDPnWtFRbWB50ZNpitmE6eApisy2Ha1uoCcWXD85ckP7uzOnMtCwpRFYii+bMV6YWwVWLMe7txYhVxyp8adXHZ2Mdj1Ywcwjy1jW9wVHbFeKFUtVMlpX5kIV7bwIdSsNGLtho8w1D8WESPeRkTcRKSkZonOmu1nNtnkzt/aaXKL4vRRnk0S57Mpm1Nizta0IpyJFFIOddaWaW2tXFnmy9lKnE26+EpDjXg1rbCw8DcVxioDp3KVlXXNlZV1UmVFnVRRXiuVm2oko7FaMpbJKCurklRKg6RWGy1JqbnNCZMXNkclzGhesnxtc2GhypyXr5Ryc0ulvDyllF+gkmyfs7OLpcuXiyQus3NL5H3ylVJRkUYqKdFJCmWZpNaYJLWmXFKpjJJCYZBKS/VScbFWKizSiHMVFmktazfsaB7qH9McMWJqc0T8pOb0jOxmo7HaUlqilRQKnVRSrJYKi9RSkRXFxRpxDr4Gn4/Py+dXq8sljbZC0uoqJZ2uUpR6fZWkN1SLz+I+1CZJqTK+zM1TIyU979V1rtxZJFpfRFWUKgr0WiOncM2cN4uwojWSWmkQ4CbL4YbTPG72nBKePpWE6LgJCIxMwJSps3HhXArS2E5NvYz0tMvISM+RkZGLjMw8ZP4AWZl5uHSxANmXi5GTWyp8cU73bP44txSrP45LlwqRfbkQy5evgYdfFEJjJ8AvZDiOf34SleW1YozAkyns5YsJGDFho5R9fR5HWNNatXg7gfsqkUjIk+si1bW+LlImd+ScBKhVBuLxSG52CdLTX+EA6vvEJ585EZ108ov6819+8TDp1KmHF05++fD8Fycenjtx/OEFXnfmzMP0C0kPs1LTHlxMy3hUkJ1bt2Pr1s99fQMOB4VEHgsLDTv8wbp12bu3fXh317YP7+7evuPeng93NO75cGfjvp27Gg/u2t14cPfexoN7GPsaD+3Z13h4777Gj/cfaDp68HDTsUMf3//syLH7nx35RMbHx5o+O3K08bMjR+99euTo3c+OfnLv5LHP1ePHjDvl5RN4Ligs+uwQT++z7yxeejb34qWqzLSMxsyU9LvpSSn30s4n30s9n3Qv/ULKvfSklMaM5DTe1pSVltF0MT2zKYuRmt6UmZzalJ6U3JR6PqkpPSmlKSM5tSkzJa0pMzW9iY9Ju3DhbvqFpK/Tzyft3rZtm3iTjDl7ZX+2EeyKaePabV+5xOWDxOXOjI8YG76PROcPN6912v/BBufdW9eJF3y+fxMBAW7/On/GZPs5b09wYCx+e4LDgplvOTIWz3lbLC+3fuZy+YKZjolWrF0y12ntkiUCicsXONqwcvEch8Rl8+3XrlzsMHPmuN/z9RITW/08kX9RVZ6U+PnmxCVtD2zd6rhvyxaHH+LA1g2OvO2Pwes3OO5ibLCWts9bNzju2LLWYcfatQ7bNibatWrVyubPvPq3hm2+zfeJ/J+WObXy9k78Rdx/vlue+L/0L4KsofFnrVqJKTjxHv//dJ9/7XYWpk2cf+25/uTxfHJ+sD8H/8WN/NnH/znX+OE+/8U1+T8v/M2u+19d808S2LKyhYEWBloYaGGghYEWBloYaGGghYEWBloYaGHgL2fg/wNBMTBJYbMyPgAAAABJRU5ErkJggg==;" vertex="1" parent="1">
          <mxGeometry x="450" y="122" width="55" height="55" as="geometry" />
        </mxCell>
        <mxCell id="guoJjqlwkhtF7B335C00-17" value="" style="shape=image;verticalLabelPosition=bottom;labelBackgroundColor=default;verticalAlign=top;aspect=fixed;imageAspect=0;image=data:image/png,iVBORw0KGgoAAAANSUhEUgAAAGQAAABkCAYAAABw4pVUAAAAAXNSR0IArs4c6QAABjNJREFUeAHtnUvMNFMQhh+XWLiT3zU2LFgICf/KgpUFCQkRQVgTthZ2bCywlV/CDolbkEjEJZbESrAigrhfwuaPS4h7VzJTkeqZnlNfV5+p6e908mXOmVP11ltvdffpmdPTH7StKdAUaAo0BZoCeRU4BrgLeBs4DPyb7O834EPgQeBAXhljmF0AfJCsAEM7xA/ApTGp50M5B/hxh4qxLNT3wKn55BzP6NkdLMayKA+PTz8XwhXAP6YgTwFy1GTbzgAeM1z/Ai7ORnSvfI4C3jcJvgscuVfACn5y4fGR4fwmcESF2JOHuNMkJkfK5ZNHHR/gGsNbTl83j4fdLsIpKybyJ7dLyRX9ZVOUr4DjXQjJjGUyXE6Mc3m9P5nGxXQuBP6cYUF+B84vViGR4YszLMbyKH8pkc7FVORT7jKBub3+VKxCIsO5FcHmk0jqMio2gbn1y1RIZDW3Ath8EkldRsUmMLd+mQqJrOZWAJtPIqnLqNgE5tYvUyGRVWkBngbkG9Ztb2cBLzgu1bfN1x2/tCCnuZGnc5DlgFLe07GYCLkkMVlnyLTJUkEJb7HZua0ksVaQimVtBakodkmoVpASlSratIJUFLskVCtIiUoVbVpBKopdEqoVpESlijYlBRGb9sGwUlFKC/IMcGYlTkNhzu5uhvMsOw9hpRwrLciu2qUUfYjUrgpdynso95RjpYntql1K0YdI7arQpbyHck85VppYWw+pVL7SgrTL3kQFaV+/VyqGhCk5QlpBWkEGFWgrhoPy1B9sBamv+WDEVpBBeeoPtoLU13wwYivIoDz1B/d9QeTSuH0wrLTjlXwOEZu2HpKsIKWFy2ZXSca4MNkEjOYTp1QlpGgBsuFVkjEuTDYBo/nEKVUJKVqAbHiVZIwLk03AaD5xSlVCihYgG14lGePCZBMwmk+cUpWQogXIhldJxrgw2QSM5hOnVCWkaAFW4X0OXA+cAJy4aNtH863yi3hvrIxHA+cBVwJ3AA8BzwPvAfJwmy+Bq8cG+b9/RNJDGFIMeWKd3eSRrl8XrukP4W8as3FX9Y/rfmp9UffMyeuAu7svUg8BrwEfA38UcJSihG2bEho7Lkmu2+TZiGPxN/kvY58OXAbc1j159V7g8W6vf6vb678L4rCMM/p1U0Jjx48dYChHzlj8Tf7ypFU5tWyyGzs+kKZvaCyRTf5yOli3yWlrk3+G8W8XR5McVXJ03bqC97oc3e9PnfC1A4xuWZHY1HxW4cs8IfOFzBsyf8g8IqdamVfWHeEWZyBN35AFju7LQ/1PXkFJ/qPBN1ssiFwxyZWTXEHJlZR3szp5/dfaW+Ap+l8ANywueU/q/s3ETRNdYckELRP1E12h71tM4DKRy4Ru81orSOFANJ6GtcDZ+590V0uvdyI/sji1yOcbed770Fwlydq8VIA9NqLxlIYFzt5X4s6Gzcvp3jOPxtMAFjh7X4k7GzYvp3vPPBpPA1jg7H0l7mzYvJzuPfNoPA1ggbP3lbizYfNyuvfMo/E0gAXO3lfizobNy+neM4/G0wAWOHtfiTsbNi+ne888Gk8DWODsfSXubNi8nO4982g8DWCBp+hHrococWfD5uV075lH42kACxzdj14PUeLOhs3L6d4zj8bTABY4ur/t9ZDofNbhqaBjG+sCRL2/7ttS4V1jPSQqj004Y+ug/psCjR0f+o5pV9ZDSjRQQcc2SoKNsdmF9ZAx+S19x9ZB/ZeAU71Gr4cocWfD5ud075lH42kACzxFP3I9RIk7GzYvp3vPPBpPA1jg7H0l7mzYvJzuPfNoPA1ggbP3lbizYfNyuvfMo/E0gAXO3lfizobNy+neM4/G0wAWOHtfiTsbNi+ne888Gk8DWODsfSXubNi8nO4982g8DWCBs/eVuLNh83K698yj8TSABc7eV+LOhs3L6d4zj8bTABY4e3/2twH9suKepexFWcdvFjfKvTqjgqwr1Kr3095Kegnw6z4tyrJQqW62lslEivJKd2vmz/u8MMsC2deqP0fQ2X0GDflXFnJH++3AA8BzwDvA4Qo72gzkq5uCrE4eBG4E7gEeBd4APgX+DihY3WxmHm3sjz5leaFtlRSQH/OcuzgV2p9Fy6nwM+Cq/wDleXiRHNxGbAAAAABJRU5ErkJggg==;" vertex="1" parent="1">
          <mxGeometry x="685" y="40" width="30" height="30" as="geometry" />
        </mxCell>
        <mxCell id="guoJjqlwkhtF7B335C00-18" value="Windwos AD DC" style="text;html=1;align=center;verticalAlign=middle;resizable=0;points=[];autosize=1;strokeColor=none;fillColor=none;" vertex="1" parent="1">
          <mxGeometry x="730" y="40" width="110" height="30" as="geometry" />
        </mxCell>
        <mxCell id="guoJjqlwkhtF7B335C00-19" value="" style="shape=image;verticalLabelPosition=bottom;labelBackgroundColor=default;verticalAlign=top;aspect=fixed;imageAspect=0;image=data:image/png,iVBORw0KGgoAAAANSUhEUgAAAfQAAAH0CAYAAADL1t+KAAAAAXNSR0IArs4c6QAAIABJREFUeAHt3U/Iret51/GrPUkKcWI7yKDDhGodGeg4s4KEGtu0Ji06sDRSwVEQpSIZFBXJ0ZTiwECnOSGFTjLosJlVlGAGgjRW87+C1A6M2lQIba17dZ+TZJ2z115rvev3PM9939fnhZDstd51Pff9vb6/637Xs9d+U+ULAQQQQAABBBBAAAEEEEAAAQQQQAABBBBAAAEEEEAAAQQQQAABBBBAAAEEEEAAAQQQQAABBBBAAAEEEEAAAQQQQAABBBBAAAEEEEAAAQQQQAABBBBAAAEEEEAAAQQQQAABBBBAAAEEEEAAAQQQQAABBBBAAAEEEEAAAQQQQAABBBBAAAEEEEAAAQQQQAABBBBAAAEEEEAAAQQQQAABBBBAAAEEEEAAAQQQQAABBBBAAAEEEEAAAQQQQAABBBBAAAEEEEAAAQQQQAABBBBAAAEEEEAAAQQQQAABBBBAAAEEEEAAAQQQQAABBBBAAAEEEEAAAQQQQAABBBBAAAEEEEAAAQQQQAABBBBAAAEEEEAAAQQQQAABBBBAAAEEEEAAAQQQQAABBBBAAAEEEEAAAQQQQAABBBBAAAEEEEAAAQQQQAABBBBAAAEEEEAAAQQQQAABBBBAAAEEEEAAAQQQQAABBBBAAAEEEEAAAQQQQAABBBBAAAEEEEAAAQQQQAABBBBAAAEEEEAAAQQQQOASgVeq6j1V9f6q+mhVfbKqPldVX62q//n6f/5jVX2qqv56VZ2+3xcCCCCAAAIIHETgXVX1vqr6SFW9WlWfraovVtW3q+rP7vjP16rqrx20B5dFAAEEEECgBYG/UFXvfXZQf7iqPvbsnfdrz955f76qvnnHgX3L4f7/quoTLYjaJAIIIIAAAhsS+OGq+vGq+sWq+nhV/WZVfaWq/jR8cF873P/FhntUGgEEEEAAgSUI/OCzg/rHqupDz3bzy1X1G8/+DvsLVfVHOx/a1w71n1iCtk0ggAACCCDwAIG9bpFfO5Qfef5LVfUDDzDwUgQQQAABBKYhMMot8kcO7pe99ien6YSFIoAAAgggcIVA6lPkLzs4R33u01fYeBoBBBBAAIGhCLzj2b/HfndVfaCqfqmqfq2qfquqfn+wv9fe++D/naG6ZDEIIIAAAgi8TmD1W+TpA///MAcBBBBAAIGjCMzyKfL04btVvaP66LoIIIAAAg0IuEV+32+Be+Swb6CTLSKAAAIIbE3ALfL9Du5Lh/7WPVYfAQQQQGARAm6RH39oXzrMT4/7QgABBBBA4DsE3CIf+9B2oH9HVf8DAQQQQOBEwC3yeQ/uS4c6sxFAAAEEFiXgFvl6h/alw9wt90VDbFsIINCHgFvkvQ5tB3qfbNspAggsSsAtcgf3yw5z79AXDb5tIYDAnATcIndoXzu0X/b8nNZbNQIIIDApAbfIHdovO5QfeW7SSFg2AgggMDYBt8gd3I8czk957diJsDoEEEBgYAJukTu0n3LwbvWagaNiaQgggMDxBNwid2hvdQCn6x6fFitAAAEEBiDgFrmDO33A7l1vgBhZAgIIILAPAbfIHdp7H7J7Xm+fFLkKAgggsBMBt8gd2nseoiNda6eIuQwCCCCQJeAWuYN7pMN0hLVkE6YaAgggECTgFrlDe4SDcpY1BKOnFAIIIHA/AbfIHdqzHJijr/P+9HkFAggg8AQCbpE7uEc/EGdf3xNi6SUIIIDAZQI/UlU/X1WvVtVnq+qLVfXtcpjNflhY//gOX06lZxBAAIEbCbytqv5eVf2ug7scfOMffKv26Ma4+jYEEEDgxQT+clX9Bwe5g5wDhzvw4oR6FAEEELiBwF+tqj8wyA8f5Ku+47Sv++523BBZ34IAAgi8lcDpn5R9w2HuMOfAMA68NaUeQQABBG4g8GmDfJhB7p3sfe9kV+V1Q2x9CwIIjELgXVX1vtc/Rf73q+ofVtVPV9W7d17gX6qqP3GgO9A5MJQDO48Bl0MAgWsE3llV7332z70+/OzQ/FhVvVZVn6+qb14Znl+oql+oqleuXSDw/D+7spZV3wHZl3fCIzsQiLYSCCBwL4HTofueZwf1+6vqo1X1yar63LMD+fcCB+W/3eEd+78PrHPkwWhtDu4ZHbh3Dvl+BBC4g8BRv4v89MnzH71jnfd+q0+2O/BmPPBWX/O9Ofb9CCDwJgJPvUW+9XA5fQL9h9601tQf/f25A31rf9W/37FUvtVBYHkCM/4u8tOt/C2+DNv7hy1mmG3twBZZVxOBaQm88Snyjyzyu8hP76RPf1ef/tp6MKnv8OPA/Q6kc64eAsMT6PZ/1/lPNuiIYXv/sMUMs60d2CDqSiJwPIEtP0W+dSjT9X97g3ak16iew44DjzuwQdSVRGA/Akd9inym4fPfNmjHTPu31scPCgznYLhB1JVEIEtg1E+RzzLk/jjbjj+vNsverXOOg0ifMn3aIOpKIvA0AjN+inyWQfS0jlx+1Sz7ts7MQYHjHBwvJ9YzCGxAwC3yYwZDupUG/DF9xB33lzmQzrl6CFS3T5G/LGCjPJfWcpR9WYcDjgPfdSCdc/UaEXCL/LtBGn2opLUcfb/WN4+bepXrVTrn6i1GwC3yXNiOHFxpLY/ci2uv4aQ+5vuYzrl6ExJwizwfrNGGVVrL0fZnPes7rMfXe5zOuXoDE3CL/HogVh0aaS1X5WRffTOyQu/TOVfvYAJukRtILxpMaS1fdA2PcY8DxzqQzrl6OxBwi/zY0Mw4tNJazsjAmuVmdQfSOVcvSMAtcgMoNYCCWv55qdS61OE4B3IOpHOu3p0E3CLPyWwwXGZ5p5ZXvx3ry6yxweYoB64G1zc8TsAtcgE/KuBvXPdxi88rvFHXf3ObA+M4cJ5Sf4oQeHtV/VxVfbqqvlbjNFvw+vYiIvb3FOFSX5f0ftzef09E/c8EgZ+qqm84xEvoxwp9wu3vraG/Y/VXP/Tj5ICvEIHvq6p/7SB3kA/qQEjz75RxgDhAODCeA98JqP/xGAGH+XhyGzjf7cljdr/11dh+ly0WWIziwFuT6pG7CfzMoO/KRpHMOo4feHdLfeUFenp8T/VAD97swJXYevoagdMH4L7uQHerfXAHrnl87/NvHiT+7HDhwPEO3Jtj3/8mAn9r8EEuZMeHbIQevEnbh/84wp6sgdscOHfg4WB3L/DrDnTvzidwIJ1Tg/R8kOKBxwgOpHPert5XJhjmI4hmDccOvHQw9fPYfuKP/4scSOe8Xb1vOdC9Q5/AgXQwXzRMPOaQ4cCxDqRz3q4egY8VGP/b+KeDiftt3HHCaU8H0jlvV2/PZrmW4fBUB9LBfOo6vI7DHNjOgXTO29Uj53ZyYptjmw6m3uR6gyWWKQfSOW9XL9UIdYR6SwfSwdxyrWrLAgee5kA65+3qEe9p4uG2L7d0MPVv3/7hjfctDqRz3q7eLZB9jzAe7UA6mEfvx/VligNvdSCd83b1SPVWqTAZj0k6mHo8Xo/1RE/SOW9XT4iEaAYH0sGcYc/WKJvdHEjnvF29bsLY75xDMh1MHszpgb6t3bd0ztvVE5C1A7JKf9PBXIWLfcjvSg6kc96u3koy2Mu6wy0dTK6s64reztvbdM7b1SP/vPJ36l06mJ3Y2auMz+JAOuft6s3SaOvsPZTSweRTb5/0f8z+p3Perh6xxxRbX877kg4mvud88cBjBAfSOW9Xb4QmWoNhcs2BdDCvXc/znOTA/g6kc96uHmn3lxbz+5mng6kH9/cAM8y2diCd83b1tm6Q+oZAwoF0MBNrUoPbHMg6kM55u3qEzAqJ5zY808HUp236hCuujziQznm7eo/A91rh3cuBdDD3WrfryAgHbncgnfN29ch2u2xYHccqHUy9PK6X2GN/yYF0ztvVuwTW40I3kgPpYI60N2uRNQ48dyCd83b1iGSYzOBAOpgz7NkaZbObA+mct6vXTRj7nXNIpoPJgzk90Le1+5bOebt6ArJ2QFbpbzqYq3CxD/ldyYF0ztvVW0kGe1l3uKWDyZV1XdHbeXubznm7euSfV/5OvUsHsxM7e5XxWRxI57xdvVkabZ29h1I6mHzq7ZP+j9n/dM7b1SP2mGLry3lf0sHE95wvHniM4EA65+3qjdBEazBMrjmQDua163mekxzY34F0ztvVI+3+0mJ+P/N0MPXg/h5ghtnWDqRz3q7e1g1S3xBIOJAOZmJNanCbA1kH0jlvV4+QWSHx3IZnOpj6tE2fcMX1EQfSOW9X7xH4Xiu8ezmQDuZe63YdGeHA7Q6kc96uHtlulw2r41ilg6mXx/USe+wvOZDOebt6l8B6XOhGciAdzJH2Zi2yxoHnDqRz3q4ekQyTGRxIB3OGPVujbHZzIJ3zdvW6CWO/cw7JdDB5MKcH+rZ239I5b1dPQNYOyCr9TQdzFS72Ib8rOZDOebt6K8lgL+sOt3QwubKuK3o7b2/TOW9Xj/zzyt+pd+lgdmJnrzI+iwPpnLerN0ujrbP3UEoHk0+9fdL/Mfufznm7esQeU2x9Oe9LOpj4nvPFA48RHEjnvF29EZpoDYbJNQfSwbx2Pc9zkgP7O5DOebt6pN1fWszvZ54Oph7c3wPMMNvagXTO29XbukHqGwIJB9LBTKxJDW5zIOtAOuft6hEyKySe2/BMB1OftukTrrg+4kA65+3qPQLfa4V3LwfSwdxr3a4jIxy43YF0ztvVI9vtsmF1HKt0MPXyuF5ij/0lB9I5b1fvEliPC91IDqSDOdLerEXWOPDcgXTO29UjkmEygwPpYM6wZ2uUzW4OpHPerl43Yex3ziGZDiYP5vRA39buWzrn7eoJyNoBWaW/6WCuwsU+5HclB9I5b1dvJRnsZd3hlg4mV9Z1RW/n7W065+3qkX9e+Tv1Lh3MTuzsVcZncSCd83b1Zmm0dfYeSulg8qm3T/o/Zv/TOW9Xj9hjiq0v531JBxPfc7544DGCA+mct6s3QhOtwTC55kA6mNeu53lOcmB/B9I5b1ePtPtLi/n9zNPB1IP7e4AZZls7kM55u3pbN0h9QyDhQDqYiTWpwW0OZB1I57xdPUJmhcRzG57pYOrTNn3CFddHHEjnvF29R+B7rfDu5UA6mHut23VkhAO3O5DOebt6ZLtdNqyOY5UOpl4e10vssb/kQDrn7epdAutxoRvJgXQwR9qbtcgaB547kM55u3pEMkxmcCAdzBn2bI2y2c2BdM7b1esmjP3OOSTTweTBnB7o29p9S+e8XT0BWTsgq/Q3HcxVuNiH/K7kQDrn7eqtJIO9rDvc0sHkyrqu6O28vU3nvF098s8rf6fepYPZiZ29yvgsDqRz3q7eLI22zt5DKR1MPvX2Sf/H7H865+3qEXtMsfXlvC/pYOJ7zhcPPEZwIJ3zdvVGaKI1GCbXHEgH89r1PM9JDuzvQDrn7eqRdn9pMb+feTqYenB/DzDDbGsH0jlvV2/rBqlvCCQcSAczsSY1uM2BrAPpnLerR8iskHhuwzMdTH3apk+44vqIA+mct6v3CHyvFd69HEgHc691u46McOB2B9I5b1ePbLfLhtVxrNLB1Mvjeok99pccSOe8Xb1LYD0udCM5kA7mSHuzFlnjwHMH0jlvV49IhskMDqSDOcOerVE2uzmQznm7et2Esd85h2Q6mDyY0wN9W7tv6Zy3qycgawdklf6mg7kKF/uQ35UcSOe8Xb2VZLCXdYdbOphcWdcVvZ23t+mct6tH/nnl79S7dDA7sbNXGZ/FgXTO29WbpdHW2XsopYPJp94+6f+Y/U/nvF09Yo8ptr6c9yUdTHzP+eKBxwgOpHPert4ITbQGw+SaA+lgXrue5znJgf0dSOe8XT3S7i8t5vczTwdTD+7vAWaYbe1AOuft6m3dIPUNgYQD6WAm1qQGtzmQdSCd83b1CJkVEs9teKaDqU/b9AlXXB9xIJ3zdvUege+1wruXA+lg7rVu15ERDtzuQDrn7eqR7XbZsDqOVTqYenlcL7HH/pID6Zy3q3cJrMeFbiQH0sEcaW/WImsceO5AOuft6hHJMJnBgXQwZ9izNcpmNwfSOW9Xr5sw9jvnkEwHkwdzeqBva/ctnfN29QRk7YCs0t90MFfhYh/yu5ID6Zy3q7eSDPay7nBLB5Mr67qit/P2Np3zdvXIP6/8nXqXDmYndvYq47M4kM55u3qzNNo6ew+ldDD51Nsn/R+z/+mct6tH7DHF1pfzvqSDie85XzzwGMGBdM7b1RuhidZgmFxzIB3Ma9fzPCc5sL8D6Zy3q0fa/aXF/H7m6WDqwf09wAyzrR1I57xdva0bpL4hkHAgHczEmtTgNgeyDqRz3q4eIbNC4rkNz3Qw9WmbPuGK6yMOpHPert4j8L1WePdyIB3MvdbtOjLCgdsdSOe8XT2y3S4bVsexSgdTL4/rJfbYX3IgnfN29S6B9bjQjeRAOpgj7c1aZI0Dzx1I57xdPSIZJjM4kA7mDHu2Rtns5kA65+3qdRPGfucckulg8mBOD/Rt7b6lc96unoCsHZBV+psO5ipc7EN+V3IgnfN29VaSwV7WHW7pYHJlXVf0dt7epnPerh7555W/U+/SwezEzl5lfBYH0jlvV2+WRltn76GUDiafevuk/2P2P53zdvWIPabY+nLel3Qw8T3niwceIziQznm7eiM00RoMk2sOpIN57Xqe5yQH9ncgnfN29Ui7v7SY3888HUw9uL8HmGG2tQPpnLert3WD1DcEEg6kg5lYkxrc5kDWgXTO29UjZFZIPLfhmQ6mPm3TJ1xxfcSBdM7b1XsEvtcK714OpIO517pdR0Y4cLsD6Zy3q0e222XD6jhW6WDq5XG9xB77Sw6kc96u3iWwHhe6kRxIB3OkvVmLrHHguQPpnLerRyTDZAYH0sGcYc/WKJvdHEjnvF29Pyyh6Raa2fb7vzdIJe/lfrYcrL7eLXK+wegYu+R/caDX6kGZfX//eYMI8d6BPnsuVlv/FjnfYHSMXfIzDnQH+uAOvLZBhHjvQF/tQJx9P1vkfIPRMXbJnx18mM8uqfU/fnB8aIMI8f7xvnAbw6QDW+R8g9Exdsm3V9WXHOrepQ/qwFeq6h0bRIj3DqPkYaTWYz5tlfMNRsf4JX960GEuJI+FZAV+P7VhfHjPrxUyssIetsz5hiNk3NKfcKh7lz6YAx/fIS68d6ivcCDOvIc9cr7DKBnrEq9U1b8abKDPLKm1P3ZQvFpV379DRHj/WJ94jt8jDuyV8x1GyZiX+GBVfdnB7t36QQ6cPs/xkwdEg/cOpkcOJq+9z5+jcn7AaDn+kqcPDJ0+cfjpqjr920C/hOM+WYX7dl4nt75YVad/svI3q+rk3lFfvL+9bxzH6h4HRsr5UfPFdRFAAAEEEEAAAQQQQAABBBBAAAEEEEAAAQQQQAABBBBAAAEEEEAAAQQQQAABBBBAAAEEEEAAAQQQQAABBBBAAAEEEEAAAQQQQAABBBBAAAEEEEAAAQQQQAABBBBAAAEEEEAAAQQQQAABBBBAAAEEEEAAAQQQQAABBBBAAAEEEEAAAQQQQAABBBBAAAEEEEAAAQQQQAABBBBAAAEEEEAAAQQQQAABBBBAAAEEEEAAAQQQQAABBBBAAAEEEEAAAQQQQGBQAu+oqp+tqs9U1e9W1beq6s/8B4MNHDi5dXLs5NqHq+rk3lFfvJdzc24bB0bK+VHz5ZDr/kxVfWWDwS0o2wRlNa5frqoPHmA+7/m5WpZG3s9ROT9gtBxzyVeq6hMOcu/CB3HgX1bV9+8QBd47yEc++FZf214532GUjHUJh7nBNtrweHWHiPCe96N53209e+R8h1EyziVOtxu7SWS/c/R8y9vvvJ/DAVldv09b5nyck3aHlZw+CHT6+wyhwWBEB75aVT+wQQ54z/cRfe+6pq1yvsHoGLvk6dPsXSWy7zl6/6ENIsT7OXovo336tEXONxgdY5f8dQe6H2gGd+DTG0SI930OCj8UzNHrLXK+wegYu+R/HXyYC+McYdyyT6d/p57+4j2vtnRW7fv92iLn6bkxfL0/dKB7hz64AydH01+8v3/gOqQw29KBLXKenhvD19uyQWobACkH0kFKrUsdjnMg50A65+3qkTEnI5bbsUwHU6+26xW22D7VgXTO29V7KnivE9o9HUgHc8+1u5ascOA2B9I5b1ePaLeJhtOxnNLB1M9j+4k//i9yIJ3zdvVeBNVjwjaaA+lgjrY/65E5DqRT3rAeiQySGRxIR3OGPVujbHZzIJ3zdvW6CWO/cw7JdDB5MKcH+rZ239I5b1dPQNYOyCr9TQdzFS72Ib8rOZDOebt6K8lgL+sOt3QwubKuK3o7b2/TOW9Xj/zzyt+pd+lgdmJnrzI+iwPpnLerN0ujrbP3UEoHk0+9fdL/Mfufznm7esQeU2x9Oe9LOpj4nvPFA48RHEjnvF29EZpoDYbJNQfSwbx2Pc9zkgP7O5DOebt6pN1fWszvZ54Oph7c3wPMMNvagXTO29XbukHqGwIJB9LBTKxJDW5zIOtAOuft6hEyKySe2/BMB1OftukTrrg+4kA65+3qPQLfa4V3LwfSwdxr3a4jIxy43YF0ztvVI9vtsmF1HKt0MPXyuF5ij/0lB9I5b1fvEliPC91IDqSDOdLerEXWOPDcgXTO29UjkmEygwPpYM6wZ2uUzW4OpHPerl43Yex3ziGZDiYP5vRA39buWzrn7eoJyNoBWaW/6WCuwsU+5HclB9I5b1dvJRnsZd3hlg4mV9Z1RW/n7W065+3qkX9e+Tv1Lh3MTuzsVcZncSCd83b1Zmm0dfYeSulg8qm3T/o/Zv/TOW9Xj9hjiq0v531JBxPfc7544DGCA+mct6s3QhOtwTC55kA6mNeu53lOcmB/B9I5b1ePtPtLi/n9zNPB1IP7e4AZZls7kM55u3pbN0h9QyDhQDqYiTWpwW0OZB1I57xdPUJmhcRzG57pYOrTNn3CFddHHEjnvF29R+B7rfDu5UA6mHut23VkhAO3O5DOebt6ZLtdNqyOY5UOpl4e10vssb/kQDrn7epdAutxoRvJgXQwR9qbtcgaB547kM55u3pEMkxmcCAdzBn2bI2y2c2BdM7b1esmjP3OOSTTweTBnB7o29p9S+e8XT0BWTsgq/Q3HcxVuNiH/K7kQDrn7eqtJIO9rDvc0sHkyrqu6O28vU3nvF098s8rf6fepYPZiZ29yvgsDqRz3q7eLI22zt5DKR1MPvX2Sf/H7H865+3qEXtMsfXlvC/pYOJ7zhcPPEZwIJ3zdvVGaKI1GCbXHEgH89r1PM9JDuzvQDrn7eqRdn9pMb+feTqYenB/DzDDbGsH0jlvV2/rBqlvCCQcSAczsSY1uM2BrAPpnLerR8iskHhuwzMdTH3apk+44vqIA+mct6v3CHyvFd69HEgHc691u46McOB2B9I5b1ePbLfLhtVxrNLB1Mvjeok99pccSOe8Xb1LYD0udCM5kA7mSHuzFlnjwHMH0jlvV49IhskMDqSDOcOerVE2uzmQznm7et2Esd85h2Q6mDyY0wN9W7tv6Zy3qycgawdklf6mg7kKF/uQ35UcSOe8Xb2VZLCXdYdbOphcWdcVvZ23t+mct6tH/nnl79S7dDA7sbNXGZ/FgXTO29WbpdHW2XsopYPJp94+6f+Y/U/nvF09Yo8ptr6c9yUdTHzP+eKBxwgOpHPert4ITbQGw+SaA+lgXrue5znJgf0dSOe8XT3S7i8t5vczTwdTD+7vAWaYbe1AOuft6m3dIPUNgYQD6WAm1qQGtzmQdSCd83b1CJkVEs9teKaDqU/b9AlXXB9xIJ3zdvUege+1wruXA+lg7rVu15ERDtzuQDrn7eqR7XbZsDqOVTqYenlcL7HH/pID6Zy3q3cJrMeFbiQH0sEcaW/WImsceO5AOuft6hHJMJnBgXQwZ9izNcpmNwfSOW9Xr5sw9jvnkEwHkwdzeqBva/ctnfN29QRk7YCs0t90MFfhYh/yu5ID6Zy3q7eSDPay7nBLB5Mr67qit/P2Np3zdvXIP6/8nXqXDmYndvYq47M4kM55u3qzNNo6ew+ldDD51Nsn/R+z/+mct6tH7DHF1pfzvqSDie85XzzwGMGBdM7b1RuhidZgmFxzIB3Ma9fzPCc5sL8D6Zy3q0fa/aXF/H7m6WDqwf09wAyzrR1I57xdva0bpL4hkHAgHczEmtTgNgeyDqRz3q4eIbNC4rkNz3Qw9WmbPuGK6yMOpHPert4j8L1WePdyIB3MvdbtOjLCgdsdSOe8XT2y3S4bVsexSgdTL4/rJfbYX3IgnfN29S6B9bjQjeRAOpgj7c1aZI0Dzx1I57xdPSIZJjM4kA7mDHu2Rtns5kA65+3qdRPGfucckulg8mBOD/Rt7b6lc96unoCsHZBV+psO5ipc7EN+V3IgnfN29VaSwV7WHW7pYHJlXVf0dt7epnPerh7555W/U+/SwezEzl5lfBYH0jlvV2+WRltn76GUDiafevuk/2P2P53zdvWIPabY+nLel3Qw8T3niwceIziQznm7eiM00RoMk2sOpIN57Xqe5yQH9ncgnfN29Ui7v7SY3888HUw9uL8HmGG2tQPpnLert3WD1DcEEg6kg5lYkxrc5kDWgXTO29UjZFZIPLfhmQ6mPm3TJ1xxfcSBdM7b1XsEvtcK714OpIO517pdR0Y4cLsD6Zy3q0e222XD6jhW6WDq5XG9xB77Sw6kc96u3iWwHhe6kRxIB3OkvVmLrHHguQPpnLerRyTDZAYH0sGcYc/WKJvdHEjnvF29bsLY75xDMh1MHszpgb6t3bd0ztvVE5C1A7JKf9PBXIWLfcjvSg6kc96u3koy2Mu6wy0dTK6s64reztvbdM7b1SP/vPJ36l06mJ3Y2auMz+JAOuft6s3SaOvsPZTSweRTb5/0f8z+p3Perh6xxxRbX877kg4mvud88cBjBAfSOW9Xb4QmWoNhcs2BdDCvXc/znOTA/g6kc96uHmn3lxbz+5mng6lLkV0fAAAKmElEQVQH9/cAM8y2diCd83b1tm6Q+oZAwoF0MBNrUoPbHMg6kM55u3qEzAqJ5zY808HUp236hCuujziQznm7eo/A91rh3cuBdDD3WrfryAgHbncgnfN29ch2u2xYHccqHUy9PK6X2GN/yYF0ztvVuwTW40I3kgPpYI60N2uRNQ48dyCd83b1iGSYzOBAOpgz7NkaZbObA+mct6vXTRj7nXNIpoPJgzk90Le1+5bOebt6ArJ2QFbpbzqYq3CxD/ldyYF0ztvVW0kGe1l3uKWDyZV1XdHbeXubznm7euSfV/5OvUsHsxM7e5XxWRxI57xdvVkabZ29h1I6mHzq7ZP+j9n/dM7b1SP2mGLry3lf0sHE95wvHniM4EA65+3qjdBEazBMrjmQDua163mekxzY34F0ztvVI+3+0mJ+P/N0MPXg/h5ghtnWDqRz3q7e1g1S3xBIOJAOZmJNanCbA1kH0jlvV4+QWSHx3IZnOpj6tE2fcMX1EQfSOW9X7xH4Xiu8ezmQDuZe63YdGeHA7Q6kc96uHtlulw2r41ilg6mXx/USe+wvOZDOebt6l8B6XOhGciAdzJH2Zi2yxoHnDqRz3q4ekQyTGRxIB3OGPVujbHZzIJ3zdvW6CWO/cw7JdDB5MKcH+rZ239I5b1dPQNYOyCr9TQdzFS72Ib8rOZDOebt63yqBWCkQq+4lHcxVOdmXeTazA+mct6v3ZQd6zRyALmtPB7MLN/t0wM/kQDrn7ep9xoHuQJ/AgXQwZxpy1upQ7uJAOuft6v3cBMO8i8z2eXlwp4OJ9WXW2GBzlAPpnLer9/aq+ppD3bv0wR1IB/OogeW6DksOXHYgnfOW9T44+DAXgMsB6MImHcwu3OxTdmZyIJ3ztvV+1aHuXfrADqSDOdOQs1aHchcH0jlvW+/7qupXBh7oXYS2zxcP73QwcX4xZ1xwOdKBdM7b1/tAVX3dwe7d+mAOpIN55NBybYcmB17sQDrn6lXV26rqQ1X1KR+Yc7APcrCng2mgvnig4oLLkQ6kc67eCwi849nh/u6qOr17/6Wq+rWq+q2q+v1Bhv2RArr2PgPwBVo+9JC+7dM3nHG+x4GHQu3FjxP4war6sdff0f9yVf1GVX2hqv7IYe/dfdCBx009r3DPkPG9DiUO7OPAeUr9aSgCP1xVP15Vv1hVH3928P9mVX2lqv40OOgFbZ+gHc05LfbR+3H9Ht7q8319TudcvR0IuIV/n+SGQl5KTDnIgfEcyCddxUMJuIU/XshGGHxpKUfYkzVwnQPnDqRzrt7ABNzCP5e/0zBIa9mJnb32zc1svU/nXL0JCbiFv/7ASms526Cz3vUd1+N0ytVbjoBb+GsMwrSYhucaXujjWn1M51y9RgTcwp9nGKS1dBDM03u96tOrdM7VQ6Dcwh9vgKS1dEiM12M90ZN0ztVD4KUE3MI/Zui8tClPeNLhcUwfccf9ZQ48IcpegsA2BNzC325YpTv2sqHiue36iC22L3MgnXP1EIgTeGdVvbeqPlxVH6uq16rq81X1Tb8x76Zfj/vH8Y4Yqi8bqp7jx1EObBB1JRHYj4Bb+NeH5+9t0I6jBpbrXu83Rn0ZbRB1JRE4nsArz97Jv+fZO/n3V9VHq+qTVfW5qjodbt0G3m9v0I5uDO23X25m7PkGUVcSgbEJdPsU/j/eoB0zDjtrdiiv7sAGUVcSgXkJvKuq3ldVH6mqV6vqs8/+7v6LVfXtSd/Z/8nrdyrSHVl9MNqfw39GB9I5Vw+BZQnM+Cn8f7NRN2YcdtbskF7dgY3iriwCfQiM+in8r1fVD23UhtM7/9WHo/3p8WwObBR3ZRFA4ETgqE/h/0FV/eiGLfgfDnQ/0HBgOAc2jLzSCCBwicCWn8I//Rv90yf8t/z6d4b5cMN8tneT1pu/A7Jl5tVGAIEnEHjqLfzTh/d+oare/oRr3vuSf+pAd6BzYDgH7s2x70cAgQMJvPEp/J+vqn9UVf+gqv72Du/I37zlH3n2W/v8PXr+HZZ3rZg+4sCbc+rPCCCAwE0EPuUd2nDv0B45DLx2/h8mbgqub0IAAQTeTOAvVtXpk/QOAgw4MIYDb86oPyOAAAI3E/grVfXfHep+qOHAEA7cHFzfiAACCLyIwOnv00+frPcuDQMOHOvAi/LpMQQQQOAuAm+rqr9bVb/jYPeDDQcOc+Cu0PpmBBBA4BqB07+B/zuL/C587ziPfceJ/338r2XT8wgggECEwIy/C9+Bct+BgtexvCJBVQQBBBB4KoFu/3e2Dr1jD72V+T81g16HAAIIbE7gqN+Fv/LQt7d1f6DYPJAugAACCGxBwC38dQ8mP3Q8rbdb5ExNBBBA4DACbuE/7TBwiM7P7bDQuTACCCCwNwG38Oc/tPzgcbmHe+fJ9RBAAIEhCbiFf/mgcIjOwWbIYFkUAgggMAoBt/DnOMz80DFKYqwDAQQQmJCAW/gO+5F+kJgwQpaMAAIIjE/ALXyH/d6H/fipsEIEEEBgIQJu4TvotzroF4qJrSCAAAJzE3AL32H/yGE/t/1WjwACCDQh4Ba+w/7aYd8kCraJAAIIrEnALXwH/RsH/ZqG2xUCCCCAQLmF3+uwpzwCCCCAQEMCbuGvd9g31NiWEUAAAQQuEXALf96D/lJPPY4AAggggMAZAbfwxz7sz5rlDwgggAACCDyFgFv4xx/2T+mb1yCAAAIIIHATAbfw9zvob2qIb0IAAQQQQCBNwC387GGf7o96CCCAAAIIPEzALfz7Dvv/9TBxBRBAAAEEENiRgFv4Lz7o/9OOPXApBBBAAAEENiXwrqp6X1V9pKperarPVtUXq+rb9eJD8I3fsLbCf7+2KVnFEUAAAQQQGITA6rfwPzAIZ8tAAAEEEEDgEALvrKr3Pnsn/+Gq+lhVnd7pfr6qvjnRu/ovVdXpryJ8IYAAAggggMALCMzyKfyfeMHaPYQAAggggAACNxAY5Rb+P79hrb4FAQQQQAABBO4ksOct/E/cuTbfjgACCCCAAAIBAqlP4X+1qv5GYD1KIIAAAggggECQwCvPPoz3nmcfxnt/VX20qj5ZVZ+rqm9U1f+tqm9V1emDb6cP7J0+vPe24LWVQgABBBBAAAEEEEAAAQQQQAABBBBAAAEEEEAAAQQQQAABBBBAAAEEEEAAAQQQQAABBBBAAAEEEEAAAQQQQAABBBBAAAEEEEAAAQQQQAABBBBAAAEEEEAAAQQQQAABBBBAAAEEEEAAAQQQQAABBBBAAAEEEEAAAQQQQAABBBBAAAEEEEAAAQQQQAABBBBAAAEEEEAAAQQQQAABBBBAAAEEEEAAAQQQQAABBBBAAAEEEEAAAQQQQAABBBBAAAEEEEAAAQQQQAABBBBAAAEEEEAAAQQQQAABBBBAAAEEEEAAAQQQQAABBBBAAAEEEEAAAQQQQAABBBBAAAEEEEAAAQQQQAABBBBAAAEEEEAAAQQQQAABBBBAAAEEEEAAAQQQQAABBBBAAAEEEEAAAQQQQAABBBBAAAEEEEAAAQQQQAABBBBAAAEEEEAAAQQQQAABBBBAAAEEEEAAAQQQQAABBBBAAAEEEEAAAQQQQAABBBBAAAEEEEAAAQQQQAABBBBAAAEEEEBgCgL/H+As3qpFmYvMAAAAAElFTkSuQmCC;" vertex="1" parent="1">
          <mxGeometry x="685" y="82" width="30" height="30" as="geometry" />
        </mxCell>
        <mxCell id="guoJjqlwkhtF7B335C00-20" value="Windwos Clients" style="text;html=1;align=center;verticalAlign=middle;resizable=0;points=[];autosize=1;strokeColor=none;fillColor=none;" vertex="1" parent="1">
          <mxGeometry x="730" y="82" width="110" height="30" as="geometry" />
        </mxCell>
        <mxCell id="guoJjqlwkhtF7B335C00-21" value="" style="shape=image;verticalLabelPosition=bottom;labelBackgroundColor=default;verticalAlign=top;aspect=fixed;imageAspect=0;image=data:image/png,iVBORw0KGgoAAAANSUhEUgAAAF4AAABeCAYAAACq0qNuAAAAAXNSR0IArs4c6QAAIABJREFUeAHtfQd4VNeZNsnmzzq7ySa7cWx6EeqARO8qqPeKRBEdjOm9GrBFLzZgML0ZYxtsOuoSoN6mz2hGDUkggSkGiW6KZu73/vudO2P7cbK7yROyG8fS87zPuXP7fc97vvOd99wZtWrV8tfCQAsDLQy0MNDCQAsDP10GAPzsp/v0/8dPjsTEnzP+j2/jp3N51NX9FsAb339inDz5T9//3LL8ihkA8O8WxbkiOryuUTr75XEYqn1tl0Bi4i9syy3lK2LAFtNffraph/TlOjOtGQdp8UTQru2g5NRzzeU1vfhSaNXqZwBaws8r4l0QKoj1drWX5oc9pE1vkTQpyCyNi7TQ8oWgT449Ql7pMhvpyMlpUf+rIJ+VLIh3c3uD4gfdoBWjQHPjJRoVRDQi7KU0dQKwbRso9WIKvmpqL/Ztifuvgnr5HPD2/h0iBuikORGQFo620JgQUEwAaESERONGNFNiIuiLc1dhrB0syG+J+6+GfEyd+i8U55UjzQhh4s00PhJSpB9Jkf4kjYyENCa+mRYvBB35/KmlWB8tyG9R/l9PPk6e/BXNiM+SZkdCWjDKTJNiQTFBRKE+RBF+JI2IBI2JN9Oc2cC+oxYU6+JayP/reW+FHNOvadfqIumdcZDmjrJIk4eDhocQhfmSFOpLFO5PNDwcNDreTDNmgnYdaYauwl+Q39Lh/uU1YEsnn9y58wZlnr4urZkBacZIiSbGgeLDicIDQCF+RMG+oDB/otgISAkjzTR9DnDwxC08fuwoyG9JNf8y8m1povnJEy8qyICUOFOS3h5JNCEeFBdJiAiCID3Il8DkhwYQxUSBEkY305xloFNpWQBaRrd/Ge2tWtlIk+7e2U7ZKZBWzbLQlJGQxsYTxUeDIoNBIQGgQF9QoA8oyA8UEkQUGwMaMcZMq95Hc4FyrlB9YkuO/2fxbwszANpQbfVXdOoTYNU8icbGQUqIJ4qLJooMBYUEggL9QP6+DEKAPxASAoqNN2PcDND+41VPnz59U5Df4m7+z9xDrf5/vJd0585GUpaAju0z06IZoJExJI0aASk2GhQRzgoHBfkD/n4gPyv8A4kiYohixzTTsg2wJGVNEMS3pJj/PfG2ENP89Kk71dU9lpLPgg7ukKRJYyHFx4JGxJMUHQ0pMhwUGgIKDBDEw9cXNMyXyCeAKCgCFBlvpkkLQJv2nf3vr9iy9VsGYMIv6c7Xl6ioAHTmhJk2JkKKjyMaHgdpeBwoihUfAeKwEhAI8vUHhvmCvH0J3v5EvqGgsFgJwyfDPHH+jYZly/7925O3LPwxAza1S/fubya9AUg6Z8YXx0CzppMUFUMUE0dSdBwoPBoUGgEKCgX5B8nEe/sBnowAwrBQUGAUIWQkLD6xzQ+HDuvDV7NNolgdzZYZLUEKINxFy4MH46nuGigj04KUC0QfbCZpxCiSwmPApEuRwyGFRYNCZOLhFwQM8we8/EAejACQVyhJfhEgz3AJ3YfSI7vuoeIarVr93NZx/3G1/wTXwEq6ufGpH924+ZRy8kHp6RKOfwpMn0UUFgsKjSWKZLXHgkKiQMERoIBQwDcY8A4AefqBhvqBhgQQeYQQeYUCfX0t1L4b7re1G2WjVdq9d6O08+BB2+efbGkjHU2PBtKtr+9SYYlQO6Ukg9asJ4pNAAVGE4XEgsLjIMqgKFBgBMgvFDQsGOQZADDpg/2AwQFEQ0OIhgSBXAZY6HddcP8N+wQm+JsTF9pK4cPvUMI0SCcy1vA6xP0EpxABiLQRjY/6062vb1OJEpR5yUyZWaC9B4gmTYcUPJzIjxUeCyl0OKTgGEiBUSC/cJBPKMgrGDTUHxjsBxroCwwMAA0OIRrgD2rbXaJftqPHbRyFa/ly+rI4yW0IaJCfmeZtslhU9cGC/J+Sp/Ot0h8+7EO3792UStSgrOxmyroM+vQLogXvgCITiHyiQL7RoMDhoODhoKAYkF8kyCcc5B0K8gxilQMDfEH9fUD9AwgDQ4h6+xB+25WkX7Snh+1cfZjgZp/oT6lrHz72BfmMhLT7vBbArwX5P4UBlo30Zlb6zbs3pRIN6GKumbJyQF+eJby3GTTiLSK/4SAvJjkaFBAHCoiVK8EnEhgWDniGgIYGgQb5A/19QX18QH0CiAaEgHp4Ev65A56/1rG5ptVvu6JAZSe5Dm4kp0Gg4JES9fJpprc3QrqkW/KTCDnfkn6naSDdvHubSrSgrNxmKTMHOJ1E2PQRaNwcooBRII9ISB6RoGGxEJXgHwsKiILkyxlLGGhoCDA4CCKs9PEBevmAevsTDQgFuQyR8E/t8ORfuzbmJOe8LnlFHSa73iDv+GYKSgD6+Eo0bBKr/tYzPOvwD61624S0HNPv3kKxBlJmbjNl5oJOJRO2HwCmLgWFjifyjAENjgR5RMnE+7L6YyD1iYY0MJJTRmBIMDAwEOjrB+rlA7gNA/X0JxoYAXL1IrT6PV4MinlqHjcvE116NdPAcFDAWCKfeKI+vqDeUWaauQ3mLNVWQfw/oq1gGxw1373bi27cvUmFGlB6jpkyckCnUwk7Pyaa9S5R5BSCdzxoUCRoUATgEQN4xwIechoprfEBxQaA3MNBQ4JBAwNBvf2Anj6gHt5AD19gQBRR71CQ01CisIkg92GgXkGEoXFEQ2JBA8MJPbwJvcMlCpoDaf+Fuy/q6v7x/Hubt/7izkM76fqdWilfDUrJbqa0HNCZNKI9nwLz1xHFTAd5j2LiQAMiZPKHRAMcatwjIG0eCYIHqN4etN4D1DMY6BMAYsW7DQO6eYNchxH1CQd5jCQKngzyGknUL9JM/aOI+oaD+oQR9fQHXD2JeoYSDR7fTIs/gjmjaLNQ/T9KhmMbKTY1Nf2b5frtEirQgM5dfEnJ2aDT6YQDJ4DFm4ni5xD5jgUGxAB9IoB+EcCAaNCgaMArBtQ9BNKnI0DmANCtLqCnjqDjg0B9AwB3a6hx9QI5e4LcAkD9I4BBMUT9okC9wwH3YCK3QEIPf6DbMCInT6B7EGhggoVil0E6fP7Gc52usyA/8R/gBSmb2i037x0khRHSyYxmOpvFM0SEQycJK7cRjVoA8p8ADIoHekeCekeA+kYCA6NlDI0G9fjPAdGX4SBzIOi6PajBDnjkBCl5CKifH9DNB9RzGMDEu3qDeviRqIAeAUTd/And/IlcfUEuTLoXYO9F5BpINGAkMOztZnp3H8zJ2XKG82OP9bYMxvL1/TFkrAWdSDNLnycTnUgmHDlNtHoXaNxSUMAU0KCRQO8oUM8IUC+ZeOoXDfSPBgZbiT8TCDwPAl13Bl13ANV0ATW5gJKHcRoJdPcD9fQFXLgCvEEu3iDnYYDTMJCjN+DA8AS6egB2niCnAEKf4SCPSRImrUXz/lOV9woLf8Oq/9H+2ZSOZ8/aUe2NBjp9EbTvpFk6ehZ0+BRh/T5g0kqi4GmgIZzeyXEc7uFAz3DOOIC+0aC+HO+jQD0CIKUFgr4JglTvDGpwAV21A1V1BN3tDumkvwgxcA8EufmDXP0AFx+Z9K7eoK5eIDtPwG4o0NkD1MUTcPAjco8iGjoeFDFfsqzdj2fHzo5k0m1O5o+uAmzES3eadlCeFrT9s2Zp7wnQgS8Jmw+Cpq0mhM0EPMaB+sUB7lEgtwjRiVLPSDBEC2DiGT19IZWEAo+CQNdcQNe6AXWOoCtdQKaOoNvukPb4A46BoJ6BoO4BIBd/kJMvqKs3wOQz8Z2GAu2Hgjp6AF19QN3CiAaNBvlPM9OsTXi25WDSj5Z4W4fa/OBpT6ni6lM6eBa08RBJ+06ANh0gzFpPiJwL8poA9B8J9IoFdY8CukUC3SMB90iAyefK6B0J9IgC+XhDujoKdNcPqHMB1bqBrriAquxBFZ1Ahs6g6/0gLfED2QXI5LsGgJz8QPY+MvGdPIEOMvFo7wnq4kPkHAL0jSfymiRZRi2DZfn2u02rtnX7UZJvy9ktDbeOUlYJaOUus7TpEOj9I0Sz1oOi54O8JgH9R4F6DQf1iAa6RYG6MflRgJtV8e6RIM5w7MJBs31Bz2aCGgYCNd2AajdQlSuowglksgPpOgJl9iDTAEgxfoB9gAhP5OQPsvcFug4DdfYGOngC7T3kspMPyDGI0CuaaHACWUJnm5unvocH05fPsxL/43kD2RZiXt665UKVdV/TruOgWesladVHRHM2gmIXEHlPBvUfDfSKA7nHAt05XYwWxFP3SJCblfxerPxokLMvpEtjgG9mA1dcQUx6RQ+gvDvI6AxJ7wDSdQEpOoNMTpBSB4N6cYwPBLHqHf0Bez85tHT2Ajp4Ae29ACbegVPMCKIB8TAPm2x+GbcAz0bOPh/XqtU/2VrujyLO22wBqaJuKbIKQHPWNVPCEpImryIpdh6RDytdDi9wjwGDmFx3Bsf5SFnxHG76RoI6h4AWBoFeJIKuB4OqnEDl7iCjG8jQA6TvBmidQSp7kMIOVNgFVN4D0loPkD3n+IGAawDg7AdykEMO7LyAzhzzmXjO64OJ+kTCPHiU1BwyDc+Cxtys6u/ZRai+1Y/oO1e31Op/IW1ZDu05CoRPNlPYW6DwqUTeCYT+saBeUQCnjRzHe0WLThSsbhHbIwB3TifDAedwUPgw0M2lQOMUUKULyOQGKusJ0ruDdG4gTXeQyhWkcAKK7UFFXUHFDqDi3pDCOKUMBPXyB3WTsxxy8gbsOaX0ksOPI48BAojcA9HcL4Kee4623B8chgb3/mEy8XF//2+j2VKwl/n5rtKpC49p7goijxiJfEaABkcT9QoBuQWCegSC3INAvUJFDKe+ERDD/F5hIPdQUN9QUPdQ0BAvkG4W6NFcUFVPkKk7SN8TpHUHadwBtRtI1QOSojuoxBVU6AQqcICU7QBSukLaPRDU3QfozZaCD8ADK2cPwHEoyN4T5DBMhDEeWFm6edNLdz887RNiftTTG1+79lr9o1G87Zt4lv2fjKd31wGRCWYMZj8knB+cyHko4OQhD+tdvQHOt3sFgXoHW8sgUL8guVL6DgXlvQU8mQ+q6CeTrnMHqd1BSndISjeQwg1U0gNU3B1U6Aop3xmU6wTKdgRddgLl9oYlZpAgHD15RDsU5DxEAM687CkGW1I3b2p2GkTPnQfhkctgy1PHPrhj1/2cTLz8zRRe/rv9sylemrFgB0aMBQ32N1Nf9sm9CQ79ibr2AwT6A44DAVcPUI9hIHdfWZG9fGXfxX0QpNRxwNN5oPJ+oLIeICZd5QYqdYNU0l0mu6gbqKgbpIJukPJdIOU4gS47gi45Qspg9feA+f2+sDgNBNwGgZwHAgyngSDnQQBXQjcvWFw98MK+D33TxR0PO7tJDzo440YHB8P+qX3E1OTfLeE/vDHyC0qngaywvha49gM59iHq4gay6wl0scKuF8ixH+AyCOg2BNRjMNDDA+TUF9IX8aAnc0DG/nIHqnUDKTmcsLK7yeoucAHls8q7gXK7gXJcIF1yBmU5gTIdQekMV0hJffDC2x2SfW/ApQ/IidFXXFty6g+L6yCYnQfgWefu9KStI+63sZfutu6C+nadG7W9ev3hh8/2d/uZw43Uu3c5nLuB7FwksnMFOrkQdXAm6uQKdHYFdeoG6twdsHMHOfQWZKBbP1CHHpC2BIIeTwcZB4B03UEaN0DhCipyBRW4gvKcZeS6gHJcQdmuoMsuoItOoAwHGWn2oBRHSOedgIu98HxWD7xo7wLJuQcke4YbLF3dYLbviZeOvfCia088bedID9/ohMY3OtLtN9qjvl3H5wY3Nycm2vZFuL9b0vnG7sfF/dbi6nILXbqCOthJaN8V1LYroY0d0NYeaO8AaucI6uwM4kro0h1wcgO1dYU0qg/o9gSQaSBI5QJScChxBuVzvHaGlOsIynH+jmxW+EUnSFmsbgeQINwelOwAKckB0hknULIbmne547F9V7zs4gSznRPMnZ3Q3NEJLzo54XkXF3zT0QmP3uyMptfb0devt6Wbf2iL6x06vKx2d+1vJf7v/3u0TyN832x2tL+HTp1A7TpKaN0JaN2JqE0nyOgCtLUDOtiDOjuAujgBnZwhOXSFlBMCqvGEVGwnp4T5DqAcO0iX7UGXGA4gQbZMOGVyWHGClO4ESnX8jvBzXUFn7SGdcgSd7AbLF+54MLQznr7ZBS/suuJFBzs8b98Fz9rb4Wn7rnjUjt+9aU93X29Nt19vTV+92RrXu3RqNvXtOeTvhngezf1JWH/c4ZsxMW1euDreQ5dOoA4dJWrbEdS2I0GUnYC2nUFtu4Da2QEdu4IcHIDX7SDNcgXVDQLldwbldQJd7gjpUmdIWR0hZXYBZdiJ2C1lOUHKdAIyWOVOkNJcQKnOoCQOLfags11Bp7uCTjpAOu4I6VNXSCfd8XB0FzT9vj2edumMpx064Um7TnjctiMetu2Iptbtcff1Nrj9+pt08w+t6XrbdmhwdXhZ6dV/kCA+7v8wl2dvne2AP0m6XBmiOT6YN+93z91cbqNjB1C7dhJatwW92ZboTVGCWrcHtekAatsJ1LET0LEzpE4dIJ1xgaSyg5TZFlJGO0hp7WWktoWU2gFSamdI6XYipEhpHFYcIKU6QkrhcOIIOm8P6YwdpJN2kL6wA33eFdIxe0iHXSAd64GHc7rg1htt8KBjJzxs3wkP23XC/Xad0NiuA+627YBbrTvQV23a0/X27amhU0dc6+n6oioiyE0Qf/KksA9+8OzMBXPyv/PyKxtg1grgC/OyDaJiruXkvPasb49Kya4jLO3bSmjdGvjDG4Q/vAG88SbwZhtQ23ZA+w5Ap/ag/2gHi39bUM7vgaRfAid/AXz5S+DL10BfvAY69Rvg9L8D534PnH8DuNAGON8WON8GONcOONMeON0O+LIN6LPWoKOtQYdbA/tbg/a0gWVHB5h3dsHD+a/j6uu/wZ3f/R5N//E67v3md7j3q1/j3q/+FXdeew03//mf6atf/hIN//IaXW39B9T0dn10Lc67tSAe/30u/zcjH8BrAJYRIYsI+UQoIMiAXBYSwCiwAIXm2iuPLTotzBotmdVqmFVqsqjUsCjVMDNUGpiVGvlzkQrNVWq8qDuFxuIP0Vi6G/eKd6OxeBeeGQ7jWeUZPK06j6fVyXhanYKn1anf4kl1Gp5Up+JJVSqeVKbiSbkVplQ8MabisSENj/TpeKTPwANFCu6cT8LdU0loOp2Me5+fwrX3d6Hs3fdhTNwC46pNZHhnHSpWradHyWl4rNc/f/bsRc7zF5aLz15YLj9vJoFnL+jSNy/o4jfPKe3JU/OHz59Dnqd9lcpnNXONvzBLCywWCd88b8ajJy/w8NEz3H/4DR48eoaHj5/j8dMXAryN1zU9t6DxJajxJaGpGdRkBu5bgAeW70pebmoG7r0E7jyx4HajhDzNHaSpbiNNeQvaKw/R+Biov/Mc127/EC9Qf+cFGu7IZf3tF9/tw/vfeY76r1+g4e5LNNx7IXC98SWuP2pGw6OXaHj4AlfvP0PFnaf45HIZ9mXocDSnHHvTtaStvwcLQI3PJNxreoK7jY9xt/EJvrbizr0nkPEY9+4/x41bTzK2bTv5K7llvKKwYyO+oeHmZzdv3cW1+lvPamtvmKuq6s2m8hpzuanGXF1Vb66paTDX1F0319RcN1+5Um+urr5KV6quorb6GtXVNOBq3Q26dvUGGq7dREP9LVxvuCXKq3U3UFN1FZXl1aisrMHHJ1Kx/eML+OhYEi7mFKG2pg56vQk6nQk6rQl6fTkMhnIY9LxshF5nhE5bBi1DbYBGUyb25f3KyqpgMl2BsbwGRlM1jMZqlOmrYNBWQKcxQVGsRWG+Guu3HMaSNfuxZc8pWrXpEEoUemq6dx/VVVepquqqubLShlpzRUWduby81mwqrzWXGa+81OmrpcLisltJJzNlJ/NVqf6kdbbdoCs7Wl1Vi8rKOnN11TVUVtTCWFaNMkOleEB+yDJDlVjHD8vbq6quUnX1NVRfqf8WV2rqcaWmAVdqG1Bd04Cq6muorKpDeWUtKiuuYvue41i+6TDW7vgMpy9korz8CpRKPUpL9ShV6MWyUqFHaYkGRYVKFBYoZBQqUVykQmmpRuyjUXNlVcJgqIZeXwWdrgIajQkqdRmUpToUF2uQm1uKy9mlWLFmN2Ys2YpNe07hnU2HUFCixc2bX5PReIX4uQwGPk8l9LpyAZ22HBptOdSacktJqQGZmUW1R46ceLWvANqI12vLDrMqTaZqM5NaWVFLFeU1ZDJWk8FQSXpdBem05WLZWFZNJtMV3o7y8hoqL6+RlWeslivLWCXUxxVUUV6LCj5f9VVUVddj8/YjmLNyO1ZuPojjJ5NRUXEFKpUBCgVDD5VSD4VCh5JiNQoLmHilqIDiYjVKS7RQKnRQq1j5Rmi1JgGN2ijOwccylEqDqMiiIg3yC7RY/t4OjHprBVZuPoQF7+1Adr6CGupvwqCvJL2en8tEWq2JNBoTadQmUqtNpFKZoFSVWYqKdMjILKzcv//TNq801NiIN+iNhyrKr0CnKzcb9BUwllWRaLqsCH0lrxdq4G3cCgxWpej1FSJEqNVl4qGZREGMugxaDYeKChgNVTCV16DMWIO1m/fh7cWbsHzDPnz+ZRIqKmoEaUwWQ63i8xigKNWhtFSLUgWTzYTK2/g6Aiq5FEQr5Mri/eRKMQn1K5VlKC4pw9JVWxExehZmL3sf0xevR9blAly9egOsbK2G9zWCK08tKpAr0Uh8rEJhsBQUapCeUWjYu/eY+L20V5bd2IjX641HTMYqJs/M5Gk0RlaD3Ay51MvNUTRJJlvHN803KxPOKrURxaTxZ4Z8Lo7L5VAoyrBqzU5MWbAOy9bvxYlTKSg3VVuVboCGK8uqYi457nPz52PF9bQySVpBknxdDlMMUTHfq2wOPxpNOUoVRix+ZzNC46dh8pxETJq9CulZuaipviauJ5NdBpWqjBUOJlypLCNugaWlektegRppaUWa/R/sf/1vonitWveJQc/k6MxMmFJpICbW9tBcCdyhcafFCpFVZ4BKZYvLfIxtmWO2TsRprgyFgA55+SosXfUBJs1djUVrPsIXp1JgLKtASYlGtBY+L1+PWwlXtNy/VIplXicUyhVjVSirlJdZtaLCrKW4V0MVtNoKlJSWYeHSjQiJexsTZq7C2LeX4kLKRVRVXhWVxWQrZHXL/Qz3NaV6KikR/YQlN1+F5NQC3c4NR4SL+coVryxVfarXmVihZlaPUqknW8gQqlaJdd8qmWOtHFOZfFmttgoRnWWJBsVFanBs5k6xsFCFy5dLsOidzZg4JxHz392Oz06cF1kLx/HvWgdnMax2ObR9q3ihdmtYsG4XlSM6fVvlfHcMV5RMvBELl20SxI+fsRKjJi3EybOpqKqsEy3NqmyUlOohk61FcbGWuH8oLFRZcvOUSE7JM3744cFX+7V9W6hRKdSfcPzWaIxmbvJKpY5YrazGokIVCvJLkZdXjPz8UhQWKgShHFKYZLmCjFBrTNaOTSuILshXoKBAAS7z8kpx6VIxFi7fhPEzV2Hmss345LPT4FbGFSS3MrlzFBUq+gprHP/esq1VcMjjrMtkvCI6cjkD48yrEkLxIjxVQK2uxJIV7yM0fjrGz1iF+Inz8fmXF1BZWStaZUmJnolGEUOQrUZhoZoKClTIz1dYcnIVTHzlRx8dbvs3CTUaheYwE69Q6M1MdmGBgvJyS5CdXYjLlwtw8WIesjJzxXJubokgk5UsFC1UrUZRkQr5BQrk5haL4y5dyhdldk4hLl4qQHp6LhYv34RxM1di+pKNOPrZaZGWcnyVO1StaB18Hj5vSbFGhClb6xKkW/sbTgOZbKO1FBlUhZxBcVLAz8IhSK2pwIrE7ULxY6ctx4gJ83DqbCqMxioUFQmSkZ+vRF6+Erl5fO+lyMkpoeycEly+XGzJzCrE2bNZpi1btlithVc0gLIpPuX8+XcuZVxERuolS2pyJpIvpFHSuVQwzp9JwbnTSTh7OgnnzybjwrlUJF9IR0pSBlIuZCD5fLpYd+FsiijPn0uBWD6b+r31aThzKgUz5q7CxNnvYtbyzfhgxwEYDXLGxCoXratAgaIChagATim5f+BtHO44/Iic25pJaTVlooPk0MTry001In3lyuB9+RjOdOYuWo3QuKkYM3UJYsbMxL4Dn0Cl0OHypXxcyspDVkYusjJykJmeLZCRnk0ZaZeRmnLJkpachZ0f7i3v10/2dFpZfzmQ1f9X/dmI3/jBzoRVKxNp6aLFlmWLl2HJwsW0eMEiMBbOW4gFc+dbsQAL5y3Aovnyet7Gn23rlixYiiWLlmLpomUCSxYuw+IFS7FsyQrMnLUQsQnTMXXBWix4bzumzVuFjRu34sjhYzi4/wgO7DuMA3sPydh3CAf3H8YhxoEjVnyMwwfk/fbv2Y99u/diz6692Lt7H/btOYADfMy+Qziw7yD27d6P/XsOYsWKNQiJHofI0TMQP34e4sbPQfyYKVi+bCXWvLcW761MFFi14j2seuddrFy+EiuWraSVy1dh5fIVltkz5yI6bmK5d0icUPwrJ37rwc/HzVm+HmGxCZbgyDgEhMWQf0gU/IKj4B8SjcCwWIGAsFjeJi+HxsA/OAp+QZHwDYr83n7DERjOiENg2HAEhA1HUORIRIyYgrFvL8OMxRuwdN1uLErcjuEJbyMkahSCI0cgOCIeQeFxAgGhsQgIiYZfMJ87An6B4d9exzcoSqzzCQiDp28wPLwDMMTTF4OtGOLlhyFeARg6LBheAdEIi5uC6NEzMXzcHCRMWYjhY6fD0zcM/Qd7oe9AD/QdMESU/QZ5irJP/yHUu/8Q9Bkw1DLQKwShsZPL4ybMeLXEx1ktg00fHRkzP/FDSpi23DJiykLEjptD0QkzETV6BqLHzELs2DmIHTcXMWNnIyZhFkZNXohJs1di0uwVmDjzHUyYvhQjJsx58HMPAAAMQ0lEQVRF5KjpiBg5HWEjpglw/hw2YjrCR81CZMJcRI1dgDHT38X0Ze9j7qrtoqONGD0TYfFvIzh2CgKjJyIgagL8I8fDL2Ic/CLGwjd8DHzDRiM4ZiLix8/BqEnzMXLiXIwYPxtRo96Cb0g8PP1j4OEfjaH+0fDwi8YQ/xgM8Y+FR+BIeAaPhldIAnwjJiAkbqq4v9DhU+ARMByDhoVjgFcoBnqHYZBPhMAA73Dq5xmCvh7BloE+0XxPFTFjpoqR6ytX/PHTmeMPn0jFhg8/tqzecgAr1u+id9bsxPLVO7B8zU6sWLsLK9fvxop1jF2YvnA9EqatEIOhKfPWYMTERZg8exVWbdiNdzfuBZ9j7QcHsX7rIaz74BDWvn8Iaz84gk07jmH3kTP4+It0fHo6EweOnceWnZ9gg9jvINa9fwBrt+zD6s17kbhpj8B7G/dg9aa9mLFwLaISZiHhraUC8RPmIyzuLUyavgwz5idi2rz3MH1+ImbMX42ZC1Zj1qJ1mLN4A+Yt24yFKz4AP8/qzfuw9v39WPf+fqxc8yEWLN+IOYvXYvbiNaKcu2Qd5i5dT/OWbsD8ZRss85dvxpgpi4wDBviKdPKVES8GBGj1s6fPXiaz/XvrzgPzV7fv48atJrp+sxE3BJr487fg9WUV17Bqwz6Mm5WIsdNXYfr81aiorseDR8/R9IDt5Od4yHj8fbwQlvPjJy+tJVvNLwXYbv5j8H5WPG3GjVv3sfS97YgeOw/jpq9EWPw0bN15GNW1X6G8ugHl1ddRceUGKq/cQFXNV6iuvYkrdbdQc+2OQG3916irv4NaxrU7qKv/WpRXrt6GDHm/uvqvqa7hLq423JWu3WhCqbb2q+17P7Z58n/9pLjtrV+DwdC+tq6h3mCogt5QbSkz1ZKpvI7KK+tgqqhDOTuVphoYyqqh01dCqTKioqIORz9PwojJSwURazd9hK9u3kVN3Q1UXakXxpjweozVMJVfkY2yqqtgN5Pdy5ra66i7+hVq2TauuyHcTF5fW3sDV+tvov76HdTfuINrDbfEfmywXa2/jZ17Pxep4ei3liFixFQkpV5CZfU1KNlnYXAKKTuL7C4KqNQmKNUmKFRGKNgHYluAU1jrvhpdJbT6SohSVwmNtoJ4m0JZRoXFOsvFbCXOncsWP61uS0b+qozGNvxNS0v7t+JChYEHRGqVycwjPq22nLhkv4P9DB7h8UCjsFCN/AKV8DQ+PZ6EkZMWIWr0bKxI3GJN4XhftnW1wmHklJAtXj63bYQr+zDfmW4iFzdWi3SwsrIOVVWy1cwlO5+8nS3piopr2LbzYwRET5SvO3IqTp1JERYu31N+gRI88LENhDg/z80TeTnn5iJH51yd9+UcnkeqXBGiYpRlwjLgdUVFWjGAys0tpayLReYzZ7Nw/HhyFJP9SonPycn5tUqlMVidve+IZ19GbRLE26xW4cGU6qDXV+LzL1LEEHz4uHl4570tguDCQqV4qNISNs3YKJNtWh4k8YiYB0ECvGw1xXjoz62D83AmupwnN3hSo6xK+DZsG3BrrKpqwLadR+EbPhYjJs5H5IgpOHM2VYxUC78bdQriuQKYZCY8J6dYlHl5PIpWgfdlgtn/l+1oA0pKdWL0aj2PID4vT0HZOaXm5ORcnDiRLH4d5FUT/7qxrKJCNpyMFuFLa0zCJGN18gQD27VKq1/DJVu8xz47j9GTF2PUlCVYtWYrSopVyMsrEXYBT2yw06dW8/Hl0LLJJexl2UPR8mSDMLXYfLMaYgZ5UkIYYux+8kySji0A2RmtqLiKDz48DO/gkSInjxo5FecvZAibgFXO4FZZLFSrEeq3tQJuqd/fzkTL3gwrnH0ZeRRbKPwlLfE5Cos0VFCoMadlFOKLU+kxr1LxoqMoLi5ud6X6ag37JhqNlXitPNHAI0DZt7Yq1eoMmky1OHL0DEZPWYwxby9D4rrtYnaIvRxuxqUKg+gL2L9hkplAhhzGbCGMh/RyxajVHNLkChaxWsXX4+O4MqoFjMZabPxgH7yCRiJuwjzEjpmOlNSLwr1k8oSKxUyWPLHyfUVb/XWhcL43NsVEBbFHw6QXqVFUrBHr2J0U+yvLqKTEYM7MKsapsxmRr5z4wsLCtjU1165w09Zqyy08IyPPf7IavwNXgtwCjGDijx47h9GTFwnymXiVUieUww/AihKdmJK9bu74THKpMoqWIKzYP7Zjrc1f9sX5OEG+vkpM7xnKarB+8154Bo3AcB5XJExDWvpl4dmzYpl4Dh3y9di65lDJYpIrldfbbGCuFOFIWl1JbqE2p1KhMJA4h8pIpYoyc9bFEpw6mym+xPBKQ41Ccen31VW1Fez0GfSVljK56fN8pAxDFfE0mUFfQVpdOanVZWQy1tDxL1MpYcpiip84n1atfp+UCh0VFmmJmyhbq8UlOrmUbVZi18+Goh9sLylhN1TPExDE2YQNSpWR1JpyUnPo01XRuo27ySNgOEWNmk5RI6dQWtolcT/5BUoqLtGK43kGSaWSp/A4bMpTeUbic4nzWq/BEx4qnurj84vpPjHzxGoXileqyph4S9alUpz9WxDPnWtFRbWB50ZNpitmE6eApisy2Ha1uoCcWXD85ckP7uzOnMtCwpRFYii+bMV6YWwVWLMe7txYhVxyp8adXHZ2Mdj1Ywcwjy1jW9wVHbFeKFUtVMlpX5kIV7bwIdSsNGLtho8w1D8WESPeRkTcRKSkZonOmu1nNtnkzt/aaXKL4vRRnk0S57Mpm1Nizta0IpyJFFIOddaWaW2tXFnmy9lKnE26+EpDjXg1rbCw8DcVxioDp3KVlXXNlZV1UmVFnVRRXiuVm2oko7FaMpbJKCurklRKg6RWGy1JqbnNCZMXNkclzGhesnxtc2GhypyXr5Ryc0ulvDyllF+gkmyfs7OLpcuXiyQus3NL5H3ylVJRkUYqKdFJCmWZpNaYJLWmXFKpjJJCYZBKS/VScbFWKizSiHMVFmktazfsaB7qH9McMWJqc0T8pOb0jOxmo7HaUlqilRQKnVRSrJYKi9RSkRXFxRpxDr4Gn4/Py+dXq8sljbZC0uoqJZ2uUpR6fZWkN1SLz+I+1CZJqTK+zM1TIyU979V1rtxZJFpfRFWUKgr0WiOncM2cN4uwojWSWmkQ4CbL4YbTPG72nBKePpWE6LgJCIxMwJSps3HhXArS2E5NvYz0tMvISM+RkZGLjMw8ZP4AWZl5uHSxANmXi5GTWyp8cU73bP44txSrP45LlwqRfbkQy5evgYdfFEJjJ8AvZDiOf34SleW1YozAkyns5YsJGDFho5R9fR5HWNNatXg7gfsqkUjIk+si1bW+LlImd+ScBKhVBuLxSG52CdLTX+EA6vvEJ585EZ108ov6819+8TDp1KmHF05++fD8Fycenjtx/OEFXnfmzMP0C0kPs1LTHlxMy3hUkJ1bt2Pr1s99fQMOB4VEHgsLDTv8wbp12bu3fXh317YP7+7evuPeng93NO75cGfjvp27Gg/u2t14cPfexoN7GPsaD+3Z13h4777Gj/cfaDp68HDTsUMf3//syLH7nx35RMbHx5o+O3K08bMjR+99euTo3c+OfnLv5LHP1ePHjDvl5RN4Ligs+uwQT++z7yxeejb34qWqzLSMxsyU9LvpSSn30s4n30s9n3Qv/ULKvfSklMaM5DTe1pSVltF0MT2zKYuRmt6UmZzalJ6U3JR6PqkpPSmlKSM5tSkzJa0pMzW9iY9Ju3DhbvqFpK/Tzyft3rZtm3iTjDl7ZX+2EeyKaePabV+5xOWDxOXOjI8YG76PROcPN6912v/BBufdW9eJF3y+fxMBAW7/On/GZPs5b09wYCx+e4LDgplvOTIWz3lbLC+3fuZy+YKZjolWrF0y12ntkiUCicsXONqwcvEch8Rl8+3XrlzsMHPmuN/z9RITW/08kX9RVZ6U+PnmxCVtD2zd6rhvyxaHH+LA1g2OvO2Pwes3OO5ibLCWts9bNzju2LLWYcfatQ7bNibatWrVyubPvPq3hm2+zfeJ/J+WObXy9k78Rdx/vlue+L/0L4KsofFnrVqJKTjxHv//dJ9/7XYWpk2cf+25/uTxfHJ+sD8H/8WN/NnH/znX+OE+/8U1+T8v/M2u+19d808S2LKyhYEWBloYaGGghYEWBloYaGGghYEWBloYaGHgL2fg/wNBMTBJYbMyPgAAAABJRU5ErkJggg==;" vertex="1" parent="1">
          <mxGeometry x="685" y="122" width="35" height="35" as="geometry" />
        </mxCell>
        <mxCell id="guoJjqlwkhtF7B335C00-22" value="Firewall /IPS, Router" style="text;html=1;align=center;verticalAlign=middle;resizable=0;points=[];autosize=1;strokeColor=none;fillColor=none;" vertex="1" parent="1">
          <mxGeometry x="726" y="124.5" width="130" height="30" as="geometry" />
        </mxCell>
        <mxCell id="guoJjqlwkhtF7B335C00-23" value="" style="edgeStyle=orthogonalEdgeStyle;rounded=0;orthogonalLoop=1;jettySize=auto;html=1;fillColor=#008a00;strokeColor=#005700;" edge="1" parent="1" source="guoJjqlwkhtF7B335C00-24" target="guoJjqlwkhtF7B335C00-43">
          <mxGeometry relative="1" as="geometry">
            <Array as="points">
              <mxPoint x="210" y="215" />
            </Array>
          </mxGeometry>
        </mxCell>
        <mxCell id="guoJjqlwkhtF7B335C00-24" value="" style="shape=image;verticalLabelPosition=bottom;labelBackgroundColor=default;verticalAlign=top;aspect=fixed;imageAspect=0;image=data:image/png,iVBORw0KGgoAAAANSUhEUgAAAGQAAABkCAYAAABw4pVUAAAAAXNSR0IArs4c6QAABU5JREFUeAHtnd1uG0UYhucEzgAJcdDSIk7jSc+c2W3oDYCgkYA6O256AxC4jEo7Jg1tEEJBvQKO+Tmg3AFnLf2B2lHLDTRJz9K06HOyxhk73+zaszvZ+I1k7c83ntl93nlnZj2xRwj8gQAIgAAIgEAJBLS68V4Sma+WI/NbEnceJFH6XEfmFV75GRAzYqdj86uO09WV2JwvLFVrcf2cVmZTK7MH+Pnh52GVRGZfR+lPVz9Yez+XMPqiWWqrdCdP5kgzuVjEuK3Sy6wo7ajz9YGCkxcEkfKzI9bUJYwVJVlIP9IqfQGg+YH6YNU3wEWzdEQU6jPQTFUrxLCYiUq3rzWvnx2IohfM7eEE2A8gjjKbfUFoaIumKoAA9uODMnvUUgnqVHI44mk77ny+dMm8MbAVdnIRIGY6+ubTdpQ+dHFuK/Ol6D+w2GodPX7aWlx/O1fpSHQsAWK4rMy/nCjLC+ZnoSPziEukY3Pl2FIQKEQgiTotjjU90QvX6ArNVCHmbOKVeONNThDSghzCfjbFloBgYQJO3s4EhYvEGzgCTt7OBFzuiBUm4OTtTFC4SLyBI+Dk7UqAON/H+ubj7NR9F4j8eIEhiGOUWXUFgiAQhLds1TXypJUHh8AhcAjnSjikbg7hHnIQK06AcwfFnA4pXiTewRGAIBydADEIEgA6VyQE4egEiEGQANC5IiEIRydADIIEgM4VGVyQx6JxoSvkzS0h73VF43lPyFd1etE1H1y7vEn3wsHOEwsmyD0hX++J+e+7Qu7XSQDuWrtCvugJ+R3dWx7449IEEYQueEvM/cHdXM1jdyYVJYgg5IyaA8/RrM5tjHOA61zlghz2GWTtHDdV3zTUfP0j5LxLADteuSA9IW+ddjGy+9sSjXUbuOu4ckG6ovFXdsEzsL3rEsCOVy5ITzR2Z0CIrDnesYG7jgMIwvcLrgueNu6qDEXz950fBLEGFxBkSiChAcIhRRWw0vsG6Ds/NFlTOhSCWDW+6KFvgL7zg0PgEAx7OVfDIXAIHAKHDBHw3Qn7zg9NFposueOqVacovj1kzly7lTsEH7/zugQQZP7bU+SA7GP247ZrPP7RaOWC0LRmV8iXp12Ux0K+fCKkHEXOn6lckMM59ZkQBHPq1ogptAsxp37CBOkJiTn10K6wysecOt9lCmEBGxkdud5vx33nV3mn7vsGbECuY9/l+84Pglj9jktQOw5BbCIFj30D9J0fHAKHYD6EMzUcAofAIXDIEAHfnbDv/NBkoclCkzVk2JFdOAQOwZz6iC2GTlTuEMypD9EfsxtAEMypj9FhcKpyQQ7n1Gfia9G1mFOnqkA/P+Eav9c9Tr/fMqj2BXYqdwhd28HvnMg7dYfOXP/vf4rmawV0GCQNIsj/osxtHP5gy8jMHXOzJzhtY4+cMakYxCWYIFmVoD6F/juD/iGgnt9h73/v/m5PyBuT9BkZh2zrFASLgmWoyt+2mulbnCDZomDssnmJMp+Vf6mzUQItzskJ0l82L8fCko+wsOT0FYYYJir9mxPkYGHJOF3lElGMVqikRRFpHb7pL222ciBm5AyXGMQ5UekXYiU257Uyey5REC95VYdscWKqrzo2PwJ4ycDdqzD8MGg79CXzrmu0BcFKFexZS3XODAShnbbqfIh11UuFPnaJ2yQy+0nU+eSIGNkBra1OCeCGaoTps47T1Yz/2C2plah0G6KULsozHaUfjxXBPtlurr2zHJtbGH2VIAqNaJXZvNa8ftbm7jxuLa6fo7FxEplf9IK5ryOzC+cUFmmX2NFDH7Ekpk7wSAACIAACIAACExD4D1fgVJuCt+kQAAAAAElFTkSuQmCC;" vertex="1" parent="1">
          <mxGeometry x="80" y="192" width="46" height="46" as="geometry" />
        </mxCell>
        <mxCell id="guoJjqlwkhtF7B335C00-25" value="" style="shape=image;verticalLabelPosition=bottom;labelBackgroundColor=default;verticalAlign=top;aspect=fixed;imageAspect=0;image=data:image/png,iVBORw0KGgoAAAANSUhEUgAAAGQAAABkCAYAAABw4pVUAAAAAXNSR0IArs4c6QAABU5JREFUeAHtnd1uG0UYhucEzgAJcdDSIk7jSc+c2W3oDYCgkYA6O256AxC4jEo7Jg1tEEJBvQKO+Tmg3AFnLf2B2lHLDTRJz9K06HOyxhk73+zaszvZ+I1k7c83ntl93nlnZj2xRwj8gQAIgAAIgEAJBLS68V4Sma+WI/NbEnceJFH6XEfmFV75GRAzYqdj86uO09WV2JwvLFVrcf2cVmZTK7MH+Pnh52GVRGZfR+lPVz9Yez+XMPqiWWqrdCdP5kgzuVjEuK3Sy6wo7ajz9YGCkxcEkfKzI9bUJYwVJVlIP9IqfQGg+YH6YNU3wEWzdEQU6jPQTFUrxLCYiUq3rzWvnx2IohfM7eEE2A8gjjKbfUFoaIumKoAA9uODMnvUUgnqVHI44mk77ny+dMm8MbAVdnIRIGY6+ubTdpQ+dHFuK/Ol6D+w2GodPX7aWlx/O1fpSHQsAWK4rMy/nCjLC+ZnoSPziEukY3Pl2FIQKEQgiTotjjU90QvX6ArNVCHmbOKVeONNThDSghzCfjbFloBgYQJO3s4EhYvEGzgCTt7OBFzuiBUm4OTtTFC4SLyBI+Dk7UqAON/H+ubj7NR9F4j8eIEhiGOUWXUFgiAQhLds1TXypJUHh8AhcAjnSjikbg7hHnIQK06AcwfFnA4pXiTewRGAIBydADEIEgA6VyQE4egEiEGQANC5IiEIRydADIIEgM4VGVyQx6JxoSvkzS0h73VF43lPyFd1etE1H1y7vEn3wsHOEwsmyD0hX++J+e+7Qu7XSQDuWrtCvugJ+R3dWx7449IEEYQueEvM/cHdXM1jdyYVJYgg5IyaA8/RrM5tjHOA61zlghz2GWTtHDdV3zTUfP0j5LxLADteuSA9IW+ddjGy+9sSjXUbuOu4ckG6ovFXdsEzsL3rEsCOVy5ITzR2Z0CIrDnesYG7jgMIwvcLrgueNu6qDEXz950fBLEGFxBkSiChAcIhRRWw0vsG6Ds/NFlTOhSCWDW+6KFvgL7zg0PgEAx7OVfDIXAIHAKHDBHw3Qn7zg9NFposueOqVacovj1kzly7lTsEH7/zugQQZP7bU+SA7GP247ZrPP7RaOWC0LRmV8iXp12Ux0K+fCKkHEXOn6lckMM59ZkQBHPq1ogptAsxp37CBOkJiTn10K6wysecOt9lCmEBGxkdud5vx33nV3mn7vsGbECuY9/l+84Pglj9jktQOw5BbCIFj30D9J0fHAKHYD6EMzUcAofAIXDIEAHfnbDv/NBkoclCkzVk2JFdOAQOwZz6iC2GTlTuEMypD9EfsxtAEMypj9FhcKpyQQ7n1Gfia9G1mFOnqkA/P+Eav9c9Tr/fMqj2BXYqdwhd28HvnMg7dYfOXP/vf4rmawV0GCQNIsj/osxtHP5gy8jMHXOzJzhtY4+cMakYxCWYIFmVoD6F/juD/iGgnt9h73/v/m5PyBuT9BkZh2zrFASLgmWoyt+2mulbnCDZomDssnmJMp+Vf6mzUQItzskJ0l82L8fCko+wsOT0FYYYJir9mxPkYGHJOF3lElGMVqikRRFpHb7pL222ciBm5AyXGMQ5UekXYiU257Uyey5REC95VYdscWKqrzo2PwJ4ycDdqzD8MGg79CXzrmu0BcFKFexZS3XODAShnbbqfIh11UuFPnaJ2yQy+0nU+eSIGNkBra1OCeCGaoTps47T1Yz/2C2plah0G6KULsozHaUfjxXBPtlurr2zHJtbGH2VIAqNaJXZvNa8ftbm7jxuLa6fo7FxEplf9IK5ryOzC+cUFmmX2NFDH7Ekpk7wSAACIAACIAACExD4D1fgVJuCt+kQAAAAAElFTkSuQmCC;" vertex="1" parent="1">
          <mxGeometry x="685" y="162" width="36" height="36" as="geometry" />
        </mxCell>
        <mxCell id="guoJjqlwkhtF7B335C00-26" value="Web Server" style="text;html=1;align=center;verticalAlign=middle;resizable=0;points=[];autosize=1;strokeColor=none;fillColor=none;" vertex="1" parent="1">
          <mxGeometry x="740" y="162" width="90" height="30" as="geometry" />
        </mxCell>
        <mxCell id="guoJjqlwkhtF7B335C00-27" value="" style="edgeStyle=orthogonalEdgeStyle;rounded=0;orthogonalLoop=1;jettySize=auto;html=1;fillColor=#008a00;strokeColor=#005700;" edge="1" parent="1" source="guoJjqlwkhtF7B335C00-28" target="guoJjqlwkhtF7B335C00-33">
          <mxGeometry relative="1" as="geometry" />
        </mxCell>
        <mxCell id="guoJjqlwkhtF7B335C00-28" value="" style="shape=image;verticalLabelPosition=bottom;labelBackgroundColor=default;verticalAlign=top;aspect=fixed;imageAspect=0;image=data:image/png,iVBORw0KGgoAAAANSUhEUgAAAGAAAABgCAYAAADimHc4AAAAAXNSR0IArs4c6QAAChFJREFUeAHtnXlsFNcdxx31VA+p6pVWqtSq6h8V9czacQI0CUpC0zRSK2guqUlLS0k4QohS1KRKDwENrapWTWjTVpFnxjbmDOa2wdgOEMcQqEkcCJCAsfGBsYnxhWOMD/b9vtXP2ynr9c7M7vrNzjY8S6vZnZ2d93vfz/u98/fGWVnqTymgFFAKKAWUAkoBpYBSQCmgFFAKKAWUAkoBpUDWlBJ8NGSIF3RT9PKL3/M5JU2aFNBNsUo3CeNeFpV/40V8LE0mXN/J6IboGSe+DUNBSE/BcATAIBQE/yHErYJsL1AQ/AfAdT2X9LjVkA1CeYK/ILjXk51PpW4Qsk2q+FoRPu6vJdfx3RWEDICvICgIGaBABpigPOGDCIGpXpvziBl6292tOEfNEGHNEO3ZRrg226ItmokFefn4fAZo5GpCbiG+ELKwUM+nrWw754Hz4tbTSem7RLuongOOOOI7GRSBQpUhC1NdVQjgS93E9JBBVb6I7aiRWOWZVdcht+ONvTxFCC1fFGabuNHTAJ8vmFKEL4UsUaQbgpwKjm/nDdHjmT1/AEQAsXuHDHzL0wifLtAtZLMNvgnsVUATAhBv2tXrxsl8z7OK+Zjmk8aOt+Uqx8/ClRjUBKqgVBvhxAywqyoxoJnIc1RL8heclm6KgeRstG2VdEy0EY7O+87TwNZ3gU0nCRuOE9YcIxQeJRh1hJfeILxYS3jhEOHPBwl/qCH8ei9h0S7C7E2EWwrcDddM0ZFr4avR6fnxntPgtNzEn1Esws8dJOxvARp6gZ4hoH8YeH8EGBgBBkeBK1eBoavAcBgYDQNXReTF55ZUuuc15fmhXWeAZCD8sYbw+2rC7/YRnq4kzNpECLlUT5opTuYU4TN+CM/35HtzGk7icw/ot6+K7rN9wHuXgYuDQPcVoHcI6Bv2hsBQllT4JD5noKIRmAyEZ18hzNlByLHcjAxX+7Gsl5ePj3A300l83RAjVh2az10CzvcDHQPJQRgYBZ7wU3wGsPcsIAPCT7a7e4JuitVZwA3SPAG4IdsUxY7im0Lkv4WGpl6gpQ9IFkL/SBrEZzFebQZkQXhwi5sX8HdiuSwAuilWOItPWFaDxjPdQGMPkCwErp4W73HPS8p1fqwANS2ATAg/2OhiOA+MLPws1oZkP+smHnYbZP18l2g92Qmc6gKShcDtw+Me4s8qEY3SFmRePwfIhnD3OmcImilGNQN3Jyu6fb1m4A7dFMNOpX92ieioaweOvwckC4Eb6fnlzrZzmgynfwQrbXsmfTzcBsiG8EwVYcYa54xohujPNqEna3xuIaZEgqbi3/uudaKbC9Ob7cDRC8lDeO5A/PvasBftobFu68hVrEjWdsfrj5wH/ICwtIIwtdA5Q5op6rkX42hYzBd5+fiybogWW4zY47QicbmsHjh0Dqg9nxqE24ud7V24h3BpODJOGJIJoK4D8AvCkt2Em1wHa5gZo3Pcj3n5+IRmhf8dK7r9OdcSw2uPA9UtwIHW1CHc5gBgQTmh58q4wZo8Dzh2AfATwmNlhByHgVqoAPfEVTzq5EMl+JBu0g5b7NhjyBThvx8BqhqBfU2Tg7C8ZqIHcJvQNTh+xDwo0wNOdAJ+Q+AxQqxwuiHaE+lJhAzxjwm/tYEagpa/BnDVU94weQg8XlhRQ7i1mMDesPIAoXMwzoh5RGIb8O5FIB0Q5myPtAk8bcF17SPbUf9oCT4bVdgnvNVNPOMovklYXC5o8zvA9lPyICQ4YpZXBdV3AemCwNMWv6wkPLWH8MQuwvzScO28nfj0BOWzsrJ0Ew/qphBOAB7aKmjt24SNJwjphtAv0wMaeoCAIRycU4lPRkPg5U3NFINO4t+7IUz5bxJWHyWsCwLCkMQq6GwvEDwEqnqyPBKDrxXi65opOp3En1Es6PnDBAZgvRUQBJkAmvuATICwcCdtm7YBN/L4wEn8qYWCeCr8b4cJ/zwSHIQemQBaLwGZAGFRGSHXcq52ci1BSysJfzpA+OvrwULoGpRYBbX1A5kAYXpRnK6q3d00CfNKCcv2E1a+FjyETpkA2t8Hgobww03u4vM096+qCL/ZmxkQLgxI9IALA0CQEObudBef24MHSgg8t5QpENplAui8DAQF4akKQsh1KfManB9vyxwIbf0SPYDnOYKAsKyakOc6UXdNfPaCHEvQ3B2ZAaG1TyIAnuVLN4RVhwm3rh4vsFPXM/p8XoGgBaXBQ2iWCaBvCGNTremCwIOnmW4rZobo003RHS189PtpBYIeLwsWwtkeiR7AiwzpgsDzNrNLXEq+IYZyLNzmNRVxe7EQPJcUVMPcIBMAR4elA8KO08BPS13FJ83CI/ackNdk3Mw1YXpydzAQ6rskegCH5aUDwtJXXMTnAZeFp23x7aPXdPT3N8iBUJr8eoK86ejLo5HYSD8h/OUQXMMXdUsYtuixR68FmftLCDI8gSGUnQGW7CFMXx15/aKKUNM6cY35RKdED+CgVD8hFByF+7qwReV3rsCHY4W3P3stSeqmCP9oixwIi+KEpDy8ncbCdqIX+t++IBEAB5/6BWHbaYyVpuhezPj3om7Kv/ApW2yno9eifMgUw7ziNllPmOYwHxUHgrwqiEOx/YCwvwm4y627aYrzuomvOIkee94rLCXXEgPzdkwOghMALjTREN5ol+gBI+FIPLxMCBxlcZ9LnKhfgVk3F4S755emDuHRXe4dhf9BaJMIYFQAMiGcugjMK3POCIcmZpv4bmwJT/SzV2jit4vCHQtThMBLnPdtdrbd9oR9TRJDE3kXiEwIz+5zyYAhSDMwN1Gxna7zCs69Y61o5QWeVNqE4mOE+128lyHcs15icG74v9twZEBYVYuJ8T9RiyocUu4karLnvcLTv7deNPoJQVp4epgAGRA2vgPXXTK8mSLdGzRmvYyGjIcwBmCSELaeAm52CcTVzeC2KM16WTRnNATB4tuvJKsjXsrk8D23/WFBb9Lj4K7vrAn3pNo7SqRNmFR1xAAShcBbOpv6gOpWYOVBwp1rXRpck5BJ21RvskT43vUEHrAt3p3c8qZ0CGqjtnvBGT9aT+LaRDdqy3xaSnxjRff1+qgCzRLPe/bo/H2egmjjrUSeRvh0AT8oJPMf1uH0iN5xffYkXG/sdxzJLCz9JXzRJ20Tvi3boBmiwC26Or7nJpvnONen+2kpmimuci8gx8AtCSuUpgvHljYNqmQbfRM8ptAmVAWl2ghHno7Fz+IJHw6ZVKJbeOybxfhcmvRMORl+rJpmYL5u0mbeaxb4I8tSzsl1+kMusOppugHBV+IHJDwnq8RX4geoQIBJq5KvxA9QgQCTVv/AIUDxOWnPObJEJ9sCzsf/bfKuc2RKfP+5OgJQ4vsvPqcQtwpS4qdHfE6Fu5/XHuuv/pVh+pRXKSkFlAJKAaWAUkApoBRQCigFlAJKAaXAB1uB/wAX3JbSRYxP3gAAAABJRU5ErkJggg==;" vertex="1" parent="1">
          <mxGeometry x="40" y="362" width="46" height="46" as="geometry" />
        </mxCell>
        <mxCell id="guoJjqlwkhtF7B335C00-29" value="" style="shape=image;verticalLabelPosition=bottom;labelBackgroundColor=default;verticalAlign=top;aspect=fixed;imageAspect=0;image=data:image/png,iVBORw0KGgoAAAANSUhEUgAAAGAAAABgCAYAAADimHc4AAAAAXNSR0IArs4c6QAAChFJREFUeAHtnXlsFNcdxx31VA+p6pVWqtSq6h8V9czacQI0CUpC0zRSK2guqUlLS0k4QohS1KRKDwENrapWTWjTVpFnxjbmDOa2wdgOEMcQqEkcCJCAsfGBsYnxhWOMD/b9vtXP2ynr9c7M7vrNzjY8S6vZnZ2d93vfz/u98/fGWVnqTymgFFAKKAWUAkoBpYBSQCmgFFAKKAWUAkoBpUDWlBJ8NGSIF3RT9PKL3/M5JU2aFNBNsUo3CeNeFpV/40V8LE0mXN/J6IboGSe+DUNBSE/BcATAIBQE/yHErYJsL1AQ/AfAdT2X9LjVkA1CeYK/ILjXk51PpW4Qsk2q+FoRPu6vJdfx3RWEDICvICgIGaBABpigPOGDCIGpXpvziBl6292tOEfNEGHNEO3ZRrg226ItmokFefn4fAZo5GpCbiG+ELKwUM+nrWw754Hz4tbTSem7RLuongOOOOI7GRSBQpUhC1NdVQjgS93E9JBBVb6I7aiRWOWZVdcht+ONvTxFCC1fFGabuNHTAJ8vmFKEL4UsUaQbgpwKjm/nDdHjmT1/AEQAsXuHDHzL0wifLtAtZLMNvgnsVUATAhBv2tXrxsl8z7OK+Zjmk8aOt+Uqx8/ClRjUBKqgVBvhxAywqyoxoJnIc1RL8heclm6KgeRstG2VdEy0EY7O+87TwNZ3gU0nCRuOE9YcIxQeJRh1hJfeILxYS3jhEOHPBwl/qCH8ei9h0S7C7E2EWwrcDddM0ZFr4avR6fnxntPgtNzEn1Esws8dJOxvARp6gZ4hoH8YeH8EGBgBBkeBK1eBoavAcBgYDQNXReTF55ZUuuc15fmhXWeAZCD8sYbw+2rC7/YRnq4kzNpECLlUT5opTuYU4TN+CM/35HtzGk7icw/ot6+K7rN9wHuXgYuDQPcVoHcI6Bv2hsBQllT4JD5noKIRmAyEZ18hzNlByLHcjAxX+7Gsl5ePj3A300l83RAjVh2az10CzvcDHQPJQRgYBZ7wU3wGsPcsIAPCT7a7e4JuitVZwA3SPAG4IdsUxY7im0Lkv4WGpl6gpQ9IFkL/SBrEZzFebQZkQXhwi5sX8HdiuSwAuilWOItPWFaDxjPdQGMPkCwErp4W73HPS8p1fqwANS2ATAg/2OhiOA+MLPws1oZkP+smHnYbZP18l2g92Qmc6gKShcDtw+Me4s8qEY3SFmRePwfIhnD3OmcImilGNQN3Jyu6fb1m4A7dFMNOpX92ieioaweOvwckC4Eb6fnlzrZzmgynfwQrbXsmfTzcBsiG8EwVYcYa54xohujPNqEna3xuIaZEgqbi3/uudaKbC9Ob7cDRC8lDeO5A/PvasBftobFu68hVrEjWdsfrj5wH/ICwtIIwtdA5Q5op6rkX42hYzBd5+fiybogWW4zY47QicbmsHjh0Dqg9nxqE24ud7V24h3BpODJOGJIJoK4D8AvCkt2Em1wHa5gZo3Pcj3n5+IRmhf8dK7r9OdcSw2uPA9UtwIHW1CHc5gBgQTmh58q4wZo8Dzh2AfATwmNlhByHgVqoAPfEVTzq5EMl+JBu0g5b7NhjyBThvx8BqhqBfU2Tg7C8ZqIHcJvQNTh+xDwo0wNOdAJ+Q+AxQqxwuiHaE+lJhAzxjwm/tYEagpa/BnDVU94weQg8XlhRQ7i1mMDesPIAoXMwzoh5RGIb8O5FIB0Q5myPtAk8bcF17SPbUf9oCT4bVdgnvNVNPOMovklYXC5o8zvA9lPyICQ4YpZXBdV3AemCwNMWv6wkPLWH8MQuwvzScO28nfj0BOWzsrJ0Ew/qphBOAB7aKmjt24SNJwjphtAv0wMaeoCAIRycU4lPRkPg5U3NFINO4t+7IUz5bxJWHyWsCwLCkMQq6GwvEDwEqnqyPBKDrxXi65opOp3En1Es6PnDBAZgvRUQBJkAmvuATICwcCdtm7YBN/L4wEn8qYWCeCr8b4cJ/zwSHIQemQBaLwGZAGFRGSHXcq52ci1BSysJfzpA+OvrwULoGpRYBbX1A5kAYXpRnK6q3d00CfNKCcv2E1a+FjyETpkA2t8Hgobww03u4vM096+qCL/ZmxkQLgxI9IALA0CQEObudBef24MHSgg8t5QpENplAui8DAQF4akKQsh1KfManB9vyxwIbf0SPYDnOYKAsKyakOc6UXdNfPaCHEvQ3B2ZAaG1TyIAnuVLN4RVhwm3rh4vsFPXM/p8XoGgBaXBQ2iWCaBvCGNTremCwIOnmW4rZobo003RHS189PtpBYIeLwsWwtkeiR7AiwzpgsDzNrNLXEq+IYZyLNzmNRVxe7EQPJcUVMPcIBMAR4elA8KO08BPS13FJ83CI/ackNdk3Mw1YXpydzAQ6rskegCH5aUDwtJXXMTnAZeFp23x7aPXdPT3N8iBUJr8eoK86ejLo5HYSD8h/OUQXMMXdUsYtuixR68FmftLCDI8gSGUnQGW7CFMXx15/aKKUNM6cY35RKdED+CgVD8hFByF+7qwReV3rsCHY4W3P3stSeqmCP9oixwIi+KEpDy8ncbCdqIX+t++IBEAB5/6BWHbaYyVpuhezPj3om7Kv/ApW2yno9eifMgUw7ziNllPmOYwHxUHgrwqiEOx/YCwvwm4y627aYrzuomvOIkee94rLCXXEgPzdkwOghMALjTREN5ol+gBI+FIPLxMCBxlcZ9LnKhfgVk3F4S755emDuHRXe4dhf9BaJMIYFQAMiGcugjMK3POCIcmZpv4bmwJT/SzV2jit4vCHQtThMBLnPdtdrbd9oR9TRJDE3kXiEwIz+5zyYAhSDMwN1Gxna7zCs69Y61o5QWeVNqE4mOE+128lyHcs15icG74v9twZEBYVYuJ8T9RiyocUu4karLnvcLTv7deNPoJQVp4epgAGRA2vgPXXTK8mSLdGzRmvYyGjIcwBmCSELaeAm52CcTVzeC2KM16WTRnNATB4tuvJKsjXsrk8D23/WFBb9Lj4K7vrAn3pNo7SqRNmFR1xAAShcBbOpv6gOpWYOVBwp1rXRpck5BJ21RvskT43vUEHrAt3p3c8qZ0CGqjtnvBGT9aT+LaRDdqy3xaSnxjRff1+qgCzRLPe/bo/H2egmjjrUSeRvh0AT8oJPMf1uH0iN5xffYkXG/sdxzJLCz9JXzRJ20Tvi3boBmiwC26Or7nJpvnONen+2kpmimuci8gx8AtCSuUpgvHljYNqmQbfRM8ptAmVAWl2ghHno7Fz+IJHw6ZVKJbeOybxfhcmvRMORl+rJpmYL5u0mbeaxb4I8tSzsl1+kMusOppugHBV+IHJDwnq8RX4geoQIBJq5KvxA9QgQCTVv/AIUDxOWnPObJEJ9sCzsf/bfKuc2RKfP+5OgJQ4vsvPqcQtwpS4qdHfE6Fu5/XHuuv/pVh+pRXKSkFlAJKAaWAUkApoBRQCigFlAJKAaXAB1uB/wAX3JbSRYxP3gAAAABJRU5ErkJggg==;" vertex="1" parent="1">
          <mxGeometry x="680" y="202" width="46" height="46" as="geometry" />
        </mxCell>
        <mxCell id="guoJjqlwkhtF7B335C00-30" value="SOAR" style="text;html=1;align=center;verticalAlign=middle;resizable=0;points=[];autosize=1;strokeColor=none;fillColor=none;" vertex="1" parent="1">
          <mxGeometry x="755" y="208" width="60" height="30" as="geometry" />
        </mxCell>
        <mxCell id="guoJjqlwkhtF7B335C00-31" value="" style="shape=image;verticalLabelPosition=bottom;labelBackgroundColor=default;verticalAlign=top;aspect=fixed;imageAspect=0;image=data:image/png,iVBORw0KGgoAAAANSUhEUgAAAeAAAAHgCAYAAAB91L6VAAAAAXNSR0IArs4c6QAAIABJREFUeAHt3QmcLVdd4PFOMqDiiDrivDHpdJ3/uW0y8xwVecLrToJmlGWUZVAJqEBEB3Fh/cjk9WM1oPhhWJyJLMO+xIgkgBjz+iVAHBEZBQYMCoTgZyABWVxIgkgIS5bpf1v1qK5Xy1n+dfve27/3+bzP7Vt1lv/51rn33Fu36pylJf4hgAACCCCAAAIIIIAAAggggAACCCCAAAIIIIAAAggggAACCCCAAAIIIIAAAggggAACCCCAAAIIIIAAAggggAACCCCAAAIIIIAAAggggAACCCCAAAIIIIAAAggggAACCCCAAAIIIIAAAggggAACCCCAAAIIIIAAAggggAACCCCAAAIIIIAAAggggAACCCCAAAIIIIAAAggggAACCCCAAAIIIIAAAggggAACCCCAAAIIIIAAAggggAACCCCAAAIIIIAAAggggAACCCCAAAIIIIAAAggggAACCCCAAAIIIIAAAggggAACCCCAAAIIIIAAAggggAACCCCAAAIIIIAAAggggAACCCCAAAIIIIAAAggggAACCCCAAAIIIIAAAggggAACCCCAAAIIIIAAAggggAACCCCAAAIIIIAAAggggAACCCCAAAIIIIAAAggggAACCCCAAAIIIIAAAggggAACCCCAAAIIIIAAAggggAACCCCAAAIIIIAAAggggAACCCCAAAIIIIAAAggggAACCCCAAAIIIIAAAggggAACCCCAAAIIIIAAAggggAACCCCAAAIIIIAAAggggAACCCCAAAIIIIAAAggggAACCCCAAAIIIIAAAggggAACCCCAAAIIIIAAAggggAACCCCAAAIIIIAAAggggAACCCCAAAIIIIAAAggggAACCCCAAAIIIIAAAggggAACCCCAAAIIIIAAAggggAACCCCAAAIIIIAAAggggAACCCCAAAIIIIAAAggggAACCCCAAAIIIIAAAggggAACCCCAAAIIIIAAAggggAACCCCAAAIIIIAAAggggAACCCCAAAIIIIAAAggggAACCCCAAAIIIIAAAggggAACCCCAAAIIIIAAAggggAACCCCAAAIIIIAAAggggAACCCCAAAIIIIAAAggggAACCCCAAAIIIIAAAggggAACCCCAAAIIIIAAAggggAACCCCAAAIIIIAAAggggAACCCCAAAIIIIAAAggggAACCCCAAAIIIIAAAggggAACCCCAAAIIIIAAAggggAACCCCAAAIIIIAAAggggAACCCCAAAIIIIAAAggggAACCCCAAAIIIIAAAggggAACCCCAAAIIIIAAAggggAACCCCAAAIIIIAAAggggAACCCCAAAIIIIAAAggggAACCCCAAAIIIIAAAggggAACCCCAAAIIIIAAAggggAACCCCAAAIIIIAAAggggAACCCCAAAIIIIAAAggggAACCCCAAAIIIIAAAggggAACCCCAAAIIIIAAAggggAACCCCAAAIIIIAAAggggAACCCCAAAIIIIAAAggggAACCCCAAAIIIIAAAggggAACCCCAAAIIIIAAAggggAACCCCAAAIIIIAAAggggAACCCCAAAIIIIAAAggggAACCCCAAAIIIIAAAggggAACCCCAAAIIIIAAAggggAACCCCAAAIIIIAAAggggAACCCCAAAIIIIAAAggggAACCCCAAAIIIIAAAggggAACCCCAAAIIIIAAAggggAACCCCAAAIIIIAAAggggAACCCCAAAIIIIAAAggggAACCCCAAAIIIIAAAggggAACCCCAAAIIIIAAAggggAACCCCAAAIIIIAAAggggAACCCCAAAIIIIAAAggggAACCCCAAAIIIIAAAggggAACCCCAAAIIIIAAAggggAACCCCAAAIIIIAAAggggAACCCCAAAIIIIAAAggggAACCCCAAAIIIIAAAggggAACCCCAAAIIIIAAAggggAACCCCAAAIIIIAAAggggAACCCCAAAIIIIAAAggggAACCCCAAAIIIIAAAggggAACCCCAAAIIIIAAAggggAACCCCAAAIIIIAAAggggAACCCCAAAIIIIAAAggggAACCCCAAAIIIIAAAggggAACCCCAAAIIIIAAAggggAACCCCAAAIIIIAAAggggAACCCCAAAIIIIAAAggggAACCCCAAAIIIIAAAggggAACCCCAAAIIIIAAAggggAACCCCAAAIIIIAAAggggAACCCCAAAIIIIAAAggggAACCCCAAAIIIIAAAggggAACCCCAAAIIIIAAAggggAACCCCAAAIIIIAAAggggAACCCCAAAIIIIAAAggggAACCCCAAAIIIIAAAggggAACCCCAAAIIIIAAAggggAACCCCAAAIIIIAAAggggAACCCCAAAIIIIAAAggggAACCCCAAAIIIIAAAggggAACCCCAAAIIIGAs4Jx7s4jcnvrfOByKQ2AUgdT+3cznvf/WUQKkUAQQ2HsCRVG8sfkmE/N874nR4nkUiOnTfWkZgOfx6BMzAjMqICIX973hDO2b0WYRFgI7BIb6ceh+BuAdrDxBAIEcARF5Q+ibT1u6nLrJi8C0BNr6bso2BuBpHTHqQWAPCDjnXp/yRlTl2QNENHEBBKr+mvvIALwAnYEmIDArAiJyUc6b0qy0gzgQ6BPI6eP1vAzAfcrsQwCBKAERubD+BhP7d1RlJEZglwRi+3VXegbgXTqAVIvAIgqIyOu63mxCti+iCW1aPIGQvhyShgF48foGLUJg1wS8968JeePpSrNrgVMxAhECXf03djsDcAQ6SRFAoF/AOfeq2Dehevr+0tmLwGwI1Ptszt8MwLNxPIkCgYUQKIriFTlvSAuBQCMWXiCnj9fzMgAvfFehgQhMT0BEXl5/g4n9e3qRUhMC6QKx/borPQNw+jEgJwIINAS89y/terMJ2d4ojqcIzKRASF8OScMAPJOHl6AQmE8B59xLQt54utLMZ6uJeq8JdPXf2O0MwHut59BeBEYUEJEXxb4J1dOPGBpFI2AmUO+zOX8zAJsdEgpCAIGiKF6Y84aEIALzIJDTx+t5GYDn4WgTIwJzIiAiF9TfYGL/npNmEuYeF4jt113pGYD3eEei+QhYCmy9ofyPrjebkO2WsVAWAmMJhPTlkDQMwGMdIcpFYA8KiMgLQt54utLsQTKaPIcCXf03djsD8BwefEJGYFYFROT5sW9C9fSz2i7iQqAuUO+zOX8zANdV+RsBBLIEROS5OW9IWZWTGYEpCeT08XpeBuApHTCqQWAvCHjvn1N/g4n9ey8Y0cb5F4jt113pGYDnvy/QAgRmRsA591tdbzYh22emIQSCQI9ASF8OScMA3IPMLgQQiBMQkWeHvPF0pYmrjdQI7I5AV/+N3c4AvDvHj1oRWEgBEfmN2DehevqFRKFRCydQ77M5fzMAL1zXoEEI7J6A9/6ZOW9Iuxc5NSMQLpDTx+t59+oAvHFk/cOHN884//CRs3y4OikRQKBXwHt/fv0NJvbv3sLZicCMCMT26670e3YA3ly/fWNz/fZDm+u3Hjqy/q6NzfUnPOmyA3eZkcNLGAjsFNi/f/8dvfd3F5EHi8iTROR3RORl+r8oileIyCXOuVeV9+E+1Xv/q5rWOXfX1dXVb9hZ2njPnHPP6HqzCdk+XmSUjICdQEhfDkmz1wdgHYSP/T+y9uXDl61dtnF0/dzzLztwJ7ujRUkIJAiccsop3+G9/wXn3Judc18IeUF3pLlZRK4UkUc5574tIZTgLCLytI4Ybg/ZHlwRCRHYRYGQvhyShgG4NgDvGIzXP394c/3CjaNrDzjnknNO2sVDTdV7TcA558pVhW4KeRFHptHB+OVFUfyHMVxF5CmR8ewYmMeIiTJnW0A/aBZF8WPlh7fXOef+WESuEZHrROSG2v/PisjHROQjInK5vkacc08QkXssLS2dOM1W5vTxel4G4I4BuD4Yb65/6vDm2gUblx88a5rHeM/Utby8fIpz7udE5MXlN7WrnXN/X3vhHXsReu8/5Zz7K32Reu9/X1ffcc492jm3tn///n89Flr9RZP49/VDsem303Jw/FpiHTsGs4Eybi2K4nd1sB+KK2a/9/7wQL29McbUpWnLU+3bZTrnPt/SZ64t37T1jbv6f5Vz7n31/7H1WqUXkdtyvDRvURQ/kBqPiDwmt37NH1u/iBTOuUNFUfxfi/qdc3/nnHv1ZDI5IzaWlPQWMWsZUxiAT9CfqJxzfy0i+tPUSkp7rfMcO+28c6D9+unoru1cvGVzKE499dSTyxfgB606s4jcqp+cnXO/LSI/tLS0ZHbqwiDG3gHYe39/Efm0QT29A1yzfOfcl/WFeeDAgTtYHFnn3EazjpjnsTE4534ppvyutLH1WqUv+2zUMWu2oSiKu6XGU/8A0yw35nlo/ZPJ5ICIXLz1bfeWmPJj0jrn3um9v19oTCnpYuLpSzv2ANwyM90t3vu3iMi9l5aWTkhpu0We5AG4HJi5eCvxKIjI6SLyuqIopvEtT09ZPdc59+8Twz2Wre9FFLivdQDWgU+/9QaWkfVG3VeH9/79k8lk9ViDE/8QkfP66hnaF1ut/q49VGbI/th6rdJbDEQ6qKXGM60B2Dn37/SMi8U3/pDjWaa5wvoMT+UcEUPva3bMAXjoteic+6iewj/99NO/pWrXtB5zB+Ad+bl4a/iw6elV59xLLD7xp3R+/VTsnHtQ6m9FKXU28hw3AJennPXiqN4X6bT2l6dwHzh8NLtTlFdoJ7enu+T2Pd77n7fwaS99/K0WH0S99z+YGqn3/lfG9nPOPbLsW8n9IiPGG7z3P5rq05UvI54dBmMNwHrxZuiHnfLYPG+ap6d3DKBdp5tTth/h4q3j+qyIPEB/o7HqtJnl6MUdevol6l9mnfqi2zEA6ydz59yHDMrd8YI2KO8WPa0bhVNL7L3/tZwYakUF/Ski5+bUV+UNqmyERM65r1YxpD7q7WmpoW29Ln85td56vrb69ZuViFxUT7cbf5cfch7cFmPqNqt2jDEAF0XxEylnVtTJOff6lZWV/akuoflGG4B3Dtp7/uKtk0TkeaGfxKw69VA5RVF8MLSjVOmGygzYf2wA1lPiRVH8bUAe68E1uDw9NVW1PeZx69P0E3PaFVOXpvXePyynvipvbL1W6Z1zX6liSH3MHIBH+Q29vMhqZj5gqrNeaW113FKPVTOf9QA8mUx+pLyuI/i13oxJz1Lq2Uorq7ZypjQAf/2irr128ZZOHFEUxRtbDm5Ox7DK+6i2TtG3zaAd2wOwiHzfDJ0N6PO8TU8d9pm07XPOPT7Hqq3Mvm3OuZ/Oqa/K21fHmPsM3iz1GOptOEn/9A6CyiDnsV65nhIXEb3+oq9/TX2fnmr13n93PdbUv63aZjkAq3vmfAHVMdELtUa9iG3qA/Aeu3hLv/leatVJjcu5KuXqaIMYri9nsrreoKzqhTLqY3l69J4xb1Ii8tic9sXUpWlF5Jyc+qq8sfVapRcRvS876zg65w6mxrN15f0v5tav+av6nXP/WUS+aFHmGGXoLYz65aCKN/XRKjarAVjPqjnn/sEirtSzXzGWuzUA76h3US/eEpEXWHSEEcq4bTKZnBnTUaq0ubHoKTDn3D9FlnOtTi+pp3W99z9bnl46qL+p60UW5bzLeqWn3kqU9SbelV+/rRdF8V2Vw9Bj7n2lQ+U393vvf7Ir9pjtzXKn9VxEvhQTZ1tavQc+NV7Lq8i37rN+hMVv2m1tNN729FSvKp9VPBYD8GQyOdU590mLmMY+9Vz57RgId/5u+/XTxtPcvigXb3nvf9yiI4xUxmurDhD7OFI8rYOmXrFdFMV/Cr1Pb3l5+d/oPdXlJBStZWbGfyTUK/eq2tB6qnTOuf+S2bZtr6q8aT9u3SqSPdtZURTrqXFbDcDl1e/Zk4pYHMuhMvQDq14BmWqm+YbqCN2fOwCfdtppdylnBrN43b/17LPP/lc5LqF5Z24A3jnYz+fFW8vLy9+0dVXqx0M7X2C6z4jIb+qpLZ1wQH9D1fsevfdnlVdXP1Lv9S2K4s/6bnHSmbW0s4Z2kGa6wFizXgR6YZZ+o2vWHfq8nNJvrN/dzw2JI3dijJA66mnKCUyy3PXY1suc5t8Wp2tzZn8Skf86jb4dUkd5JucGo98xe/uEnlnKOc4h7QlJkzMA61XmVjOJichV07wfWJch1BWQypWQdudb785Btz2Gebp4K/fNt9Fh9bexp8as5KM3++tp2XIayx0vQO/9z8zCC67RxnqM7xCRfTkxVnnLb8PW30Y+G/ICzf1NsWpD6GM5h3DdMenv0Pqs01kMNqk/q2hbyvtFk8x6+nJveeU30Lfp2tF6y4z3/rS2vqWDk3Pu7HIyHdPbGPWWm5z7XlPb3syXOgDr+2I5Z3avdbO+jufX6cyE1n07tLx5GIznYuYtvb2n4wBHdRK9WjHnTaX8Jv5Y59wnyniCT6F2dRqLdnWVoXNaW5/6sbq/sxHzs7t8qu25pzSrckIfReQ+jRij+lqVN7Q+63QJ1wUc176c14rVRCaVY8/jbUVRvF2XyNy3b983xzrqa9o59+sWF61VMeoHgNg4qvRVGbmPiQPwSd77P8itu8x//VgLs1RWMY/zMBhvzOLFWzqNoVGH0DeYrNmYqgNerqGrFytlT0Bu2LbmG+gVFldlVm2uP4rIsy3j1sFCf2+u19H8O/cbVbO8oec6y5FFG4fqGWu/ftjMjV9/jkmNT281y61/KL9z7r05s3XV26ZXfIuI/izVfB1FP9cLl0Kvs6jHoH9b1K9lJAzAJ4jIK43q17OMUXc5NB3GfD4fg/GMzLxl+I3rT8c8qKllG3X4HW8Szrm/GXMFJ73dSkT01PaOenOeO+ee0WeY+4beV3bbvvIUZXb72sqexjYRuTHneJR5k99Ey1XIsv062qATOmh/MV0qUGdqMnK73Tl315Tj3NHeaMfYAVhPxxvVrQvXmM4OluIYmmcuBuPdXDZRRF5k1DGeFHpQppnOqG31F+itOd9cQtu+srLiLW51qdqvy0H2nS7PnRoytF1VOv0EX8WW81iVN+1HoyvXdeWvpH9jDcDlBVUmZ7LaGmZ1+5kuWNBW/tC2nL5WzxszAJfXdtTfQ5L/nsa9vkOGqfvnYjCe9sVbukB2vWOl/q1TC6YemDHzpbanJ9+Lxoy3XraIPKsnjugXsd76Uy+//rfeC5pTV72skL/1CuCc+qq8IXWNkUbnCK9iSH10zv1wamy5H5jaYi7vBR5t8K3a6r3/3231R257blVezGNkHZ2vsdABuLxa3erCyhfEtHWW0876YDy1i7e2Lob5c6NOmfSJdOxOYtS26oV48zSvOtTfbS1ud6kZvKHLW0QeXktXtTf4savcru3lb4LB5XfF1lX+2NtnYADO+sDU4fnYsd20/NwPe2XsF6TE2tHu6H4YMgDrB16LVbPKmC+2/kkgxW+MPLM+GI968ZZz7j0WndI597YxDk5umRZtq8ooiuKFufHE5heRF1f15z4WRfHPelVqWwx6u1dO+W1l9m0rF3iPfuNrxthXx5j7iqL4x2Yssc/1d/DUGHM/MDVj1fnfU2OJzbe6urrcrD/h+ctj69X0CfW09tGhAVgvMixP57fmj4zjHTG3daa4zEqe2R+MjS/eKm8xsOgkughA8ty2Y3WAyI7e53Db6urqZKw4u8rVOlOWKOtqd9fKMrmLI3TF37VdL6LpijFme1f5Y2+3mL+3nDUtKVSr1aTUWj+YxUxbmhRwLZNz7htjjnFH2gtrRQb/2VFW3+u+dV/fAKxzx1vcJ14emw/q+uPBDVyghDM/GFtcvFUUxe9adUq9fzdn1qox+o5h2947RnwhZRpfEf38tjpF5CE5Vm1l9m3z3n9vTn1V3r46xtzXNmlMFVPoo84RnhqjzjEeWk9Auuw5lmPbERBT68BXy3dJbJ2avpZ/qPze/V0DsN6ba3F2ROPUGfb0bEFKOxctz6wPxsnezrkNq06p5eiqJdP8ND3UcKu26YL1Q3WNtd/yGDnn3tcWp97akGPVVmbftvKWlN43uZB4+uoYc5/F0pR6mjI1RqsBWE+T7saH5pBj25emKIrLUuz6yozZ1zYA67wFVosr6O1ak8nkP6a0cdHzzOJgnGxudTtIo/N+bDdO17YhNOJKfsPfzfboPNpW7dArXdt+T8q9PaTNvm+biJxu0aa+OsbcZ7Furvf+Xqkx5v5mX9k7516fGkNOvqr+1Ef96Syl/tT6mvmaA/Dq6up3isg1zXSJz2/OuUI+xWVe88zKYJzsp/eGWlzR2exo5Sm65PsckxvUyNiMK/H5ZxrFTvvpCXo6KjH24z50tM1upHP75pQfC2I1A1tsvVbpLQZgEbl3ajy5v9nXjvXDU2PIyVer/7j+GbJPF3FJqT+k7JA09QHYeHEFnWjjnJS27fU8uzkYZ9mLyAUhnS42TXlf4eOygsvMHBtzR/qk35syQ9+RXUTe1BFb9BuYziO8o/ClpaXc5QGb5Q09L4pCLNozVM9Y+2dgAH6ohZ+IFGMZ9ZWbG7uuJtRXfte+3Hqr/NUArBeUGd3XvP06nueJNrrMd2P7tAfjrDbq6VXD+9XaBoTXaUfNCjIxc/WCyXncmvf3iYnVm2XTpR1z2tDIe9ziDLpEZCNN23Hs3BbbUP29LKe+Km9svVbpjeY1vk9qPLkXzZV+t6bWn5uvOn4Zjx9IiSGjvh19vxyAdXGFt1iVqdNVprSJPP0C0xiM+yMI2CsizzfsSDs6a1nuX+ryZQGhmCaxaJOuaWwaVEJhRpMXVMfluAk5vPf3y7GKbdLy8vIpOfVVeWPrtUpvMQA75+6bGo+epqwMUh/1DFVq/bn5UmOu8jnnPpQSQ5U/91FvDXLOvTq3nCq/c+73UheYSHHYq3nGGoyzPctTKe+vOsQYj3pv3LSnrLRoh/5emQ2cWYCI3MOiLVqGc+6dzXC89z+eU36zvKHnuoZyTn1V3qF6xtpvNAAnf7CzGIB1rvGxfIbKrY5fxuM1Q3W07c+or/rwWj2+zLCsK8daWa3NgG3/ImA5GJuY6u9BtbV4q442xuMrTz755DuZBD1QSO6LRL8l9C1iMFC92e7yKkuTY+G9/3AzMP2Wn2PVLG/o+SmnnPIdOfVVeYfqGWu/xQDcNSlKSMy5t42pn07AEVLXGGmq45f66Jz7fylxpdY3Yr4PrK6u3jmlLeSxE8gdjM0i0d+DdeWcETvc9iCig8Dq6ur3mAXeUZBBO67tKHqqm3UxdIO2bNvrPazN4LfmBL9PTvnN8oae629oOfVVeYfqGWu/xQCsZx1S4/Pe/1RlkPF4Y2r9ufkyYq4+hF6XEoNBvVX9Fo/XTXNu+RSvvZgnZTA2dSrv0fzsFDrrTbpaiGnwjcIM2nBVo8jdenqiiJisqqI/BTQbofek5lg1yxt6bvWBYqiesfaLyKdzvDRv5gD8k7n1i8jnxvIZKjc3dv2SMFRH2/7ceg3z36CzZrXFyLbdFXj0+w7c4fCR9XMOHVl/18bm+u0h/80j1kFYT/MYdri+T4wXjbXAvUH8f2KOm1igiNxs0B49Djc1Q9BZmXLKbpY39FwnA8mpr8o7VM9Y+40G4Pulxpd737b6tZ0JSY0nNl91/FIfU2NPrW+EfDcXRXG3WDfSjyfw5KP3/M7DR87YOLR5xidDBt16mlGi0inq9IKdETpf22B8zRhTr+XGrrcZjIKbUKjRIvD6xvvlZvW6MECOVbO8gOcn5dRX5Q2oZ5QkRgPw/VODc849qDLIePx0av25+TJirt47kr69G9Rb1W/x+HFdcjTXkvx5AocuP/P0w5trFxzaXL+pPqjG/J0XQU/u8pvKhdPouHpRiE6J2BNO9C6DuC+KrnSkDFZrA2/d1/z5Zog69V2OVbO8kOcWp9RD6hkjjcUArPdep8aWO3GKHuvU07ipMdfz5fQ1zdvWh+vld/2dW691fufc5qKu89t1DGZh+/nnL514+MjavQ5ftnbZxpH122IG27a0Y7fpBO/9ky2XxevpyPo757Os7onrqSfoE+w010ntO4hGS7hVbT7um0/unOB9sXftK2dKq2JKeuwqe+ztRgPwA1Pj3OsDsH4YTbHLfT+o8jvnXmU1eZFz7tdT2kKeeIHzjx688+Ej64/euOzgNW0Daeq2+EgScpTfkrIvPqk6cd+jLpN44MCBOySEuSNLXx0h+1JXXdkRhMETq4kryjZ/pBmS9/6sEI+uNM3yQp7rfahd5YVuD6lnjDQWdwroIJoam4g8MNSoJ91xH8RS44nN1xNT0Aextp9RQmLIrbeW/+Ei8vTa86C4O9LfOguT/YT4zWuaw1esrx46uvacjc2DN6YOsn35puZS/i682dGRcjphW94rdaLznMblxpm66kpOzG15LVdE0rlrm3VMJpMzc6ya5YU8158ccurUvCH1jJHG4htw5gCcNXWo2s3zKWg9G5dyXHP7Wy2/LphwonPuj2vb2t7DQrfdsLKy4lPaRJ5ugY3LD5516Oj6JRuba7f0DaC5+7ojGGePnpI+bHUKZqADX9m2fF5oswbKDnlxvDu0rjHT5V4k1XA47ndt59xaI02IzbE0KW23uKgspV6LPEYD8INSY/He3z/neJV55/YbsMaf8jOVgdl2n68+PE0mk1OtVpPTtbp3a8781H44i/nO/5Ozv3Hj6Pq5G0fWP5Q7sIbm3xUH/dY0jZmzvPd/kDoblcELbreXItw+tiLyKIO2VAPmcYsxOOcO5pSf0gGdc/+QU6fmTanXIo/eBpMbu95KlBpL7tzdZexzPQCn/ESVe8yq/PVZzCxuCavKFZFXpvaJvZ7v0KVnnnx484zzN46sXx86cFql2zX7lZWVb9cBstaBqjd500fn3G+lNNIgrtuWl5e/KaVuyzze+/9p0JbtY+K9/9lmbN77u+eU3ywv5LnFbFIh9YyRRiexyPHSvDlX/OfO3V3VqzV5AAAZTElEQVTGPtcDcMrrMveYVfn1vvl6v/Le/69qn8HjqJMT1eNehL8PHzl44PDm+oWHjqx9zWpAjS1n1x1F5DGGE0W0Dd66UHX0AuYGLwadM3fXZ6wx/K1Jbb+v2WEmk8mBHKtmeSHPnXOfzKlT84bUM0YaEbkxN3adTjI1NqMBeNfO7uTaaf6U60Ms6tUynHNn14+dfhjQFZqMyr9ZX4/18vl7p8D5l+y/o85WtbG5/u7YwdIq/aHN9a/o78tPPrp25s7odumZiHy/iFxj1AmPG4R1Zq7YVUMsYql+79klVq32BItvXKXFTW2n7oqi+IEcqxQbEfl4Tp2aN6VeizwWF5Dpggqpsegp0Fw7PQORWn9uPoPYb9ezb7FxWNRblnHPZt3e++81/BJyLZN0NIWXlp5y6cF9OlvVxtG1T1sNpLHlHNpc/zu9ovrQ0YPLx0e4y1vKSfavMOzoOwZi59zjY5poEYf3/r/H1GmdVmcIs2iHltF2BbTG65y7a04dKW12zv1NTp2aN6VeizwWt1DpkoKpseSuXlW6z/UArCuExfrl9rcqv17/0lZ3eSZwx3tWlSfh8XIm6fgXZT3NfOjo+ssOHVm7OXbAtEp/3ub6+/QeYr3Iq+3Yz8w2vWBKRF6U0OEGO66+acc01CIG59z/ianTOu3WVZaPs2iHluG9f2ZbfLm3ObWVObRNRK7ObddQHWPtt5hEJHMAvm+u3bx/Ay6K4rtij6+B2fZ7VFEU6x1169mqP7Sqx3t/fkc9C7/5nEvOOWnj6NoDNjbX3241iMaWM3OnmWOOejlw6G+3gwNrTBq9ZSY0jphyu9LqTf8pF3yExjiUzvIity673G/ZQ21o2++c++su89DtbeVOY9vWJAwW/fohqbHmLh9Z+s77N+DoU4Ch/Woond410HXsdK1ri4layhhuzVk1qyvGWd6+8fYD37qxuf6Ejc21T8QOmFbpZ/o0c8zB0+UGLeb8bbwgnhoaQyNf8gcBve8ytE7LdHpfoM57a9GOcgWZE9viW1lZ2Z9TR1uZQ9u89+/PqVPzDtUxxn4RKXLj1vzOuYemxqcXJBrE8NnU+nPzGcSur+UiNg6jevVM0t376i7v27f4kKbtvL4oCumrbxH2WSyKkDsAz81p5pgDrqdRrDp+Wc6lofVb1euce31onZbpjFa92f7g4b1/aVdseqV3jlVXuX3bReRdOXVq3r7yx9q3dfHYublxa37n3E+nxsgALLevrq5OYv0sjpuWEbKUoIg826o+/bC6iJN0WC+KkDIAz/Vp5sAXgC4m/+eGnfHDgfUuWdWpa+iOtWZxX1u8979v1YbJZHJGV126/nNOPV3l9m0XkStz6tS8feWPtU9E3pAbt+b33v9Maoze+3sZxDDX34C996fF+hmYbX+Y1YsWh+our4Uxe9/TBSCG6pyX/YcuPfNb9IKm8zbXPpIyaFrkWZjTzCEHfTKZ/IhV5y+K4h9D6tQ0VnWW5fxiaL0W6fQ2C8MlCD/aN3Wf9/67c6xS2isiR3Lq1Lwp9ebk0StvnXNfyY1b87dNiBIam04EkRtD6qL2oTH2pcuNXfOn3J9vUW9ZxnH30re1V08dW/2EVNY71fegtjblbDvv6BmTMRdFCBmYF/I0c8BB0asDsycv0E4YsxKK4QtOP/l+vO0e2oC2JyXZmnD+aYbxP64vCD2dl1NXX9ld+3Spx5w6NW9X2WNtt/w5JWcAtvhA65z7+7GchsrNPe6aXy8cHKqnud+i3ti69acGq3r1PmPv/Q822zXrz6e1KELXALwXTjMP9oGiKP7MoiPGLMZtUV+jjKl8At23b983W8yVXMZ+vZbXd4B0JZZGO7dPtYVu6yu7a58uORlafk+6fV3lW29fXV1dtjojoe3x3j8sNUaLxTm0f6XWn5uv53jG9Lvvj43DqN7ob9/OuVdb1S0i1+mV1rFtn3b6alGEQ5trH+waGMfevqdOMw8dYBG53KITFkXxt0N1Vfst6quXoXU7576tKn+sR+fcS+r15vztnHvGUJzOOZdTx1D5bfuLonhFTp2a1zl337ayR9imK4C9JTfeRv6Hp8apUyE2yooZuLbTxvyUkxpnV77c2DV/yIVQzfot6i3LOL1Zdt9zvX7EOfdRw/qvmNVJOqpFEQ4dXf/c2ANsV/l79TRzXx/U2ZbeZ9EBu2Zzaqvcor6WMi5uq8tqm4joWq+3tdQb/SarpxlD5sz13q/k1JfSdhH5nZw6y7yvTak7Ns/WWZcnGsTaPH6PiI2jSm8xAOv0plV50360sBy6FaitTRb1ahl6zURb+X3b9AOD1fUDZTue1VfftPft9qIIc3uaeTKZrIrI83Vty7EOmg4CVvOkFkXxwtA4rV5wLeWMsmKJTsLunPunlvqab96hzx8TYlWuaxpa5nHpQupophGR5+a2U68HSLkftBlL33Ndbs5o5qum27l99fbtc879cK6d3l/aV8eY+wxi17MfwRPyVG2xqFfL0PfMqsyYR+/9r1nFoJPB6LKUMfVbpz22KMJla3/R9W107O3zfpr5ROfcO7VTOOe+4Jx7wtLS0knWB8pyPduYdVQNO/uON8+iKL6W8xtem69e1Wn4u68ez/eGHsvl5eVTcqza2jO0bevWrvNy6qzy6kpRY52O0wUTjL+1HOtHzrmfGzLq2i8iP1S1P+Pxhq7yx96eEfMxv675mPtit6hXy9BrJvrq6dmnF6NazpV/Q0YsPWH27zq2KMLm+qfGHmC7yl+I08w64DY7pXPuPbqyR/8hCN+rv5mKyKeb9aQ81288IadUq+hS6ojIozPdBH3DrOLpeiwvqrk+ou5jb0RtefQbm65w1FVfc7vOq9tWTui2Znkhz3MXgGjE9uK+26xC4mmk0XvXn2X1U0Aj1u1jlzkA37OtzMhtNzbaPLWnkXG29nU9CxAbsEW9WkbOzFQisk9vAbOKRUSumtZUuef90drddnNRhLk9zdzWUctTzze1dYTylNuzTj755Du15Q3dprO3FEXx9rY6UrbplbOhdWu6lDpi83jvj6Z+Ci1v1v9v1qc4vfeHI532xba7nj6mrlraEyzWBK7i0IkKLGYL0nl+ra5XqGJre3TOPbJmEfWn9/6stjJjtsXcTRAVXEDimDi70uqtWAFV7UjSVVbsdr1ocUfBkU/K1axMrvPQ2L33r4kMISl517fRsbfP+2nmNuxjp577Op9exCMiT9FlBtsK6dumnxJF5C/6yo/dF7tQdWz5qen1lLROV1l+Kh88ha8Dr84vLSIfSK2zK59z7m2xp2Qnk8m/7SovZHtfP+jbV37LbP2GE1JvS5qrelaq6QylXEbzHD2dPea33nq83vuf7wxoYIeefq2XlfK3XmswUM1ou1Pibclz79gAW8pI6nt60WJs3c30zrnftopHy3HOPbpZh/XzsQfaZvkLcZq57SDELnFXXhh0sb5p6P2QbWVW28qBVy+w+ZJlBxORN1V1hD4a1x/0YtXbOzTWrYsknq7TDepqJuXcveds3Ueq33Z1oLY8BXUsLr3VIWUh79NOO+0uOVahx6OZTt/I9MNLTt0teW/TsxLe+59qsThJTwHqZAbal0XkBTpN6ggxHDsmLfFt7/Pe/0LTI/S50QD8hdD6rNN1mcRs12+RsXHFlN+X1uKC1dXV1W8Qkb/sqydmn/48l3JleIxhc4Ac4/lCnWZuw9XTJ0VR/HPMwW1Je3O5oPo7ROStInKJnmq2WGS9pS59w7op5VNnR1mDb45VPv3god8oq+ez/KgDf8rtEdpHdKDKaVtbPwvdpqeOc+oOyHuLiNygV/0GpA3uGwZlJV9Jr/N6G9T/xdBjZJ3OIHY97Rp9BbBFvVqGXrRoYVLOwf5Fq7icc5/QD9MWsbWVMcaAW5W5iKeZ2wz1KjwdMKf5RmNRV9ItGwbtvF5/V7SaRMQgni7Lz4VMEN/WIXRbeaFcV9mD27vKDdmuHwjL24kG6xnRL7Ru/d3uSUZxPCrEpy2NnmY3iOGmtrKnsc0gdj1eD4yN1aje20899dSTY+vuSl8u2Rra/0LSvTX07oeumLq2V4Ol5ePCnmZuQ9QLP6w64bTKibnvt9lmgxi375UsTxdlLx5gEM9xL0D9nT7miuemkT4vfwM9ruzQeNvKjNmmp+tD69qtdOWFctuTZxjFkDwA6z2wBjF8KeYYWaY1iF2vRP6J2Jgs6tUy9K6B2Lr70ovIxVaxleX8Rl99qfusBt6FP83cBWwx+YFxR+l90y+v7mtdRL6rjfXtBrEem6xg//79dyx/2+2N2aDOmPKvzrklorIqJ0qJqXdH2qqc1Ee1dc791ZTtdrRhoO4v1n9zHEgbWm7yvOJ6pbZBDDenHq/cfAaxq/GDY+MwqlfrNp2DvDwDdZ1hfHqm5gGxPkPpcwfgvXKauddRfzsRkY8ZHuzQN5zYdBfEXs3bbLhBG48NwGXZen+oxRSKsRZt6d9kNS+1LtaQY9V0T3muv18bL93WZpay7TPNq+9zrKq8OVetisg9qnJSH/W0f8pxssiTGnM9n3PuobGx1PPn/K13DcTWPZReL6wzvhjwRl3lbKjemP2pA/CeOs0cAqo3bnvvn2k1PWROZ27m1Rm5rGaZapad8Lw5AG/z6tzAY82QNBRj6fMrIcc5NI32h6F6+/aH1jOUriiKH9st17b26bfytite29LGbnPO/dKQR9d+vdo1tr5menXuKn/s7c1YUp6nLOeYUk9bHl0XegwjXTilrb6MbR+wnKQjZgDes6eZYzqGTsbhnPujjAOc8o2iL88fDt3mFNM+g3a1DsAag06uLiIfMaijz6O+T08rXWR5AUhlWV5oVq8r6u+qHIvHcvrHr07Rtautr9VVbNraZBHb1q1ov9xWdsg2owH4qyF1jZHGwm9rfe7oCzON6r19xOUA9Ta5P7WKU6ej1Z8rrI5hyADMaeYEbX1BF0VxmU7wbXXwY8rR+ah1OsaE0HuzxMTQkbZzANaKdaYwEXmafivtyN/15h6zXQfeK3T2o97GZuwsf9+OiWlH2oyqW7N673+0vHVoRz0jGtfruXHozd0iDu998lkMvY85NwY93dmKP4WNubFr/pSJTCzq1TJa7i83U9NbnDLnhP+MiDxvdXX1e8yCKgvqG4A5zWygrb8ZeO+fYzV380CH14k6XpuyqkloUwfqr7/pdv3dOwBXcehFGbqilPG9pnrf6stWVlb2V/WM9VhOidllMLh9jLj03qQp3/6lE3i8JuQCG4N+pQPIr6a66W/SBjHcklp/bj6D2LVPRl9FblSvzjo16prg+lNMzJch/T2/KIo36vU9+lrOPT5d+ZsDMKeZu6Tyt+tUlWs6GOviDFYXB5Rz/75OTzN2nd7LD/3rJRi84IIG4KrG8lTuI5xzb074BndTuRCGfgC651j38lWxNh711NfgQNuVplGW6VN9U6lW7OqqP2e79u1ydrK7hgaeU1+VN2cALn/+SD5eZQy3hrbXOl1lkPOY8ht6Tn31vClT88Yall+Eho6xTvX7mDG/kdfjrgZgTjPXVabwtw6WOs+xnjYTkReVp6t1GjU93XFDNUCXp2J11qFr9E3TOfd7eopWB9yUmaxym1Z/0ST+HTUAN+I9Se/P1eko1cB7/1L9Rlve86cfQvQbs07q8BCdEWfKA24j1CWdoGXoxd65v1nYGM918oly1qzP5sRa5tXT+u/WqUFT+qVB/WqZvJKW9iuDGG4b4ziFlKmLXdT/64o+5Z0ZendG9f/a8kOsvp9s/69fJZ/yAcbAbPs1sLq6eueQduakKc9Kvasl5o/pBbSps97lxLSxuf6eQ0fXHqbrAOeUQ949ItDSeTsHkY60OQPwHlGeejNP1GsWnHOP11vCnHObWx9iri7fuHXZy2Nv2OW2q3U6Uefcq3Vhka25n+8z9inEqYtQYZDAysrKt1v8N176sjN2vQJfRD6nfVo/wJfXgZzQmYEdCMySQMegGjMIMwDP0gElFgT2mIBOtKMz8e2xZtPcRRBgAF6Eo0gbEEAAAQTmToABeO4OGQEjgAACCCyCAAPwIhxF2oAAAgggMHcCDMBzd8gIGAEEEEBgEQQYgBfhKNIGBBBAAIG5E2AAnrtDRsAIIIAAAosgwAC8CEeRNiCAAAIIzJ0AA/DcHTICRgABBBBYBAEG4EU4irQBAQQQQGDuBBiA5+6QETACCCCAwCIIMAAvwlGkDQgggAACcyfAADx3h4yAEUAAAQQWQYABeBGOIm1AAAEEEJg7AQbguTtkBIwAAgggsAgCDMCLcBRpAwIIIIDA3AkwAM/dISNgBBBAAIFFEGAAXoSjSBsQQAABBOZOgAF47g4ZASOAAAIILIIAA/AiHEXagAACCCAwdwIMwHN3yAgYAQQQQGARBBiAF+Eo0gYEEEAAgbkTYACeu0NGwAgggAACiyDAALwIR5E2IIAAAgjMnQAD8NwdMgJGAAEEEFgEAQbgRTiKtAEBBBBAYO4EGIDn7pARMAIIIIDAIggwAC/CUaQNCCCAAAJzJ8AAPHeHjIARQAABBBBAAAEEEEAAAQQQQAABBBBAAAEEEEAAAQQQQAABBBBAAAEEEEAAAQQQQAABBBBAAAEEEEAAAQQQQAABBBBAAAEEEEAAAQQQQAABBBBAAAEEEEAAAQQQQAABBBBAAAEEEEAAAQQQQAABBBBAAAEEEEAAAQQQQAABBBBAAAEEEEAAAQQQQAABBBBAAAEEEEAAAQQQQAABBBBAAAEEEEAAAQQQQAABBBBAAAEEEEAAAQQQQAABBBBAAAEEEEAAAQQQQAABBBBAAAEEEEAAAQQQQAABBBBAAAEEEEAAAQQQQAABBBBAAAEEEEAAAQQQQAABBBBAAAEEEEAAAQQQQAABBBBAAAEEEEAAAQQQQAABBBBAAAEEEEAAAQQQQAABBBBAAAEEEEAAAQQQQAABBBBAAAEEEEAAAQQQQAABBBBAAAEEEEAAAQQQQAABBBBAAAEEEEAAAQQQQAABBBBAAAEEEEAAAQQQQAABBBBAAAEEEEAAAQQQQAABBBBAAAEEEEAAAQQQQAABBBBAAAEEEEAAAQQQQAABBBBAAAEEEEAAAQQQQAABBBBAAAEEEEAAAQQQQAABBBBAAAEEEEAAAQQQQAABBBBAAAEEEEAAAQQQQAABBBBAAAEEEEAAAQQQQAABBBBAAAEEEEAAAQQQQAABBBBAAAEEEEAAAQQQQAABBBBAAAEEEEAAAQQQQAABBBBAAAEEEEAAAQQQQAABBBBAAAEEEEAAAQQQQAABBBBAAAEEEEAAAQQQQAABBBBAAAEEEEAAAQQQQAABBBBAAAEEEEAAAQQQQAABBBBAAAEEEEAAAQQQQAABBBBAAAEEEEAAAQQQQAABBBBAAAEEEEAAAQQQQAABBBBAAAEEEEAAAQQQQAABBBBAAAEEEEAAAQQQQAABBBBAAAEEEEAAAQQQQAABBBBAAAEEEEAAAQQQQAABBBBAAAEEEEAAAQQQQAABBBBAAAEEEEAAAQQQQAABBBBAAAEEEEAAAQQQQAABBBBAAAEEEEAAAQQQQAABBBBAAAEEEEAAAQQQQAABBBBAAAEEEEAAAQQQQAABBBBAAAEEEEAAAQQQQAABBBBAAAEEEEAAAQQQQAABBBBAAAEEEEAAAQQQQAABBBBAAAEEEEAAAQQQQAABBBBAAAEEEEAAAQQQQAABBBBAAAEEEEAAAQQQQAABBBBAAAEEEEAAAQQQQAABBBBAAAEEEEAAAQQQQAABBBBAAAEEEEAAAQQQQAABBBBAAAEEEEAAAQQQQAABBBBAAAEEEEAAAQQQQAABBBBAAAEEEEAAAQQQQAABBBBAAAEEEEAAAQQQQAABBBBAAAEEEEAAAQQQQAABBBBAAAEEEEAAAQQQQAABBBBAAAEEEEAAAQQQQAABBBBAAAEEEEAAAQQQQAABBBBAAAEEEEAAAQQQQAABBBBAAAEEEEAAAQQQQAABBBBAAAEEEEAAAQQQQAABBBBAAAEEEEAAAQQQQAABBBBAAAEEEEAAAQQQQAABBBBAAAEEEEAAAQQQQAABBBBAAAEEEEAAAQQQQAABBBBAAAEEEEAAAQQQQAABBBBAAAEEEEAAAQQQQAABBBBAAAEEEEAAAQQQQAABBBBAAAEEEEAAAQQQQAABBBBAAAEEEEAAAQQQQAABBBBAAAEEEEAAAQQQQAABBBBAAAEEEEAAAQQQQAABBBBAAAEEEEAAAQQQQAABBBBAAAEEEEAAAQQQQAABBBBAAAEEEEAAAQQQQAABBBBAAAEEEEAAAQQQQAABBBBAAAEEEEAAAQQQQAABBBBAAAEEEEAAAQQQQAABBBBAAAEEEEAAAQQQQAABBBBAAAEEEEAAAQQQQAABBBBAAAEEEEAAAQQQQAABBBBAAAEEEEAAAQQQQAABBBBAAAEEEEAAAQQQQAABBBBAAAEEEEAAAQQQQAABBBBAAAEEEEAAAQQQQAABBBBAAAEEEEAAAQQQQAABBBBAAAEEEEAAAQQQQAABBBBAAAEEEEAAAQQQQAABBBBAAAEEEEAAAQQQQAABBBBAAAEEEEAAAQQQQAABBBBAAAEEEEAAAQQQQAABBBBAAAEEEEAAAQQQQAABBBBAAAEEEEAAAQQQQAABBBBAAAEEEJhhgf8P9M0mAVk17tEAAAAASUVORK5CYII=;" vertex="1" parent="1">
          <mxGeometry x="680" y="248" width="50" height="50" as="geometry" />
        </mxCell>
        <mxCell id="guoJjqlwkhtF7B335C00-32" value="SIEM" style="text;html=1;align=center;verticalAlign=middle;resizable=0;points=[];autosize=1;strokeColor=none;fillColor=none;" vertex="1" parent="1">
          <mxGeometry x="760" y="258" width="50" height="30" as="geometry" />
        </mxCell>
        <mxCell id="guoJjqlwkhtF7B335C00-33" value="" style="shape=image;verticalLabelPosition=bottom;labelBackgroundColor=default;verticalAlign=top;aspect=fixed;imageAspect=0;image=data:image/png,iVBORw0KGgoAAAANSUhEUgAAAF4AAABeCAYAAACq0qNuAAAAAXNSR0IArs4c6QAAIABJREFUeAHt3Ad0VNX+L/AzM2kzk94IoUPoVSk2EFQE4aIogr0jdhQUEQE19KaAICAdpIcWOoQSeg2kJ1OS6b33ksns73t7iuR6ve/9ve/6rt4la33W75yTOWfO/M7OyfntvQeG+evfXxn4KwN/ZeCvDPyVgb8y8FcG/srAXxn482UAAOuP4M+XuX/hjIF8NlDAofFf2P132QVgWOFzKuD8Lm/wnz4o/YBNzwFAHJTgQgMedOD/HQMS0YTBgMTf4ud9deDT/aDT8X8GHR8aDQ9KJRdAfNNz+q9dDpi2P9ZgXL+hwbjmtF+/4oZfv/ROg35JWYNhYVnAOL+swTCnPGDIL28wfF0eMMwsbzDOKA8YvgzTTysP6Kc28Xl5g56aWt6gm1beoI36srxBO73cHzKz3K/9ptyvzS/3a+eU+1Vzy3yqBWUe1aIyn/LbOx7FsptexYpir2LlDo90xYvRxP+ykUS3/6li9LYSNP04Mej4IdhonoOA7nP4tR/Br30Hfu3b8GveDi/r3odfOxF+3WT4dVPg130Bv25aOGrpPpPh13wIv2YC/Oo34FO9BJ9qHHzKZ+BTjoZP8SS8iqfglY+GV/4MvLKx8MpegEf6CjzSN+GRvguPZCI8kk/hkXwBj2QmPJJZ8MsXIKBeDK/om7XR5P6pkx9Nule5dHCDaVHQq/4UHsUbDV7lCwGvckzAq6KeD3jVrwe86o8CXs30gE+7IODTrgz4dOsDPt3WgE+3PeDVbQt4tVsCXu26gFezIuBVzw94lV8GPMoPAx756wGPbGzAIxsV8MiGBzySoQF3/WMBd93QgFs8POAWjwy4RKMDLtG4gEv4SsAlfCvgFLwXcAgnBhyCyQF7zWcBW9XkBlvlJw1+0cfwVb3/Dk0+Csb9ee/59KmFfohGXf4Ov+pjuCQvNoRb4gh45cPhlT8Br3wUvIpx8CrfhFc1ET7Vl/CpZ8OnXgSf+jt41cvgVX0Hr2oRvMrZ8CqmwyOfBI/0HXikL8MjGQN33Qi4xY/BJRoMl3AQXIKBcNYOhLPmYTirh8BR9RgclcNgrxwBe8Uo2Mqfhq3sWVhLn4P19vOwlDwH442nG223noLr9rhKafEbCdGW/6eNhqoPEv31z4t89cPhFA4MukX3wy3uR9x1/Yi7nsb+xF13H3HXP0jc9Q8Td/2jxF0/jLjrRxJ3/SjirnuSuOtGEbd4BHGJHycu0SPEJRhInIL7ibO2H3FW30McVb2Jo7IXsVf0JPbyHsRe1pPY7vQk1pKexHqrF7Hc7EUsN3oT87XexHy1NzFd7kOMl/oQ48U+xHChNzEU9yGGc72I/mxPmM/38VsvDegdavW/eCD4U1yE6D3SUfJkpru0t8pd3g6O0lZBZ0VLOCtbEMpV1QLOkFw4q3LhrGwS6XJFCzjKc8PKcuEobQ77nRzYS3Jgu9UMtpvZsN3IhvVaNixXs2C5nA3zxWyYL2TDVJwN09lsGM9kw1iUDcPJbBhOZEN/PAv6Y1nQH8mE7nAm0R3OILpD4WXt4UxiPNEM1lPtHg4lPp/5wzz2/uaLLj6eF++/2v6252oO7JfSg86raXBcSyXOa8lwXg9zXE9CyLUkOK4lwXktEY4rYfbLibBfSoT9Ih/283zYivmwnuXDdoYHaxEfllM8WE5wYT7OhfkoF+bDXJgLuTAd5MJ4gAvjPi6MBVwY93Bh2M2DntrFg2EXjXzod/OJYU8i9AVJxLgvGZZD6Xbb0ez2f9oWHzrxyB+owLk2sxvO5cB1KsXvLkoi7iI+3EVc4i7iwl2UABd1ioqH62SY83g8nMfi4TwacTgOzkNxcBTGwXEgDo79cXDsi4N9bxzse2JDbLtjYdsVC9vOWNh2xMK6PRa2bWHWn2Jh+SkONFpp3BYPy7YEYtmeAOsOLkzb+X5nQQo8hZlH/7RJ/2V1al3GpDYWZdxsLEpE48n4xoZTcQicjCWBk7EInIi563gMGo7HIHAsBoGjMWg4EoMAdSgGDYUx8Bdy0HCAg4b9HPj3ceDfyw4rYMO/mw3/Ljb8O9nw7WDDu50N7zY2vFvZ8G5hw7OZDc8mDjwbOfBs4MCzPoa418fCvT6WuNfHBRs2ceHfnqx1bY/rGf21Dndp5MdEHxKi2/+QMXpvpydnKVmb4qpalePUbsryXOw0ILAp5rB7LmO3TmdgnckQyjKTQcgMBpYI85cMQqYxMH/BwDyVgflzBpbPGJg+ZWCcxMA8iYHpYwbGjxgYP2Bgep+B6T0GhncYGN5mYBzPwEC9ycDwBgPD6xGvMTC8xsD4GkOMbzDE+CYDx3uM1z+LddW9Je1vqjPzM4wn5zWXX1qQlp9/t2uj6ef6QyW+aavwKH58PmjbtLPRtu5Go2VVfdC0wBA0f6RqNI2r89cMdrtL+sN1qzdx3+pGXDc6w3kjD87r7eC81haOq23guNoajqut4LjSEvbLVAvYL+fCfqk5rBdyQuwXc2C/2AzWC81gLc6GrbgZ7BeawRZabxZat53Pge18LmznW8B+vhXsF9rAdqEd7Bc6wnGhKxwXexLHxb7wXB/Y0Fj3lLRB/pasoX66sUG2RBaQL73TqFh20F47b6Ly6lIuTfYfNvn05Br0P3zbaFwGv24OGvTT0aCbjAb9h2jQv4sG/dvwG99Cg/lN0mB+k0Y0WN5GwPIOApb3EbBORMA6CQ3WTxGwfoaA7bNwtExCg2UiGizvIWAZj4D5VTSYn0eD6Rk0mJ5Eg/EJNBiHosHwCBoMQ9CgfwT+kEfh1z0Ov/YJ+HWj4Nc+DZ9mHLyal+HVvEm86nfgVU8kXtVn8MqnwiufAZ/sa3il38ArzYenLh9eyTfw1U8/KN38B3y2j1aoftXicQ2aufDIPm30SN/2e6QvN3qkYxs90tFBj2xUiFc6mnhl4+CVvUa88veJVz4FXsU38CoXw6daCZ9qLbyqTfCqtsCr2hqOyk3wKtfCq1gJj3wxPLJZ8Ehpyf8R3JK34K57EW7xM3CL/gaXaDhcoqFwCx6DSzAUTqp2GFy1I+CsHQVnzdNw1oyFs+YFOKtfJY7qt+ConkAc1e8H7dUfBu3VE4O26omNtooPG63l7zVYSt/yeWvehrvirdnhVn/39vMfv+VEfwX90g9P+qRvwiEYG3CLR8MtfgLuusfgrhsCd/3gEE/9I/DUDyUeyQh4JKPhkT4Pj+xVeGQT4JF9GK5K5Z/BI/scHvlUeGRT4JFNhltKK9/3womufwXuunFwiUfDKR4Bl3AoXIIhcNYOgrP2IThrHoCjOqLqATgqH4S94iHYKwbBXv4wbGVDYCt9DLbSobDeGU6st5+ApWQELCV/g+Xm32C+MQrm6yNhujYMxsuPNpquPALrtUcU1uIhqX+YW0406dbSN1LtdwYr7GV9YS/vHXRU9ISjsjtxVnULq+5GnDXdiJPG6m4ILdd0g7O2R1hNLzhr+sBZcw+cNffCWdMXzmrqXjiq7oGjqg8clb1Bj2sv7w57eTfYy7rAXtoZtjudYbvdGdbbnWAt6QTrrU6w3OwEy/Uw89XOoExXusB0qQuMF8MM57sQw/nOMJzrTPRnO4Wd7kh0RXlEV9Qhoh3RnmwL56UObnNx1/sjif/PF1bRxDuKh2RaLnbSWC+1gPVKTtB2rRls17OI7UYWsd3MAmW/lfkrMmC7FXEzAzbqRsT1DFivRVzNgPVqBixX0mG5FGa+mA7zhTSYitNgOpcG09k0GM+kwXg6DYaiNBhOpUF/Ig364+khuqPp0B1Jh/ZwOrSH0qEtTAvRHEyD5kBq2P5QJFq6fjCVaAtTifZQKlxns1yWotyHQon/o1W07lNtrzhPNYf5eGaj9WQ6rEUpxFaUAuvpZNjOJMF6JjGCD+sZPqynKV5YEa1EebBQtBo9yb1bkR7jwkwd5cJ0hAvTYS5Mh7gwFnJhpBXqfi4M1N4EGAooLvR7uNDvohKg35kA3Q5u2HYudNu40P4dXnh9Ow/a7XzodvCJfmci0e9Kgm53EtEVpMJ6OFPnLmqV+4e51YROJFKhNhzLm9xwIhf2wtSAszAJzkI+HIU8OAu5xFmYAAd1MD7sQDwcVLQCjVahtBItiIWdVqFRtBr9RUVKq1LrtohQNRoLy9ZYWLbEhG2OhWVzLMybYiLo8q+Jg3lTHMyb42DeEg/zlgRi3poA809cYt7Gh3F7UoNnXzo8+3N++gPdZuiANR1HDQ/rFQ9hYgInMg8HDiXBuz8h6DsQT3wHYin4DsSE+Gnc3xQH3v0cePdx4N3bRAEH3j1N7ObAs4sDz0522A42PNvZ8Gxjw72NDc9PHHi2suHewoZrc5h7ExuujRy4NrDhXB+xjg0ntZYDx5pfWM2BY3UsHGtiiWNNHOw/xjd6NvAQ2J5Sa97EbRVt7ZGK9j9zn48+QtKTKSgo4EC6OMerXdbWc733wIYfEkq8+Sy4v2GC7q8Z4vmKIe6vGLhnRsxg4J7BwDU94ksGLmoaA9cXDFxTGTipzxm4pjBwfcbAOTnM8QkDx8dhzokMHB8xsH/AwP4+A8f7DOzvMbC/y8D+DgP7hCbeZmCnxjOwRdH16GveCe/v+JAh9LjOSUzQPYWBdz5b5dyVNdZ6bVpbT/HUluLjK34ep6UNLtroaB5+93/RN/NIVgxo1K9Z51etLPVrvtcG9QttjcZPjD7Z01Zf5SD4KvoSX3k34ivvSHyl7eC73Rq+2y3gK8mF71Zz+G7kwHu9GbzXsuG9lgXv1Ux4r2TAcykDnovpEWnwXEiDuzgV7nNUCtxnU8IxunwmGe7TEXQ5JAnu0xF0/SxF902NSIe7OBPu4iy4i3PgPt8Cngtt4L7YgbgvdYH7cm/ivnw/3CXDnAHRa/qAYKrNWzPL4KqeXe0Vz9ntE+aP/N0T3fQNoklv0KyY0GBY3hDQL0GDZg68yi/hUX4Gr+IT+FQfwqd9h/h0r8One4n4dOPg042BT/d0iF//NHz6Z+DTj4HfMBY+w3PwGV+Az/gi/MaX4DO9FIp+w4vwGZ+H3zgOfuOz8BtGw28YBb/hCfj1QyPV6SD49A/Cp7sfPt0A+HT94dP2/ZlX0w9ezQB4NffBq34QXvVAeFVD4FUNhUf1BLzKJ+FVjoFH8Tw8ilfhlo+HW/4eccs+hks2hbgk0+ASTYdTNANO4Qx4xDPhl3wFf/10eGqnfEdz07S7pGmu/m3L0duLVz7rsYBufqNbNh3OuokNrvoJQY/09aBH+gLxSJ8lHulo4pE+Ca/sSeKVjYZXNiZcrcpfgVc+Hl7Fh/AqpsCrnAmvci68yiXwqpbDq14Fr+pHeFXrImgVuwZe5Q/wKpfDq1gMr3wOvLIZtDqGR/oBPJK34JG8BE/9WHjqnoKnbiTc4uFwi4eGiR6Dm1aywmFwC5+AWzgSLuFTcAmegUswFi7BC3AJXoFL+AZcgrfhFLxHHIIP4RRMJM7aT+CsnUQcVM1kYq/5JGir+iBoLZ8QsFWMDzQIJ8BV/ton4eT/jhXtz4kXjz/uEb0Je82LDU7hOLiEo+EUjoRTNIy4RI8Sl2gIcYkehkv8MHGJB8NV9whcdUPhqh8Bd/1ouCXj4Ja8Ard0PNyyD+CWTYJb9jnc8i/hls+EW/51mOwr0Ivrkk2DSzoFLgmtXt+Hq348XHWvwFX3HJziZ+AU/Q1OIR1afAxOwRA4BA+HxlwdNQPxs+pBcFQNgr3qYdirhsBe+SjslUNhqxwGW8UI2MpHwlb+JGxlo2EtewbW0jHEeudZWO+MJZbbY4ml5FlivvU0zDefhPnGCBivPd5ovPoIHDcfqftdK9roLcZ1c2SO685AheXmvbDe7hO03elNbKW9iK0sNN6J0JhnRQ84Kpuo6g5HSA84qnrAUd0TjupecFT3gaP6HjhodVrdD47q/nBUD4Cj+j44qqgBIfbK/rBX9oW94l7YK+6hlTHs5b1gK+sJW1kP2Eq7w3anO6x3usF6O6KkG6y3usNC3ewOy43uMF/vEXatB0zXesJ0tSdMV3rCeLkXjJeonjBe7AnDhZ4wnO8BfXF36Iu7QX+uK9Gd7Qr9mc5Ed6YT0Z3OI7oz7YnudFu4rrZ3GYvzhoRafQHz75+ZgEi1pjvTs73jQp7acKYFjOdygqbzzYjpQmisk5gvZcF8OQvmK2GhcdBrWeHx0KuZsNDKk7p2l/laBkKuZsAcdSUD5ssZMEXjpQyYqIsZMF6IOJ8BQ3HEuXQYzqZDfyYdhjMZ0J/OgK4oA7pTmdCdzICWOpEBzfFMaI5lQnM0TH0kE+rDVAbUhzKhPpQBVWE6VAebOJAG1UEqFeowoi5MJepDqURzJJ04zmb5DCdyQn9o8bskPvKsXlXQLc5S2L7acCAX+oPZjYaDGTAUphHDoRRiOJwMw5GkiEQYjibCcIRGfhM8GI78Pf0RHvSHmzjEg44qjDjIg+4gD9oDPGj3U1xo9nGh2csLURdwod4TsZsL9S4uVNROLlQ7uFBS27lQbotKgOInbthWLhQhPCh+4kHZ1DYelNv4UG2nEqHemUjUu5Kg3p1MNAUpQfXedDiOZZvNh3O6h1r879WVEL2ingMdF3oOtoRpZ0aDZXcqzLuSiHlnIjHv5FEw0THMHQlh2+NhitoWD2NIHIw/xcG49S7D1jgYtkRsjoNhcxz0m5rYGAdd1IY46DbEQ7shLmx9PLRR6+KhXRcPzbq4sLVx0ET9GF2OhWZtVGRb5PXadXGh/UPHo++xMR66jVxoN3OJbgsP+q18ot+WBN22lAbb3iw49ueeCP9x/fu5oXTbv+Uf/cNaVZUfRx+dnAX3ZAVP5N7xHkmF8yA/6D7IJe4D8XDvj4NrX+zf2xsD194YOAti4Nxzl2N3DJy7YuDYxblrJwf2HRzYt3Pg2B6O9m0cULafIrZyYNvy96ybObBuamIjB9aNHFioDU2sjyzTSK27y7yOg7AYmNc1sT4Wlg1UHCyb4ol1cwIsW3hB144kBPZlWmz72vejCcbxEfHRh49/S8JDB/2VadWm3UxX34qYO565DFxzmaB7LkMi4J7LwD0nzDWHBdccBq7ZTcxi4PoZC858JuwbFpxfs+D8qomZLDioGSw4pkd8yYJ9WsQXLNinsmCbyoL9cxZs1JSIz1iwfforJrNgm8yClcZJ4WW6Tl9r/4wF+xQG9inh4zm+YMH5JQPndIa4vmbgymeC7nkMfN+zNfYNMU/8Msn/tuRHn2ac8qXdPeolX/hVS7YFlPnnYHz7tK/8/hrvyXbwHGtOPIcziOdQKvEUJsNzIBGefXy4C3hwF3Dh3sOFe1cC3DsS4NoWD9dP8XBtjYdrSxxcm+Pg2hgL14YYuNbHwLkuJtSPQvtSnGs4cK7mwLmKDecPbDhWsuFY8Qvfs+FYzoZjWZh9GQf25WGO5ZzQdjv9GV2m6OvpMeixKHrcVbSPhgMH7b+h778+Fs6NsXBuoueZAOc2Hpw7kolrdxpx7c0Ouva3hOtcd0VjzahTnvL3ztsrpu6xV077xlw+NdRf/8uL8ZvXo0l3KxbPDJiW2RuNS+BTzYFX9TV8qqnwaT+GzzSB+EwvwmcaDZ9pOHymIfCZHoLP9AB85gHwmfvDZ+4Hn6kf/JS5P/zmAfCb7oPf/ECY6SH4QwbCb4p6CH7jg/Ab74ffeB/8xv7wG+6Fz9AHPn1P+PTd4dN3hU/XCT5tHnza9vBp28GnaQOfpjW8mlbwqqmWYapW8Ia0hkfZBh5FO3gUHeBRdIRH0RluRXe45b3hlveFW34/3LKBcMuGwC0bDpfsSbikz8IpfYk4pW/CKX2fOMWfwCWcDKdgSoiv/gv4pZ/77DUfrRKLJ/7cn/Pbkx6Z2uCRzpzcqJ0Nt/RLuCSTAy7Jhw1u2dsBt+z1gFvyUtAteR4eyVjikTxDPJLRxCMZBVq1htGhvTHwyJ6DR/YyPPI34ZG/C698IryKz0LdDF4lHW+lXQ4LQuOuXuW3CPsuXNEqF8GrmAePcha8ihnwyOmQ4CfwyN6FR0anXr8Ej3QsPJKnQIcT3ZKhcNc/Anf9w3DXD4K7fiDcdQ/BXUfjILjFg+EWPxKqal3i4XCJ6TjtU3CJxsAleh4u0ctwiV6HUzQeTtG7cIo+gFP0MZzCScQh/BQO4WfEIfgMdsGnQbtgUsBeOzFgq3m/wVY9ocFW9VbQI3wTzqoXVtKERxvu/zj50R2sd8a38dW/Y3QK34S99tVGp/AlOIXjiFP0NK0WiUs0nLjEjxGXeAhc4sHEJX4YrrqH4a4bHBlnfQzu+uFwS0bBTWf1Sl6AW/oG3NJ34JZNDI+nyuns36/hUcyBhyZYsQAexcIw+Ty45XPglufDLZsJt+wLuKWT4ZJ8CJdkAlz1r8FV/wJcdWPgEj8Jl/gJuMSPwyV6FE7hEDiFD8MpHASnoIlaWtUOgaP2UThqh8JROwyO2hFw1PwNjpon4ah5GvaaMbDXjIW9+nnYq1+Avfol2Kpega3qVWKrfBW2yleJteIVYi1/kVjLnoOldAwsd56C+fbIoOnWsKCv6nG/o3RQeLQKv2H+JYqHxNCr5Cwb/pG3eijMtx9utJUNhrV8ELFVDCS2yoeIvfJB2KruI/aqAbBX0YqTVp79YK/uC3tNXzhC+sNROwCO2vvgqH0ADsFDcNJyng5MCx6DQzgMDuEIOISj4BA+BYdwNBzCp0OcwqfhpF0RgqfgEIyCQzASjtonYK8dBnvNY7DXPAJH9cNwVA+EvepB2KseoOcDW+UAhCvd/rBVRJT3h628H2w0lg2Atew+WMvuh7WUegCWOw/CcuchWG5Tg0LMJYNgvvUwzLcGw3xzMEw3H4bpRsT1QTBeG0iM1x6C8er9xHhlADFcuZcYLveG7mL3gO16N1iudlsSavWRXP6PWn008YbiPj9Yr3SF4VKHgPFyB5iudiDma3nEfD0P5hsdYb7ZEZZbYdaSjgi5nQcrdSfMdicPf68jbKVRnWArpTqH3ekCa2kXWGkM6RqOt7vAGhrMvjugbSnpBAsd1KbvT8/jZvh8Qud1oxPM18NM1zvBdK0TTFcpOuDdGUbqMtUFxktdYKAudoHhAtUZ+vMRxZ2hL+4E3TmqI3Rn86A70wHa0+2hPd0O2qI2Ea2Ipqgl0RblQnOqeUB3pjl051oeCyX+txRV0UJJdbjTZu3xtlAfax7QnMiB9lQ20RVlQ3c6C/qzEeeyYCiOOJ8Fw4Uw48VM/BrTpUwYf0309RcyYbyQCcPFTBhoPP8LxZnQU+cizmZCT53JhI46nQldUcSpLGipk1nQnMiG9gSNWdAcz4LmGJUN9dGssCPZUB/Jgoo6nAUldSgTysKoDCgPRqVDeZBKCytMg6owjagOpUF5KD2gOpIB1bGc8/SWHb1t/w9bPBO61Uh3dF6o3NMO9dubB6Q7s4lsVwaR7Ukn8oI0otibShT7UqDcn0KUB5Khog4mhRUmQVWYBPWhxH9KFfkZjdHln19fmAg1dTARqoOJUFIHIvYnQkntC1PsS4RibyIUBRF7EiGndlN8yHclhsh28iHbmQjpjkTIdoSjdHsifrYtEZKonxIhoZquR5al20L7EOmOJEh3JBHZzuSwXSlEvjsVsj3pAdX+LKgP5u4Jtfjf0n8TbfHCtT2frl/bAZXf5zTWrMxGzcoM1P6QhtofUlC7KhmCVUlEsDoJwjWJEK7hE9GPfIh+5IWt5UG8lgvxOi7qIsTrElC3NgF1NP6qu6+tW3t3mR6nbi0vRBw6Lj02P+xHPsRRa/gQr+FDFLWaB9FqLkShGF4Whta5EK2i2yORLq/igv7s559HX7eGCxEV/lwkFOl7r0sk4nWJqFufjLoNyajfmIr6zekQb85s0Ba0gKagbbifvjjciP9HLT76ooJx4zhV33W8WLmwFUpmZXtL8jOCJflp5HZ+CrmTn4zS/ESKlOXzSVk+D1R5PhcVs7ioDElA5ewEVM1OQDU1JwE1c+JRMzceNfPiUTs3HrU0zouHgJqfAMF8LgQLIhbyIFzIh3BRIoSLkiBcTCVDuDgFwsWpEC75P0mBcEkKBNTiZAgWJ0UkQrCYD8FiHmqpRdx/tJiLmn/AQ82SEFLzLZ/UfpeIGmppMqlZnkJqlqcFa77P8IpXN4dsQzuJeFNeVqjF/9av80TvTVdnd+lZMbuDtGxmK5ROz8HtaZmkZGp6sOTz1MaSqanB0qnJKPsikVRM45PKaTxUfckl1dMTUDszHoKv4iD8Og6ir+Mg/iYW4vxYiGfFon52LOrnxEIyJxZSam4sZPMi5sdCFhIH+YI4yBbEh8gXJEC+MIoL+cK7ZAu5uIsH2UIepAu5dy3gQrKAi/ponJ+AupB41M2LR938eIjnJ0A8LwGiCOG8BFCCuRSX1M7loXYOn9TMSSTVs5NQOSs5WDErpbFydmqwanYGqZ2Xhdr5uRAsbmuvXJo37F9KerTFR/vgi6f1aVsxvdOKqqntheWTWvsrPm6B2o+zUfdRMmrf4xHRO/EQT4hF3YQYSN7mQDKeA+lbHMjeYkP+FhuKt9hQvskKUb3BAqV+gx32Ohvq19nQUK818Sob2qhX2NBSL7PCXolEuv7L5VdY0LzCgvrViKbLr7Ggfo0F1evhc6DnETqvt1hQjmdD+TYbigkcKN7lQPEeB/L3OZB/wIHsoxjIPo6B9JNYSD+NR/0ULpFPS4TsywyIpjWHcHqrgPirtjLRnA5bbuZ37BNK+m95mokmvGmMJp9uO/Nhl4zKD3p0rX0vb7h0QqvhyhGxE6X3s9TSfgzq+zNByf0MpA8wRPogA+lABrLBDGRDGCgeZSB/jIHicQbK4QwUTzBQjmSgGsVA9RQD1WgGqmcYqMYwUD/LQD2Wgfo5BprnGWhejHiJgYZ6mYH2FQbaV5ug6/8Mff2LTbzAQEs9z0D7HAPtWAaaZxloxzDQPsNAM5qB5kkG6r8xUI1goBrOQPU4Q5SPMlAMZohiIAP5IMatGsXhLPQBAAAWUElEQVSer5uQPVT2WYcRgik9epVP6ZUdzVvBuH/TSFR+PsP+5cE0c+K6aj6Nu6P4kAPFZE5QOZVNVDPYRJXPIer5HGiXcKBbzoF+VQz062Jh2BTugzftjIepgAvzfh4shXxYDifBcjQZ1uOpsJ5Mg7WITv3LgPV0BmxnMyPocjps51JhPZcM69kkWE4nwkK/fFbEDbGeCk/5s4S+hJYA85EEmA7Fw3QwDqYDcTDuj4NxbxyMBXEw7omDcVccDDtjYdwRC+P2OBi3xUbGCGJh3BIL46ZYGDfEwrguFsY1scT4QwwxLIuBYVFMUDc7BpZ5MUrb0pjQLSWacIBhF/yWp5jojv+3GL3vC9c+male21ekXtcNsi2dAsodHaDe25ZoC1tDf7wVDKdbwlTcEuZLrWC51hrWG21hu9UhNKvXXtYD9vK+oanTjqpH4aihFekYOGpfhFPwBpzCCXAK34VT+B4cIe/CEVp/B/bat+EQvAmv9GU0KJ5Gg2wYvHWDYK/sB+udXqFxVxsdcy3pAuvNzrDcoLOF82C5lgfL1TyYr+TBfKkjTBc7wXS+M4zFXWA81w3Gs91hONMDhtO9oC+iesMQdboXjEU9YSjqCsOpzsR4Mg/6E+2CliOt4TzYymeM9Mf/LgmPXpDo18zlOwZ+oj3wMOSFA/3akwOhP/cQMV18gJiuDCDm6/0QGggvuQe2231gu9MHttJ7YC+7F/byfrBX3Beaq+6oHAx71eNwVI+Eo5r2j4yDo+ZFOGtegaPmlXAfSdUY2Cufgr1yNGxVY+ERPwevYCTkx+7DrdVdcX1FR4gKusJ5uw88gv6w3O4Ha0lfWEruhfXWvbDcost9YbnVD9Zb/WG5Sd0Py437Yb7+IMzXB8J8bRBMVwfDeGUIjJcfgeHSIzBceBT6849CX0w9Av25wdCfG0j0Zx+A/kw/YjjdB5qi7n5rcWeYz7TfTPMTfQSP5urfGqP3e+muLoe0hzpCdaxDQFuUB/25ToSW2nTuOZ2Dbr7WBebrXWC5GXGrS7gV0pYYKv+7wnqbdgd0C7Hd6QHKeqdnRK9QC7be7gFrSVeYbnSA/WYLCLekYOlQFsanMBjHMHiWYfAKj8E397JxfVEybJdzYQh1bXSG+VpXmK91g4m62j3sSg8YQ7MK7s4sMFzsBcOFXjCc7wV9cc+wc92hO9sNutNdoTvdGdqiTtCeyoP2VHtoT7Ul2pOtiPZkblB3sjnMZ3NrjZczk0LJ/62Pjv/TqxMqgRmwJLvybigOtIKiMKdRfTSbluNEe6oZ0Z1uBv3ZZtCfawZDcQ4M53NguJADI3WRagbjpSYuN4Pxly41g+lyDkyXc2G60gKGi81hOpeO2wsTMCGThZEMG+MSOHiJz8GLiRw8x+VgFMPCsxwGR9+PgelUCnRn6Xu3gr64FfRnc6E7kwvd6Vxoi1rcdaoFNCep3LATudAcbw71sRyojzULUR3NDnchHMmE6nAGVIfTifpIOtRH0mgM0mXHuRyl5li7NqHE/78+yfyzC0H/yNKf1W/vdE62qxUku5o1yvZkQrE3nSj3pxHlgVQoD6ZCVZgC9aEUqA8nh2iOJENzNOmuY0nQRNHtdDkaI9u1x5OgOU73S0b9Bh4+bcfBUyw2Xk/j4NUkDl5JZIe8TGMKB2Pi2Xiey8LNOXHQHkmC8mBy6DyUB2i3RjIU1L4kKPYlQ7E3TF6QDHlBEuR7qOSI6HqTSF9Hf16QTOR7k2lXCVHsSwsqD2TCdLyFVH+oR7NQ4n+3Fh/5i12/qety6cY2qFmdHRCuzYBwbRoRrUsh4vXJRLwhidRtSCR1GxNJ3SY+6jfxSf1mHqIkW7j42VYuJE39xIUkQrqNh7otXGh28VHwWhyeYbHxRioHrydx8EYyB2+mxOCN5Bi8lsTBS4kcvJrMCf02LHiQA/U2PsT0vTfT9+ehbmMTG3ioo6LboutNt23kEbpf+Nzp+ScSyZZEItmaRCQ/JRPJtlRItqUHlHtyoNrX9tzvmvSmB69a0XtAzbL2jaULm5E7CzIayxakoWxBCsoXJKF8QSIqFvJRuZCHyoVcUrmIh6rF3J9VL0lAyLcJqP42ATXf3VW7NAEhy7ioXc5FzXI+pD8mY/a9HDwfx8HbaTEYnxqDCWlULN5Oi8VbqTF4PTkmlPixCWyMz2aF3lu0Jg2CFSkQrkyGcAWVBMGKJAhX8CFcwfsFLoQruBCubOIHLhH+wEPIKj5EqxMhWp0M0ZoUCH9MI8IfM/zqba2g2N3xzVBufq/bDD04/Rd9pKxc1CW/el4b3Pm6GW7NSG+4NSO1sWR6SmPJ9KTg7emJwTvT+aR0Oh+l03mkbAYXZTO4pHxmAiq+ig+p/Doeld/Eo4rKT0DVrGh/Dhc1c3ionsNDzYIkCBYlY2oeB6/yOXgnIwbvpsfivYy4iFi8kx6L8amxeD0lJnTPfymRhWuf81C/Ihu1SzIh/DYDgiVUOgRL0lC7OAW1i5JRuygJtYsSUbuIj9qF/FCsWchDGJ/ULOCjegGfVC9MJNWLkoLVi5IbqxenNFYtTgvUfpfZKFnZEpLVefsY5neaTxPJ96+G8lkdPy+b0dZWOa0lqqfloPLzLFR+noaqqSmo+jIR1V/ySO30BAimxxPhjDiIZsZBPDMWdV/Fop76OgaSb2IgyY+BND8GMhpnxUBGzab9OHGQzI7FjE4cvJEUg/cyY/F+Zhw+yIwNoevvZsRhfHos3kyNwctJMXg1lY2Sz2Kh/o4L6fwE0D4eWQg3HBcmQLogAdKF8ZAsTIBkQUI4LkxAfQgXdQu5EC/kQbwwkYjnJUM0Ow3iOZmon9sMdXNzIZjbOiBenPdDwQfdEps2xl9N0r9zI5pc5UuTOravmdrpg9pP22+vmdjqhvjd9Iq6l+MFotExXuEoDgQj2UQwkg3hE2wiGM4CJaSGsSB6nAVhBF2mxNTQ8LJoGAua0Sx8l8fBaykx+DArFh9kxeHDCLpMkz8hPRZvpcXghaQYfJDGgXgkC/KnGNQ9waA+hAXJCAaSkQwkf2Oh/m8sSJ9kQfIUC5LRbEieZkPyDBvSMWxIxrEheY5NJC9wIH05plH1bmy9YkpSuWxG7h3ZV233y+fkfVH9Vbd7ovmM3gGi6/9fYvS5vumbSUYybdSjmN2yQYy3fhBD6h5mSN0QBnWPMKTuUQZ1jzGoG8qgfhiD+uGRxIxgUD+SQf0oBpInGUieYiB5moFkLAPDBAZFzzJ4KzEWE5vFYWKzWHycHYeJ2fH4KDvc+unt592sWIyNicG6wSyYJjGQv8hA/lyY4jkGinEMFGMj/vfxFNQYBopnIp5moHiSgWIUA8VIhsifYIhiGBPUj2EuqJ5n/mG+TOjR+vd6imma0H+2TFs/8sOd/YKVD+Xqv21xRzM3GfIFfKJczCXK7+KhWhZHNCvjoF1N5yXSeY9x0G+Oh2FrPIzbE2DcyYVpDw/mvXyY9yfCXJgM8+FUmI+kQX84BaZDPPw4gsGbsWx8mhuHz3Lj8GnzeExuHodJOfGYmBOPl9lsTO/Ohu4oH9YLfJhP0P8sKB7GvfEwFiTAuOfX0PcNv7dpNw+mPXyYdvFh2smHcQefGLfxg6YNfNg2JZv1W7MfoDkoWcvE/kda+a9dAETm4Kh/uu977fYBkGzr65Pv6k2Ue7tDdaAL0RzOg/ZYe6I/2Q760+1gONsOxuIOMF7oGKl2e8B89R6Yr/eH5cZAWG49DkvJKFhKRsN8azRsZU/DfO0BrB/Dx/t8Bu/zOZiYEoOPUmLwHo+Nt2IYzOnHhex4HlwV3cPV89XOMF7sBMPZTtCf7gJ9UVfoTnWF7mR36E72gu5Eb+hO3gPdyb7Qn+oX0R/6Irp+D9Gf6kn0J+nrO/mtRe1gPdn6wq999v/4NvH2+5Jl27tK5QWdoSzsFtQc7wFtUc/Qf7BmKO4B44UeMF7sDtPlcPluvtoD5ms9Yb7eC+YbvWG5Eelbof0pt+6D5dYDsNwaCOvtwTDfegy2ilFwVQ/BrR/bY+OzqZh3Dw+ze/Kwcngazs6nMxsegKNiAIzX+sB8ow9MV/vAdKUPjJf7wHjpXhgu9oXhQj8YLvSHvngA9Ofug/7sfdCdGQDd6f7Qne4HXVFf6Ir6QFfUC7qibkR3qhPRnWxLNCdaEtu5Fh77mVb9aaJ/7Rb7//0CRE9CsrNHL/W+9g7Z3uZQFuYQ1dEcojnRHNpTuUR3piX0Z1tBf64VDOdbw3ChNYwXW4VdagXj5VYw/cLP2660hulKWxgvt4HxSh5clT0irborDJe7wVHWC57qXjBf6Qj9hXYwXuoA48X2MFxoD31xO+jPUe2hP9sBOupMHnSnO0Bb1B7aonbQnGwLzYnW0BxvCc2xXDqjAppjOURzLJtojmURzbEMojmWHrSfbxY0FbV8JZT436Pr97deuWji67f37Snf3cEh2ZED2e4sIo92IxxMIyr6DYrDqUR9JJWoj6YQzbFUojmeQrQnUqA9kUK0J1OgPZncBF2PSoX2ZMTxJCjprITDydCeSA1RH0mG4mAi1EdSoDmWBs2x9BD10VCfCkJ9K4fTaT8LVIei6DmFvulBlAdTifIAnSkRQWdN7E+mMyfC2+jPD6YFrUXNg/rj7V/+wyQ+eqFK1j7JE63vUC9cmwPB2sxG8fo0iDcko25jMuo2JaF+cyLqt/Ah2cqH5CceaJeAdBuPSLfzIN3OhWwH7x/t5EEeQX8u3c4P2xY5TuhYiQhNuaDTLv4BH1L62p9+iQfJVh6RbuVBSs8lhA/pT/T1dPpGaOoGZDuSIduZSqQ7M6AvbOU2HOv27xnWiybt/zVGW73w+y75gqWtULog01e6IK2hbEFyY/mCpGD5wkRSsZBPKhbxSOViLqmiliSQ6iVc2m1Aqr/louY7LmqWhtUu46F2OcWH4PuksFD5nwbhynQIf8iAcFXmXauzIPoHGRCtptIhWpUK0aoUiFYlQ7QqkSIi2g2wikeEq5viE1FomkpiUPhjUqNobUpAtC7Nq9zSHKrtHQ6FWvt/8hHyn12ogskPcGsWddhfMbslSr/ORvnX6SidmYo7M5ODd2YmhpR+xQ+Wfc1H2Tc8lM/ikYrZPFTM5pKquVxUz+eiegEt2/mooeX84iTULkmG4LsUCL5Lg3BpBoTLMyH8Pgui77PDVmRDtLJZRA5EP+RAtDISf6DbsyFckQXhCrpfOoTfpxHh8lQIlqUQwVJ67CTUfptMar5NCtYuSQrWfpscFHybQkT0/b7LgnBZc0hXtystX9m53R8y8dFq9vjEvPgbX3V8rzq/XWH1V21qK6e3tFdOyw1UfpGDqqmZqPk8GYKpPGft5PigYFIcBJPiiHBSLMSfxEL0SSzqPolBfYTk4xhIPomYFAPppBjIPglHuiydHPFpDKSfxkI2JRayz8OkU+Mg+yIOsmnxkH4ZMT0ekpnxkHyVQCRfJ0CSzyWyeTyndG4S6uZkQjw3B+J5uUHRvJYu8cLW9fWL2xdVze8w80p+h9BAdvQ3+581vP/Y9mjy6QmMGzeOU/xZp8ybn/ZoVTm1R9eyiZ0G1H7Q4cHaF5MekA1kHazry4KoHyso6s8i4vtYpO4BFuoeZFA3kIHkYQb1gxlIhjCQPMpAOpSB7PGIYQxkwxnInmAg/99FVVOKEQyo0LYnwrMZFMMZyIcxkA+lWJA9xiKyR1hEOpgVlA9iQfk4q0Q5nv+EZEbLAdIZefeLZ3frXjO3a5sr+b2yj08c8fMXDP6wSY9ebVrVFeczMf+sulO/y16iHc+G4h1Wo+JDFlFOYhHlZyyi/IIN1XQ21F+zoM5nQT2HBc18FrSLWNAuYaD7loHuOwbaZQx0y1nQfc+CbgUbemplJEbXV7Bh+J4Nw3I29EvZ0H/Lhn4xG/qFLOjnsYh+FovovmIR3TRWo/5TFnRTOMfEE5mfkxz9LDT+nz5L09f9oZZD3QlM+ELQE1MtyHpDvygJkkWJwfpvk4h0WRJkK5OIbE0SFOuTodyUAtW2VKh3pEOzOwvavc2hPdgaukPtoTucF0GX20B3qCV0h5pDV9gMuoNZ0B3IgnZ/VDa0+6hmIbq9zaDbmw3d3izoCjKh251OtDtTod2WDM0WXsC8ngvdD7wV9BzxDhMbOu8/4h/R33p1o61fuqrN9fo1LSD+sXWjdHM7yHa0I8qC9lAd7ADNkQ7QHs+D7lQn6M90heFcDxjP06qzP0yXH4Dp8kCYrgyE6fKDMF26H6ZL/WC6eA+MoYHqHjAWdw/toz/TA/rTPcPV5ynaLdAHuhP3QHu8D7THe0N3vBd0x7pDe7Qz0R1uR7QHc4Pa/Rkw703VqXflhv8zoN97UOO3JvBfeX303ijf1LO9dGMbvXBtNiRbmwVlu5sTxYFcojrckmiOt4L2ZCvoTreC/gytcFvDQNEq93ybEOOFtjCcbwsajefbwVDcDobz7WEoDtOf6xCqTvWhLw90DFeoRR2hPUXlQXOiPTTH20FztA3UR1oQ9ZEcaA5nE/WhDKI+mBa0n8z06wpznwy1+j9CZfqvJLvpPtHE12/u01G6sY1BsC4TdVtTg5LtKUS2O4XQgWdaKaoKk6E6FB4cVx+JDn4nQ3Msgg58H6fVaVQqNMfC1EfTEHIkjc4AgPpwGlTUodAXBqAqDA/Chwa+aUW6PwnK/Uk0hqvU/SlB24mcBs2Rtk//1yQ+ehFK1vaNFa5pWyFYnY3aNamNwrXJEK+ng+J8OrBM6rfwiOQnLpH+xCPhipZLZNt5RLaD4kckEtnOJl8G2JlCZLtSiIzGqB3JRBaSRGQ7Eol0OxXdv2lMhGxnMsL7p0Ff2NKsPtS5cyjx/w23mqYfRLSy4xTBslyULUzzVy5OCVQuTmysWsIPVn/HC1Yv5QZrlnGDtcu5wdrvuUHBCl5QsJIXFP6QGBSuSg4K16QERWvSg+IfM4PitVlB8bpmQfF6Kico3tA8KN5AY1SzYN2GrGDdhsxg3fq0YN36lGDd+uRg3YbEn9VvTGys35gcEG9I8am3N4NyZ9udTc812mD+K2LB0ge41YvaHa1Z0Byls9JQNjsZ5bOTUD6bj4o5PFTOC6uaz0PVQj6qFyWhZkkqar7LQO3SbNQuy4Hw+1wIVrSEYGVriFa1hnBVGwhXtYZodRuIVtPYCqLVLSFa3QKiVc0hWpUN0Q+ZEP2QDtHKVIhWpEC0IhmilSkQrEiD7MdsqDa1qSxf36tlKPH/DU8zTVtL9MmmalW3xLLZ7eaUzmpRUj23hVAwr7lEuKCZTLSgmVy8KEsRVbc4S1G/uJmi/tscheS75grJ0tywZbkKyfKWCumKlgr5iruRLstX0m0tFPKVEStyFdIVzSm5bEVzuXRFc5n0++Yyyfe5UvGyFsLab1uW1Sxts65qebfWoaT/t9ximib+l62JjlqVzOvbvDS/T9uSOT063F7QLa90TteOTV0PrbfvWDa/facb+RHzW3S6Mb99p7L5LUJK57QM/ZzG0jntwxa371jaxO0FHfKokjl5HUoW9+hQuqBP2zuL7sk9vuJPVJn+Mpn/yvofqRqks3yjv43/ymf50+1DP2xIPsOmj5z/Ef9t9/M/XSv464T/ysBfGfgrA39l4K8M/JWBvzLwVwb+xQz8LzE2OCyOyu+LAAAAAElFTkSuQmCC;" vertex="1" parent="1">
          <mxGeometry x="120" y="472" width="44" height="44" as="geometry" />
        </mxCell>
        <mxCell id="guoJjqlwkhtF7B335C00-34" value="" style="shape=image;verticalLabelPosition=bottom;labelBackgroundColor=default;verticalAlign=top;aspect=fixed;imageAspect=0;image=data:image/png,iVBORw0KGgoAAAANSUhEUgAAAF4AAABeCAYAAACq0qNuAAAAAXNSR0IArs4c6QAAIABJREFUeAHt3Ad0VNX+L/AzM2kzk94IoUPoVSk2EFQE4aIogr0jdhQUEQE19KaAICAdpIcWOoQSeg2kJ1OS6b33ksns73t7iuR6ve/9ve/6rt4la33W75yTOWfO/M7OyfntvQeG+evfXxn4KwN/ZeCvDPyVgb8y8FcG/srAXxn482UAAOuP4M+XuX/hjIF8NlDAofFf2P132QVgWOFzKuD8Lm/wnz4o/YBNzwFAHJTgQgMedOD/HQMS0YTBgMTf4ud9deDT/aDT8X8GHR8aDQ9KJRdAfNNz+q9dDpi2P9ZgXL+hwbjmtF+/4oZfv/ROg35JWYNhYVnAOL+swTCnPGDIL28wfF0eMMwsbzDOKA8YvgzTTysP6Kc28Xl5g56aWt6gm1beoI36srxBO73cHzKz3K/9ptyvzS/3a+eU+1Vzy3yqBWUe1aIyn/LbOx7FsptexYpir2LlDo90xYvRxP+ykUS3/6li9LYSNP04Mej4IdhonoOA7nP4tR/Br30Hfu3b8GveDi/r3odfOxF+3WT4dVPg130Bv25aOGrpPpPh13wIv2YC/Oo34FO9BJ9qHHzKZ+BTjoZP8SS8iqfglY+GV/4MvLKx8MpegEf6CjzSN+GRvguPZCI8kk/hkXwBj2QmPJJZ8MsXIKBeDK/om7XR5P6pkx9Nule5dHCDaVHQq/4UHsUbDV7lCwGvckzAq6KeD3jVrwe86o8CXs30gE+7IODTrgz4dOsDPt3WgE+3PeDVbQt4tVsCXu26gFezIuBVzw94lV8GPMoPAx756wGPbGzAIxsV8MiGBzySoQF3/WMBd93QgFs8POAWjwy4RKMDLtG4gEv4SsAlfCvgFLwXcAgnBhyCyQF7zWcBW9XkBlvlJw1+0cfwVb3/Dk0+Csb9ee/59KmFfohGXf4Ov+pjuCQvNoRb4gh45cPhlT8Br3wUvIpx8CrfhFc1ET7Vl/CpZ8OnXgSf+jt41cvgVX0Hr2oRvMrZ8CqmwyOfBI/0HXikL8MjGQN33Qi4xY/BJRoMl3AQXIKBcNYOhLPmYTirh8BR9RgclcNgrxwBe8Uo2Mqfhq3sWVhLn4P19vOwlDwH442nG223noLr9rhKafEbCdGW/6eNhqoPEv31z4t89cPhFA4MukX3wy3uR9x1/Yi7nsb+xF13H3HXP0jc9Q8Td/2jxF0/jLjrRxJ3/SjirnuSuOtGEbd4BHGJHycu0SPEJRhInIL7ibO2H3FW30McVb2Jo7IXsVf0JPbyHsRe1pPY7vQk1pKexHqrF7Hc7EUsN3oT87XexHy1NzFd7kOMl/oQ48U+xHChNzEU9yGGc72I/mxPmM/38VsvDegdavW/eCD4U1yE6D3SUfJkpru0t8pd3g6O0lZBZ0VLOCtbEMpV1QLOkFw4q3LhrGwS6XJFCzjKc8PKcuEobQ77nRzYS3Jgu9UMtpvZsN3IhvVaNixXs2C5nA3zxWyYL2TDVJwN09lsGM9kw1iUDcPJbBhOZEN/PAv6Y1nQH8mE7nAm0R3OILpD4WXt4UxiPNEM1lPtHg4lPp/5wzz2/uaLLj6eF++/2v6252oO7JfSg86raXBcSyXOa8lwXg9zXE9CyLUkOK4lwXktEY4rYfbLibBfSoT9Ih/283zYivmwnuXDdoYHaxEfllM8WE5wYT7OhfkoF+bDXJgLuTAd5MJ4gAvjPi6MBVwY93Bh2M2DntrFg2EXjXzod/OJYU8i9AVJxLgvGZZD6Xbb0ez2f9oWHzrxyB+owLk2sxvO5cB1KsXvLkoi7iI+3EVc4i7iwl2UABd1ioqH62SY83g8nMfi4TwacTgOzkNxcBTGwXEgDo79cXDsi4N9bxzse2JDbLtjYdsVC9vOWNh2xMK6PRa2bWHWn2Jh+SkONFpp3BYPy7YEYtmeAOsOLkzb+X5nQQo8hZlH/7RJ/2V1al3GpDYWZdxsLEpE48n4xoZTcQicjCWBk7EInIi563gMGo7HIHAsBoGjMWg4EoMAdSgGDYUx8Bdy0HCAg4b9HPj3ceDfyw4rYMO/mw3/Ljb8O9nw7WDDu50N7zY2vFvZ8G5hw7OZDc8mDjwbOfBs4MCzPoa418fCvT6WuNfHBRs2ceHfnqx1bY/rGf21Dndp5MdEHxKi2/+QMXpvpydnKVmb4qpalePUbsryXOw0ILAp5rB7LmO3TmdgnckQyjKTQcgMBpYI85cMQqYxMH/BwDyVgflzBpbPGJg+ZWCcxMA8iYHpYwbGjxgYP2Bgep+B6T0GhncYGN5mYBzPwEC9ycDwBgPD6xGvMTC8xsD4GkOMbzDE+CYDx3uM1z+LddW9Je1vqjPzM4wn5zWXX1qQlp9/t2uj6ef6QyW+aavwKH58PmjbtLPRtu5Go2VVfdC0wBA0f6RqNI2r89cMdrtL+sN1qzdx3+pGXDc6w3kjD87r7eC81haOq23guNoajqut4LjSEvbLVAvYL+fCfqk5rBdyQuwXc2C/2AzWC81gLc6GrbgZ7BeawRZabxZat53Pge18LmznW8B+vhXsF9rAdqEd7Bc6wnGhKxwXexLHxb7wXB/Y0Fj3lLRB/pasoX66sUG2RBaQL73TqFh20F47b6Ly6lIuTfYfNvn05Br0P3zbaFwGv24OGvTT0aCbjAb9h2jQv4sG/dvwG99Cg/lN0mB+k0Y0WN5GwPIOApb3EbBORMA6CQ3WTxGwfoaA7bNwtExCg2UiGizvIWAZj4D5VTSYn0eD6Rk0mJ5Eg/EJNBiHosHwCBoMQ9CgfwT+kEfh1z0Ov/YJ+HWj4Nc+DZ9mHLyal+HVvEm86nfgVU8kXtVn8MqnwiufAZ/sa3il38ArzYenLh9eyTfw1U8/KN38B3y2j1aoftXicQ2aufDIPm30SN/2e6QvN3qkYxs90tFBj2xUiFc6mnhl4+CVvUa88veJVz4FXsU38CoXw6daCZ9qLbyqTfCqtsCr2hqOyk3wKtfCq1gJj3wxPLJZ8Ehpyf8R3JK34K57EW7xM3CL/gaXaDhcoqFwCx6DSzAUTqp2GFy1I+CsHQVnzdNw1oyFs+YFOKtfJY7qt+ConkAc1e8H7dUfBu3VE4O26omNtooPG63l7zVYSt/yeWvehrvirdnhVn/39vMfv+VEfwX90g9P+qRvwiEYG3CLR8MtfgLuusfgrhsCd/3gEE/9I/DUDyUeyQh4JKPhkT4Pj+xVeGQT4JF9GK5K5Z/BI/scHvlUeGRT4JFNhltKK9/3womufwXuunFwiUfDKR4Bl3AoXIIhcNYOgrP2IThrHoCjOqLqATgqH4S94iHYKwbBXv4wbGVDYCt9DLbSobDeGU6st5+ApWQELCV/g+Xm32C+MQrm6yNhujYMxsuPNpquPALrtUcU1uIhqX+YW0406dbSN1LtdwYr7GV9YS/vHXRU9ISjsjtxVnULq+5GnDXdiJPG6m4ILdd0g7O2R1hNLzhr+sBZcw+cNffCWdMXzmrqXjiq7oGjqg8clb1Bj2sv7w57eTfYy7rAXtoZtjudYbvdGdbbnWAt6QTrrU6w3OwEy/Uw89XOoExXusB0qQuMF8MM57sQw/nOMJzrTPRnO4Wd7kh0RXlEV9Qhoh3RnmwL56UObnNx1/sjif/PF1bRxDuKh2RaLnbSWC+1gPVKTtB2rRls17OI7UYWsd3MAmW/lfkrMmC7FXEzAzbqRsT1DFivRVzNgPVqBixX0mG5FGa+mA7zhTSYitNgOpcG09k0GM+kwXg6DYaiNBhOpUF/Ig364+khuqPp0B1Jh/ZwOrSH0qEtTAvRHEyD5kBq2P5QJFq6fjCVaAtTifZQKlxns1yWotyHQon/o1W07lNtrzhPNYf5eGaj9WQ6rEUpxFaUAuvpZNjOJMF6JjGCD+sZPqynKV5YEa1EebBQtBo9yb1bkR7jwkwd5cJ0hAvTYS5Mh7gwFnJhpBXqfi4M1N4EGAooLvR7uNDvohKg35kA3Q5u2HYudNu40P4dXnh9Ow/a7XzodvCJfmci0e9Kgm53EtEVpMJ6OFPnLmqV+4e51YROJFKhNhzLm9xwIhf2wtSAszAJzkI+HIU8OAu5xFmYAAd1MD7sQDwcVLQCjVahtBItiIWdVqFRtBr9RUVKq1LrtohQNRoLy9ZYWLbEhG2OhWVzLMybYiLo8q+Jg3lTHMyb42DeEg/zlgRi3poA809cYt7Gh3F7UoNnXzo8+3N++gPdZuiANR1HDQ/rFQ9hYgInMg8HDiXBuz8h6DsQT3wHYin4DsSE+Gnc3xQH3v0cePdx4N3bRAEH3j1N7ObAs4sDz0522A42PNvZ8Gxjw72NDc9PHHi2suHewoZrc5h7ExuujRy4NrDhXB+xjg0ntZYDx5pfWM2BY3UsHGtiiWNNHOw/xjd6NvAQ2J5Sa97EbRVt7ZGK9j9zn48+QtKTKSgo4EC6OMerXdbWc733wIYfEkq8+Sy4v2GC7q8Z4vmKIe6vGLhnRsxg4J7BwDU94ksGLmoaA9cXDFxTGTipzxm4pjBwfcbAOTnM8QkDx8dhzokMHB8xsH/AwP4+A8f7DOzvMbC/y8D+DgP7hCbeZmCnxjOwRdH16GveCe/v+JAh9LjOSUzQPYWBdz5b5dyVNdZ6bVpbT/HUluLjK34ep6UNLtroaB5+93/RN/NIVgxo1K9Z51etLPVrvtcG9QttjcZPjD7Z01Zf5SD4KvoSX3k34ivvSHyl7eC73Rq+2y3gK8mF71Zz+G7kwHu9GbzXsuG9lgXv1Ux4r2TAcykDnovpEWnwXEiDuzgV7nNUCtxnU8IxunwmGe7TEXQ5JAnu0xF0/SxF902NSIe7OBPu4iy4i3PgPt8Cngtt4L7YgbgvdYH7cm/ivnw/3CXDnAHRa/qAYKrNWzPL4KqeXe0Vz9ntE+aP/N0T3fQNoklv0KyY0GBY3hDQL0GDZg68yi/hUX4Gr+IT+FQfwqd9h/h0r8One4n4dOPg042BT/d0iF//NHz6Z+DTj4HfMBY+w3PwGV+Az/gi/MaX4DO9FIp+w4vwGZ+H3zgOfuOz8BtGw28YBb/hCfj1QyPV6SD49A/Cp7sfPt0A+HT94dP2/ZlX0w9ezQB4NffBq34QXvVAeFVD4FUNhUf1BLzKJ+FVjoFH8Tw8ilfhlo+HW/4eccs+hks2hbgk0+ASTYdTNANO4Qx4xDPhl3wFf/10eGqnfEdz07S7pGmu/m3L0duLVz7rsYBufqNbNh3OuokNrvoJQY/09aBH+gLxSJ8lHulo4pE+Ca/sSeKVjYZXNiZcrcpfgVc+Hl7Fh/AqpsCrnAmvci68yiXwqpbDq14Fr+pHeFXrImgVuwZe5Q/wKpfDq1gMr3wOvLIZtDqGR/oBPJK34JG8BE/9WHjqnoKnbiTc4uFwi4eGiR6Dm1aywmFwC5+AWzgSLuFTcAmegUswFi7BC3AJXoFL+AZcgrfhFLxHHIIP4RRMJM7aT+CsnUQcVM1kYq/5JGir+iBoLZ8QsFWMDzQIJ8BV/ton4eT/jhXtz4kXjz/uEb0Je82LDU7hOLiEo+EUjoRTNIy4RI8Sl2gIcYkehkv8MHGJB8NV9whcdUPhqh8Bd/1ouCXj4Ja8Ard0PNyyD+CWTYJb9jnc8i/hls+EW/51mOwr0Ivrkk2DSzoFLgmtXt+Hq348XHWvwFX3HJziZ+AU/Q1OIR1afAxOwRA4BA+HxlwdNQPxs+pBcFQNgr3qYdirhsBe+SjslUNhqxwGW8UI2MpHwlb+JGxlo2EtewbW0jHEeudZWO+MJZbbY4ml5FlivvU0zDefhPnGCBivPd5ovPoIHDcfqftdK9roLcZ1c2SO685AheXmvbDe7hO03elNbKW9iK0sNN6J0JhnRQ84Kpuo6g5HSA84qnrAUd0TjupecFT3gaP6HjhodVrdD47q/nBUD4Cj+j44qqgBIfbK/rBX9oW94l7YK+6hlTHs5b1gK+sJW1kP2Eq7w3anO6x3usF6O6KkG6y3usNC3ewOy43uMF/vEXatB0zXesJ0tSdMV3rCeLkXjJeonjBe7AnDhZ4wnO8BfXF36Iu7QX+uK9Gd7Qr9mc5Ed6YT0Z3OI7oz7YnudFu4rrZ3GYvzhoRafQHz75+ZgEi1pjvTs73jQp7acKYFjOdygqbzzYjpQmisk5gvZcF8OQvmK2GhcdBrWeHx0KuZsNDKk7p2l/laBkKuZsAcdSUD5ssZMEXjpQyYqIsZMF6IOJ8BQ3HEuXQYzqZDfyYdhjMZ0J/OgK4oA7pTmdCdzICWOpEBzfFMaI5lQnM0TH0kE+rDVAbUhzKhPpQBVWE6VAebOJAG1UEqFeowoi5MJepDqURzJJ04zmb5DCdyQn9o8bskPvKsXlXQLc5S2L7acCAX+oPZjYaDGTAUphHDoRRiOJwMw5GkiEQYjibCcIRGfhM8GI78Pf0RHvSHmzjEg44qjDjIg+4gD9oDPGj3U1xo9nGh2csLURdwod4TsZsL9S4uVNROLlQ7uFBS27lQbotKgOInbthWLhQhPCh+4kHZ1DYelNv4UG2nEqHemUjUu5Kg3p1MNAUpQfXedDiOZZvNh3O6h1r879WVEL2ingMdF3oOtoRpZ0aDZXcqzLuSiHlnIjHv5FEw0THMHQlh2+NhitoWD2NIHIw/xcG49S7D1jgYtkRsjoNhcxz0m5rYGAdd1IY46DbEQ7shLmx9PLRR6+KhXRcPzbq4sLVx0ET9GF2OhWZtVGRb5PXadXGh/UPHo++xMR66jVxoN3OJbgsP+q18ot+WBN22lAbb3iw49ueeCP9x/fu5oXTbv+Uf/cNaVZUfRx+dnAX3ZAVP5N7xHkmF8yA/6D7IJe4D8XDvj4NrX+zf2xsD194YOAti4Nxzl2N3DJy7YuDYxblrJwf2HRzYt3Pg2B6O9m0cULafIrZyYNvy96ybObBuamIjB9aNHFioDU2sjyzTSK27y7yOg7AYmNc1sT4Wlg1UHCyb4ol1cwIsW3hB144kBPZlWmz72vejCcbxEfHRh49/S8JDB/2VadWm3UxX34qYO565DFxzmaB7LkMi4J7LwD0nzDWHBdccBq7ZTcxi4PoZC858JuwbFpxfs+D8qomZLDioGSw4pkd8yYJ9WsQXLNinsmCbyoL9cxZs1JSIz1iwfforJrNgm8yClcZJ4WW6Tl9r/4wF+xQG9inh4zm+YMH5JQPndIa4vmbgymeC7nkMfN+zNfYNMU/8Msn/tuRHn2ac8qXdPeolX/hVS7YFlPnnYHz7tK/8/hrvyXbwHGtOPIcziOdQKvEUJsNzIBGefXy4C3hwF3Dh3sOFe1cC3DsS4NoWD9dP8XBtjYdrSxxcm+Pg2hgL14YYuNbHwLkuJtSPQvtSnGs4cK7mwLmKDecPbDhWsuFY8Qvfs+FYzoZjWZh9GQf25WGO5ZzQdjv9GV2m6OvpMeixKHrcVbSPhgMH7b+h778+Fs6NsXBuoueZAOc2Hpw7kolrdxpx7c0Ouva3hOtcd0VjzahTnvL3ztsrpu6xV077xlw+NdRf/8uL8ZvXo0l3KxbPDJiW2RuNS+BTzYFX9TV8qqnwaT+GzzSB+EwvwmcaDZ9pOHymIfCZHoLP9AB85gHwmfvDZ+4Hn6kf/JS5P/zmAfCb7oPf/ECY6SH4QwbCb4p6CH7jg/Ab74ffeB/8xv7wG+6Fz9AHPn1P+PTd4dN3hU/XCT5tHnza9vBp28GnaQOfpjW8mlbwqqmWYapW8Ia0hkfZBh5FO3gUHeBRdIRH0RluRXe45b3hlveFW34/3LKBcMuGwC0bDpfsSbikz8IpfYk4pW/CKX2fOMWfwCWcDKdgSoiv/gv4pZ/77DUfrRKLJ/7cn/Pbkx6Z2uCRzpzcqJ0Nt/RLuCSTAy7Jhw1u2dsBt+z1gFvyUtAteR4eyVjikTxDPJLRxCMZBVq1htGhvTHwyJ6DR/YyPPI34ZG/C698IryKz0LdDF4lHW+lXQ4LQuOuXuW3CPsuXNEqF8GrmAePcha8ihnwyOmQ4CfwyN6FR0anXr8Ej3QsPJKnQIcT3ZKhcNc/Anf9w3DXD4K7fiDcdQ/BXUfjILjFg+EWPxKqal3i4XCJ6TjtU3CJxsAleh4u0ctwiV6HUzQeTtG7cIo+gFP0MZzCScQh/BQO4WfEIfgMdsGnQbtgUsBeOzFgq3m/wVY9ocFW9VbQI3wTzqoXVtKERxvu/zj50R2sd8a38dW/Y3QK34S99tVGp/AlOIXjiFP0NK0WiUs0nLjEjxGXeAhc4sHEJX4YrrqH4a4bHBlnfQzu+uFwS0bBTWf1Sl6AW/oG3NJ34JZNDI+nyuns36/hUcyBhyZYsQAexcIw+Ty45XPglufDLZsJt+wLuKWT4ZJ8CJdkAlz1r8FV/wJcdWPgEj8Jl/gJuMSPwyV6FE7hEDiFD8MpHASnoIlaWtUOgaP2UThqh8JROwyO2hFw1PwNjpon4ah5GvaaMbDXjIW9+nnYq1+Avfol2Kpega3qVWKrfBW2yleJteIVYi1/kVjLnoOldAwsd56C+fbIoOnWsKCv6nG/o3RQeLQKv2H+JYqHxNCr5Cwb/pG3eijMtx9utJUNhrV8ELFVDCS2yoeIvfJB2KruI/aqAbBX0YqTVp79YK/uC3tNXzhC+sNROwCO2vvgqH0ADsFDcNJyng5MCx6DQzgMDuEIOISj4BA+BYdwNBzCp0OcwqfhpF0RgqfgEIyCQzASjtonYK8dBnvNY7DXPAJH9cNwVA+EvepB2KseoOcDW+UAhCvd/rBVRJT3h628H2w0lg2Atew+WMvuh7WUegCWOw/CcuchWG5Tg0LMJYNgvvUwzLcGw3xzMEw3H4bpRsT1QTBeG0iM1x6C8er9xHhlADFcuZcYLveG7mL3gO16N1iudlsSavWRXP6PWn008YbiPj9Yr3SF4VKHgPFyB5iudiDma3nEfD0P5hsdYb7ZEZZbYdaSjgi5nQcrdSfMdicPf68jbKVRnWArpTqH3ekCa2kXWGkM6RqOt7vAGhrMvjugbSnpBAsd1KbvT8/jZvh8Qud1oxPM18NM1zvBdK0TTFcpOuDdGUbqMtUFxktdYKAudoHhAtUZ+vMRxZ2hL+4E3TmqI3Rn86A70wHa0+2hPd0O2qI2Ea2Ipqgl0RblQnOqeUB3pjl051oeCyX+txRV0UJJdbjTZu3xtlAfax7QnMiB9lQ20RVlQ3c6C/qzEeeyYCiOOJ8Fw4Uw48VM/BrTpUwYf0309RcyYbyQCcPFTBhoPP8LxZnQU+cizmZCT53JhI46nQldUcSpLGipk1nQnMiG9gSNWdAcz4LmGJUN9dGssCPZUB/Jgoo6nAUldSgTysKoDCgPRqVDeZBKCytMg6owjagOpUF5KD2gOpIB1bGc8/SWHb1t/w9bPBO61Uh3dF6o3NMO9dubB6Q7s4lsVwaR7Ukn8oI0otibShT7UqDcn0KUB5Khog4mhRUmQVWYBPWhxH9KFfkZjdHln19fmAg1dTARqoOJUFIHIvYnQkntC1PsS4RibyIUBRF7EiGndlN8yHclhsh28iHbmQjpjkTIdoSjdHsifrYtEZKonxIhoZquR5al20L7EOmOJEh3JBHZzuSwXSlEvjsVsj3pAdX+LKgP5u4Jtfjf0n8TbfHCtT2frl/bAZXf5zTWrMxGzcoM1P6QhtofUlC7KhmCVUlEsDoJwjWJEK7hE9GPfIh+5IWt5UG8lgvxOi7qIsTrElC3NgF1NP6qu6+tW3t3mR6nbi0vRBw6Lj02P+xHPsRRa/gQr+FDFLWaB9FqLkShGF4Whta5EK2i2yORLq/igv7s559HX7eGCxEV/lwkFOl7r0sk4nWJqFufjLoNyajfmIr6zekQb85s0Ba0gKagbbifvjjciP9HLT76ooJx4zhV33W8WLmwFUpmZXtL8jOCJflp5HZ+CrmTn4zS/ESKlOXzSVk+D1R5PhcVs7ioDElA5ewEVM1OQDU1JwE1c+JRMzceNfPiUTs3HrU0zouHgJqfAMF8LgQLIhbyIFzIh3BRIoSLkiBcTCVDuDgFwsWpEC75P0mBcEkKBNTiZAgWJ0UkQrCYD8FiHmqpRdx/tJiLmn/AQ82SEFLzLZ/UfpeIGmppMqlZnkJqlqcFa77P8IpXN4dsQzuJeFNeVqjF/9av80TvTVdnd+lZMbuDtGxmK5ROz8HtaZmkZGp6sOTz1MaSqanB0qnJKPsikVRM45PKaTxUfckl1dMTUDszHoKv4iD8Og6ir+Mg/iYW4vxYiGfFon52LOrnxEIyJxZSam4sZPMi5sdCFhIH+YI4yBbEh8gXJEC+MIoL+cK7ZAu5uIsH2UIepAu5dy3gQrKAi/ponJ+AupB41M2LR938eIjnJ0A8LwGiCOG8BFCCuRSX1M7loXYOn9TMSSTVs5NQOSs5WDErpbFydmqwanYGqZ2Xhdr5uRAsbmuvXJo37F9KerTFR/vgi6f1aVsxvdOKqqntheWTWvsrPm6B2o+zUfdRMmrf4xHRO/EQT4hF3YQYSN7mQDKeA+lbHMjeYkP+FhuKt9hQvskKUb3BAqV+gx32Ohvq19nQUK818Sob2qhX2NBSL7PCXolEuv7L5VdY0LzCgvrViKbLr7Ggfo0F1evhc6DnETqvt1hQjmdD+TYbigkcKN7lQPEeB/L3OZB/wIHsoxjIPo6B9JNYSD+NR/0ULpFPS4TsywyIpjWHcHqrgPirtjLRnA5bbuZ37BNK+m95mokmvGmMJp9uO/Nhl4zKD3p0rX0vb7h0QqvhyhGxE6X3s9TSfgzq+zNByf0MpA8wRPogA+lABrLBDGRDGCgeZSB/jIHicQbK4QwUTzBQjmSgGsVA9RQD1WgGqmcYqMYwUD/LQD2Wgfo5BprnGWhejHiJgYZ6mYH2FQbaV5ug6/8Mff2LTbzAQEs9z0D7HAPtWAaaZxloxzDQPsNAM5qB5kkG6r8xUI1goBrOQPU4Q5SPMlAMZohiIAP5IMatGsXhLPQBAAAWUElEQVSer5uQPVT2WYcRgik9epVP6ZUdzVvBuH/TSFR+PsP+5cE0c+K6aj6Nu6P4kAPFZE5QOZVNVDPYRJXPIer5HGiXcKBbzoF+VQz062Jh2BTugzftjIepgAvzfh4shXxYDifBcjQZ1uOpsJ5Mg7WITv3LgPV0BmxnMyPocjps51JhPZcM69kkWE4nwkK/fFbEDbGeCk/5s4S+hJYA85EEmA7Fw3QwDqYDcTDuj4NxbxyMBXEw7omDcVccDDtjYdwRC+P2OBi3xUbGCGJh3BIL46ZYGDfEwrguFsY1scT4QwwxLIuBYVFMUDc7BpZ5MUrb0pjQLSWacIBhF/yWp5jojv+3GL3vC9c+male21ekXtcNsi2dAsodHaDe25ZoC1tDf7wVDKdbwlTcEuZLrWC51hrWG21hu9UhNKvXXtYD9vK+oanTjqpH4aihFekYOGpfhFPwBpzCCXAK34VT+B4cIe/CEVp/B/bat+EQvAmv9GU0KJ5Gg2wYvHWDYK/sB+udXqFxVxsdcy3pAuvNzrDcoLOF82C5lgfL1TyYr+TBfKkjTBc7wXS+M4zFXWA81w3Gs91hONMDhtO9oC+iesMQdboXjEU9YSjqCsOpzsR4Mg/6E+2CliOt4TzYymeM9Mf/LgmPXpDo18zlOwZ+oj3wMOSFA/3akwOhP/cQMV18gJiuDCDm6/0QGggvuQe2231gu9MHttJ7YC+7F/byfrBX3Beaq+6oHAx71eNwVI+Eo5r2j4yDo+ZFOGtegaPmlXAfSdUY2Cufgr1yNGxVY+ERPwevYCTkx+7DrdVdcX1FR4gKusJ5uw88gv6w3O4Ha0lfWEruhfXWvbDcost9YbnVD9Zb/WG5Sd0Py437Yb7+IMzXB8J8bRBMVwfDeGUIjJcfgeHSIzBceBT6849CX0w9Av25wdCfG0j0Zx+A/kw/YjjdB5qi7n5rcWeYz7TfTPMTfQSP5urfGqP3e+muLoe0hzpCdaxDQFuUB/25ToSW2nTuOZ2Dbr7WBebrXWC5GXGrS7gV0pYYKv+7wnqbdgd0C7Hd6QHKeqdnRK9QC7be7gFrSVeYbnSA/WYLCLekYOlQFsanMBjHMHiWYfAKj8E397JxfVEybJdzYQh1bXSG+VpXmK91g4m62j3sSg8YQ7MK7s4sMFzsBcOFXjCc7wV9cc+wc92hO9sNutNdoTvdGdqiTtCeyoP2VHtoT7Ul2pOtiPZkblB3sjnMZ3NrjZczk0LJ/62Pjv/TqxMqgRmwJLvybigOtIKiMKdRfTSbluNEe6oZ0Z1uBv3ZZtCfawZDcQ4M53NguJADI3WRagbjpSYuN4Pxly41g+lyDkyXc2G60gKGi81hOpeO2wsTMCGThZEMG+MSOHiJz8GLiRw8x+VgFMPCsxwGR9+PgelUCnRn6Xu3gr64FfRnc6E7kwvd6Vxoi1rcdaoFNCep3LATudAcbw71sRyojzULUR3NDnchHMmE6nAGVIfTifpIOtRH0mgM0mXHuRyl5li7NqHE/78+yfyzC0H/yNKf1W/vdE62qxUku5o1yvZkQrE3nSj3pxHlgVQoD6ZCVZgC9aEUqA8nh2iOJENzNOmuY0nQRNHtdDkaI9u1x5OgOU73S0b9Bh4+bcfBUyw2Xk/j4NUkDl5JZIe8TGMKB2Pi2Xiey8LNOXHQHkmC8mBy6DyUB2i3RjIU1L4kKPYlQ7E3TF6QDHlBEuR7qOSI6HqTSF9Hf16QTOR7k2lXCVHsSwsqD2TCdLyFVH+oR7NQ4n+3Fh/5i12/qety6cY2qFmdHRCuzYBwbRoRrUsh4vXJRLwhidRtSCR1GxNJ3SY+6jfxSf1mHqIkW7j42VYuJE39xIUkQrqNh7otXGh28VHwWhyeYbHxRioHrydx8EYyB2+mxOCN5Bi8lsTBS4kcvJrMCf02LHiQA/U2PsT0vTfT9+ehbmMTG3ioo6LboutNt23kEbpf+Nzp+ScSyZZEItmaRCQ/JRPJtlRItqUHlHtyoNrX9tzvmvSmB69a0XtAzbL2jaULm5E7CzIayxakoWxBCsoXJKF8QSIqFvJRuZCHyoVcUrmIh6rF3J9VL0lAyLcJqP42ATXf3VW7NAEhy7ioXc5FzXI+pD8mY/a9HDwfx8HbaTEYnxqDCWlULN5Oi8VbqTF4PTkmlPixCWyMz2aF3lu0Jg2CFSkQrkyGcAWVBMGKJAhX8CFcwfsFLoQruBCubOIHLhH+wEPIKj5EqxMhWp0M0ZoUCH9MI8IfM/zqba2g2N3xzVBufq/bDD04/Rd9pKxc1CW/el4b3Pm6GW7NSG+4NSO1sWR6SmPJ9KTg7emJwTvT+aR0Oh+l03mkbAYXZTO4pHxmAiq+ig+p/Doeld/Eo4rKT0DVrGh/Dhc1c3ionsNDzYIkCBYlY2oeB6/yOXgnIwbvpsfivYy4iFi8kx6L8amxeD0lJnTPfymRhWuf81C/Ihu1SzIh/DYDgiVUOgRL0lC7OAW1i5JRuygJtYsSUbuIj9qF/FCsWchDGJ/ULOCjegGfVC9MJNWLkoLVi5IbqxenNFYtTgvUfpfZKFnZEpLVefsY5neaTxPJ96+G8lkdPy+b0dZWOa0lqqfloPLzLFR+noaqqSmo+jIR1V/ySO30BAimxxPhjDiIZsZBPDMWdV/Fop76OgaSb2IgyY+BND8GMhpnxUBGzab9OHGQzI7FjE4cvJEUg/cyY/F+Zhw+yIwNoevvZsRhfHos3kyNwctJMXg1lY2Sz2Kh/o4L6fwE0D4eWQg3HBcmQLogAdKF8ZAsTIBkQUI4LkxAfQgXdQu5EC/kQbwwkYjnJUM0Ow3iOZmon9sMdXNzIZjbOiBenPdDwQfdEps2xl9N0r9zI5pc5UuTOravmdrpg9pP22+vmdjqhvjd9Iq6l+MFotExXuEoDgQj2UQwkg3hE2wiGM4CJaSGsSB6nAVhBF2mxNTQ8LJoGAua0Sx8l8fBaykx+DArFh9kxeHDCLpMkz8hPRZvpcXghaQYfJDGgXgkC/KnGNQ9waA+hAXJCAaSkQwkf2Oh/m8sSJ9kQfIUC5LRbEieZkPyDBvSMWxIxrEheY5NJC9wIH05plH1bmy9YkpSuWxG7h3ZV233y+fkfVH9Vbd7ovmM3gGi6/9fYvS5vumbSUYybdSjmN2yQYy3fhBD6h5mSN0QBnWPMKTuUQZ1jzGoG8qgfhiD+uGRxIxgUD+SQf0oBpInGUieYiB5moFkLAPDBAZFzzJ4KzEWE5vFYWKzWHycHYeJ2fH4KDvc+unt592sWIyNicG6wSyYJjGQv8hA/lyY4jkGinEMFGMj/vfxFNQYBopnIp5moHiSgWIUA8VIhsifYIhiGBPUj2EuqJ5n/mG+TOjR+vd6imma0H+2TFs/8sOd/YKVD+Xqv21xRzM3GfIFfKJczCXK7+KhWhZHNCvjoF1N5yXSeY9x0G+Oh2FrPIzbE2DcyYVpDw/mvXyY9yfCXJgM8+FUmI+kQX84BaZDPPw4gsGbsWx8mhuHz3Lj8GnzeExuHodJOfGYmBOPl9lsTO/Ohu4oH9YLfJhP0P8sKB7GvfEwFiTAuOfX0PcNv7dpNw+mPXyYdvFh2smHcQefGLfxg6YNfNg2JZv1W7MfoDkoWcvE/kda+a9dAETm4Kh/uu977fYBkGzr65Pv6k2Ue7tDdaAL0RzOg/ZYe6I/2Q760+1gONsOxuIOMF7oGKl2e8B89R6Yr/eH5cZAWG49DkvJKFhKRsN8azRsZU/DfO0BrB/Dx/t8Bu/zOZiYEoOPUmLwHo+Nt2IYzOnHhex4HlwV3cPV89XOMF7sBMPZTtCf7gJ9UVfoTnWF7mR36E72gu5Eb+hO3gPdyb7Qn+oX0R/6Irp+D9Gf6kn0J+nrO/mtRe1gPdn6wq999v/4NvH2+5Jl27tK5QWdoSzsFtQc7wFtUc/Qf7BmKO4B44UeMF7sDtPlcPluvtoD5ms9Yb7eC+YbvWG5Eelbof0pt+6D5dYDsNwaCOvtwTDfegy2ilFwVQ/BrR/bY+OzqZh3Dw+ze/Kwcngazs6nMxsegKNiAIzX+sB8ow9MV/vAdKUPjJf7wHjpXhgu9oXhQj8YLvSHvngA9Ofug/7sfdCdGQDd6f7Qne4HXVFf6Ir6QFfUC7qibkR3qhPRnWxLNCdaEtu5Fh77mVb9aaJ/7Rb7//0CRE9CsrNHL/W+9g7Z3uZQFuYQ1dEcojnRHNpTuUR3piX0Z1tBf64VDOdbw3ChNYwXW4VdagXj5VYw/cLP2660hulKWxgvt4HxSh5clT0irborDJe7wVHWC57qXjBf6Qj9hXYwXuoA48X2MFxoD31xO+jPUe2hP9sBOupMHnSnO0Bb1B7aonbQnGwLzYnW0BxvCc2xXDqjAppjOURzLJtojmURzbEMojmWHrSfbxY0FbV8JZT436Pr97deuWji67f37Snf3cEh2ZED2e4sIo92IxxMIyr6DYrDqUR9JJWoj6YQzbFUojmeQrQnUqA9kUK0J1OgPZncBF2PSoX2ZMTxJCjprITDydCeSA1RH0mG4mAi1EdSoDmWBs2x9BD10VCfCkJ9K4fTaT8LVIei6DmFvulBlAdTifIAnSkRQWdN7E+mMyfC2+jPD6YFrUXNg/rj7V/+wyQ+eqFK1j7JE63vUC9cmwPB2sxG8fo0iDcko25jMuo2JaF+cyLqt/Ah2cqH5CceaJeAdBuPSLfzIN3OhWwH7x/t5EEeQX8u3c4P2xY5TuhYiQhNuaDTLv4BH1L62p9+iQfJVh6RbuVBSs8lhA/pT/T1dPpGaOoGZDuSIduZSqQ7M6AvbOU2HOv27xnWiybt/zVGW73w+y75gqWtULog01e6IK2hbEFyY/mCpGD5wkRSsZBPKhbxSOViLqmiliSQ6iVc2m1Aqr/louY7LmqWhtUu46F2OcWH4PuksFD5nwbhynQIf8iAcFXmXauzIPoHGRCtptIhWpUK0aoUiFYlQ7QqkSIi2g2wikeEq5viE1FomkpiUPhjUqNobUpAtC7Nq9zSHKrtHQ6FWvt/8hHyn12ogskPcGsWddhfMbslSr/ORvnX6SidmYo7M5ODd2YmhpR+xQ+Wfc1H2Tc8lM/ikYrZPFTM5pKquVxUz+eiegEt2/mooeX84iTULkmG4LsUCL5Lg3BpBoTLMyH8Pgui77PDVmRDtLJZRA5EP+RAtDISf6DbsyFckQXhCrpfOoTfpxHh8lQIlqUQwVJ67CTUfptMar5NCtYuSQrWfpscFHybQkT0/b7LgnBZc0hXtystX9m53R8y8dFq9vjEvPgbX3V8rzq/XWH1V21qK6e3tFdOyw1UfpGDqqmZqPk8GYKpPGft5PigYFIcBJPiiHBSLMSfxEL0SSzqPolBfYTk4xhIPomYFAPppBjIPglHuiydHPFpDKSfxkI2JRayz8OkU+Mg+yIOsmnxkH4ZMT0ekpnxkHyVQCRfJ0CSzyWyeTyndG4S6uZkQjw3B+J5uUHRvJYu8cLW9fWL2xdVze8w80p+h9BAdvQ3+581vP/Y9mjy6QmMGzeOU/xZp8ybn/ZoVTm1R9eyiZ0G1H7Q4cHaF5MekA1kHazry4KoHyso6s8i4vtYpO4BFuoeZFA3kIHkYQb1gxlIhjCQPMpAOpSB7PGIYQxkwxnInmAg/99FVVOKEQyo0LYnwrMZFMMZyIcxkA+lWJA9xiKyR1hEOpgVlA9iQfk4q0Q5nv+EZEbLAdIZefeLZ3frXjO3a5sr+b2yj08c8fMXDP6wSY9ebVrVFeczMf+sulO/y16iHc+G4h1Wo+JDFlFOYhHlZyyi/IIN1XQ21F+zoM5nQT2HBc18FrSLWNAuYaD7loHuOwbaZQx0y1nQfc+CbgUbemplJEbXV7Bh+J4Nw3I29EvZ0H/Lhn4xG/qFLOjnsYh+FovovmIR3TRWo/5TFnRTOMfEE5mfkxz9LDT+nz5L09f9oZZD3QlM+ELQE1MtyHpDvygJkkWJwfpvk4h0WRJkK5OIbE0SFOuTodyUAtW2VKh3pEOzOwvavc2hPdgaukPtoTucF0GX20B3qCV0h5pDV9gMuoNZ0B3IgnZ/VDa0+6hmIbq9zaDbmw3d3izoCjKh251OtDtTod2WDM0WXsC8ngvdD7wV9BzxDhMbOu8/4h/R33p1o61fuqrN9fo1LSD+sXWjdHM7yHa0I8qC9lAd7ADNkQ7QHs+D7lQn6M90heFcDxjP06qzP0yXH4Dp8kCYrgyE6fKDMF26H6ZL/WC6eA+MoYHqHjAWdw/toz/TA/rTPcPV5ynaLdAHuhP3QHu8D7THe0N3vBd0x7pDe7Qz0R1uR7QHc4Pa/Rkw703VqXflhv8zoN97UOO3JvBfeX303ijf1LO9dGMbvXBtNiRbmwVlu5sTxYFcojrckmiOt4L2ZCvoTreC/gytcFvDQNEq93ybEOOFtjCcbwsajefbwVDcDobz7WEoDtOf6xCqTvWhLw90DFeoRR2hPUXlQXOiPTTH20FztA3UR1oQ9ZEcaA5nE/WhDKI+mBa0n8z06wpznwy1+j9CZfqvJLvpPtHE12/u01G6sY1BsC4TdVtTg5LtKUS2O4XQgWdaKaoKk6E6FB4cVx+JDn4nQ3Msgg58H6fVaVQqNMfC1EfTEHIkjc4AgPpwGlTUodAXBqAqDA/Chwa+aUW6PwnK/Uk0hqvU/SlB24mcBs2Rtk//1yQ+ehFK1vaNFa5pWyFYnY3aNamNwrXJEK+ng+J8OrBM6rfwiOQnLpH+xCPhipZLZNt5RLaD4kckEtnOJl8G2JlCZLtSiIzGqB3JRBaSRGQ7Eol0OxXdv2lMhGxnMsL7p0Ff2NKsPtS5cyjx/w23mqYfRLSy4xTBslyULUzzVy5OCVQuTmysWsIPVn/HC1Yv5QZrlnGDtcu5wdrvuUHBCl5QsJIXFP6QGBSuSg4K16QERWvSg+IfM4PitVlB8bpmQfF6Kico3tA8KN5AY1SzYN2GrGDdhsxg3fq0YN36lGDd+uRg3YbEn9VvTGys35gcEG9I8am3N4NyZ9udTc812mD+K2LB0ge41YvaHa1Z0Byls9JQNjsZ5bOTUD6bj4o5PFTOC6uaz0PVQj6qFyWhZkkqar7LQO3SbNQuy4Hw+1wIVrSEYGVriFa1hnBVGwhXtYZodRuIVtPYCqLVLSFa3QKiVc0hWpUN0Q+ZEP2QDtHKVIhWpEC0IhmilSkQrEiD7MdsqDa1qSxf36tlKPH/DU8zTVtL9MmmalW3xLLZ7eaUzmpRUj23hVAwr7lEuKCZTLSgmVy8KEsRVbc4S1G/uJmi/tscheS75grJ0tywZbkKyfKWCumKlgr5iruRLstX0m0tFPKVEStyFdIVzSm5bEVzuXRFc5n0++Yyyfe5UvGyFsLab1uW1Sxts65qebfWoaT/t9ximib+l62JjlqVzOvbvDS/T9uSOT063F7QLa90TteOTV0PrbfvWDa/facb+RHzW3S6Mb99p7L5LUJK57QM/ZzG0jntwxa371jaxO0FHfKokjl5HUoW9+hQuqBP2zuL7sk9vuJPVJn+Mpn/yvofqRqks3yjv43/ymf50+1DP2xIPsOmj5z/Ef9t9/M/XSv464T/ysBfGfgrA39l4K8M/JWBvzLwVwb+xQz8LzE2OCyOyu+LAAAAAElFTkSuQmCC;" vertex="1" parent="1">
          <mxGeometry x="684.5" y="302" width="34" height="34" as="geometry" />
        </mxCell>
        <mxCell id="guoJjqlwkhtF7B335C00-35" value="IR Platform" style="text;html=1;align=center;verticalAlign=middle;resizable=0;points=[];autosize=1;strokeColor=none;fillColor=none;" vertex="1" parent="1">
          <mxGeometry x="745" y="304" width="80" height="30" as="geometry" />
        </mxCell>
        <mxCell id="guoJjqlwkhtF7B335C00-36" value="INTERNET&lt;br&gt;{Extranet}" style="ellipse;whiteSpace=wrap;html=1;" vertex="1" parent="1">
          <mxGeometry x="437.5" y="40" width="80" height="50" as="geometry" />
        </mxCell>
        <mxCell id="guoJjqlwkhtF7B335C00-37" value="" style="edgeStyle=orthogonalEdgeStyle;rounded=0;orthogonalLoop=1;jettySize=auto;html=1;fillColor=#1ba1e2;strokeColor=#006EAF;" edge="1" parent="1" source="guoJjqlwkhtF7B335C00-39" target="guoJjqlwkhtF7B335C00-55">
          <mxGeometry relative="1" as="geometry" />
        </mxCell>
        <mxCell id="guoJjqlwkhtF7B335C00-38" value="" style="edgeStyle=orthogonalEdgeStyle;rounded=0;orthogonalLoop=1;jettySize=auto;html=1;fillColor=#008a00;strokeColor=#005700;entryX=0.25;entryY=1;entryDx=0;entryDy=0;exitX=0.04;exitY=0.643;exitDx=0;exitDy=0;exitPerimeter=0;" edge="1" parent="1" source="guoJjqlwkhtF7B335C00-39" target="guoJjqlwkhtF7B335C00-43">
          <mxGeometry relative="1" as="geometry">
            <mxPoint x="465" y="407.5" as="sourcePoint" />
            <mxPoint x="210" y="317.5" as="targetPoint" />
          </mxGeometry>
        </mxCell>
        <mxCell id="guoJjqlwkhtF7B335C00-39" value="" style="shape=image;verticalLabelPosition=bottom;labelBackgroundColor=default;verticalAlign=top;aspect=fixed;imageAspect=0;image=data:image/png,iVBORw0KGgoAAAANSUhEUgAAAGQAAABkCAYAAABw4pVUAAAAAXNSR0IArs4c6QAAE9FJREFUeAHtnWlYFFe6x+fu98O9X+4y1zgz0SQzk2WiUQEFDYgKCBpA6UZABYwsoqIRFNcorgjIDrIoW1WzyO6CGwKuoLIZiaiJSlerSW7MyIhJ1NCN//uc0zZ2A930UjSQ2/089VR31alTdf6/et/3nFOnTv/mN6aPSQGTAiYFTAqYFDApYFLApIBJAZMCJgVMCpgUMClgUsCkgEmBwVHg8enRf3ha/UZp55k3npLlyZn/qXhaO/rdwTmbKdc+Cvyt6o26zupRF8kOAqOzetTjzuo3oLqM6iD7+hz8a9mAG8X/LJXkTpNJ2AApx8bI2tnKbjHbKhOz96RipkPKMb/QRcx0kG10H8cek3LMPvkxoqkkDz70IDA6z4y6QPKiltEHhhzO0+rRxXycb9jkAY59v1vMbJRJRKelYvZnGcfCkEUqZn6SSdhT3RLRBohz3uOjoNRNqQHSWf1GJx/nGNI88G3Bf3VLmFUyMdtgiPhaHSthr3ZzomA8ZP5T30JrBjL6ib75DvlxEOeMkoqZSD4sQSsYStYm5dgXMjGbgbvZOvt8EsBVY4dSLKkZXTTkwup6AbjL/lbGsQeI/9dVSL7T02uQiNJxJ/u/tS0HqU11Vo/q6A3lSfWovz4++7vfa5vPkKcDtv+9TCLykXLMD3wLa2h+Uo79W7dE9BlQ/A/aCCWv9o4uJjGDLjWji0YWjAeiP8ok7FVDhRv845nLkOS/rQ2UEZtGxjHzyR04+GIaViNTXJ+UYzplYsZjxAqu7sKJ+cs4NklR0JG2lkrYeOJm1ZVvRG0nDbIuMVM00iD0vd7cCohz/lUb8Tus3ed22AgedlgLH3RMFzppc4xR0uB21r/LxExN38KpuhRpO4Ota1ZimacnVnq5Y/fa5bh6LN6ghuBA59RrfztTTco0kHgUhI0QHXQR3B8ovVH2E8sgrWxtCt52Pg1Ok8zh570S0TuisGPjViyYbgt3G2uErw7ExfJ9kIqZ4QKoFneS/kWTiMMOCK3WcmyxNjBImpOF0XCcYg2h6CncdlZhcXAUQtZHIzUlG3vDd8PTzh6CaVOx3t8X5Qd34Pnd3CGGk1uhqVpM3JQciuD+Y1t3R03wjLJP1wBeWRAJR0sbuBf+8nopeAZB9BV4r0nA6pBdSEzIQGJUAj51dYPLZAus8V5I4fx8J2dI4Eg5Ns4oYmo6iTbBSiZh3bW1DEW6foGowHkOt+gr8FoVjxWhEYjdl4b4vXH41FUAVwsLrPFZiMKUbei8aXQ4bpr0GvR9A/lG3M99R8oxTxRCa7vuA6TgGdxFna+tRRlO4S8QJN3EwtA0BK3agb0RyUiKSUKQlw8+MZuEQMF85MRtwuMbWYNuOaRNNaSNR01A5N0h+rXAewNxS2iFy4pkCsQt/hrcczs0wvFYk4rA1XsQEZWG1IS0HjjLhG4Uzg+tBwcTTv2QtVE0BatujlmhrUX0TtcbiCD+OuZtPyUHknwbrsGpcA6MgVtss1owJP4Qy1kQegCBn0UgfHs8kmJSELwkAC4W5ljq6oKkHSF40JjBPxwJGzDo7kmXE5BeW/LkrrfQ2v7WBEQl0Oc/kwMpeAbXTSUQZv2vWkCCNDGEYTnwWxWBbTuTkbE/CyEBK+FiZgZfJycKh7uSzgscqZh9rEsvsS7a6pWWdKFrK35/6bQGohRLhOkcXEMZuARE07XwwAP1cDLuQ7guBwGhsdi8NQ4pCekUjrO5GXzmzEHM5tW4eTbFQDii/XqJx/dBeJj3e0OfZ+gDRNlyhFnfYd6mUgrHZeV+CFK+VguHWJVgcyl8g/di/eZ9SE/JxMbPNmCe5RQssLVFRNgKtFYnagXn5YtHePnie5qWPOjCA+Z3fOurc366tjn4shBlIMrfhdnfv4YTnApB0i31cLIfwW1LKbwCdmPF6r1IjD+Adas2wNXKqgfOtdMJauEQGAogpFxD3jYhz8D5eOxqqIUoA1H+Lsz54TUcUimIvgL3ghc9gJyzf8L4DWK8GXATY/2+wF/cGTgu2AH/wG2IjUzBxs82wm3ax/CwtcWu0CDcOq/ZrZGBFIY8o9fZGnofQAckKD2f7u/u12bbYAFRhuPOdmLeziq4BMXDeVkcbEKrMXbZTQqDAFFexvpdwzhBFhyFW7FI6I91y1fD5xNXOJubq7UWRTlJbbO3Tkb7zdfoEKMAeVUhmJ3aiXdXteEDAQOz2Z/DzDEc77sfwhj/GypQFIAsXXYiLvMYXWb/5f0Bgcg45rLRACifiIybUtwVhq6NAWQe8wyTtj7oI/oYv+v4QJgnhzN7K971LFNJozsQFmgXGX8oabeY3WQoCMXxgwlEWPgLpsf8gLeCbqsIrbAA5TWxEgu7MJV0+gDp5pgw5ZvXKN9l4twqhaCGrgcLyJwDT/HB2nYVgZUB9PfdzHG7Snp9gMg40QmjQFCchI61JUMzeQjoJA++gbiJnmHyjm8wJlA1WPcHoPc2PoDQ2hZPY4kVmmtcSznRVL5g8A1kVuJjvLPyK5W7vLfomn7zAYSUqUucZ6lRRD53yiRs4HAD4pz1E8a9alNoEnygfXwBkXGsH5+aa8xLyolihwsQQf4LWEV8hzHLbultFcqQ+AIi5UTRGkXkcyd5P2M4AJmd+gR/XnOHFxAKKHwBkYmZI3xqrjGvVy/EaNFIUh3uow5in6Ce8jWcfcIh2H+np5tDudWtrk2hENWQNV9AujnmC40i8rmzi2M4deLqs703ECK+Sj/U8gTaDyUseAHr6EdatSn0hcIXEJmYaedTc415kQcy+giv7piq0lg6DEjZClS+s51w2ngcVq67aYv6PY9yvBnQxqurUgDkCwgZ2a9RRD53Gvr8ozeYztsM5lhOg+MUG8wVrIRbdEOPq+ppU7zqAKS9sm5ZMHPYgvfdi3iHwh8Q9gWfmmvMi28gBFDXPRaVJakI8l8BJ3MLOE6eCgf7RfjQs1Ar0SfMjcR7C4owJuBLrdIrLKL3emQCUXZZD8vw8vl3wEspXj7/FrKHZQYHezLWtzQvBfMXhMJuoiXsx5vDxnIexs3LUC+2/5d4f0EhdWnv+F6UuzR/3eHwB8SILks5qFMYeP2hUHjqUlG4tpKiHAi9N8FuotUrOK4Y75qsMY689WkDPhCy6gH2egaisBS+gBg1qCtXe4llqHy6uwy2EAWI/tZHSrOx8NNNsDP7GPYfmWP6lE8wwTkebwb0/zxDIbRiTbrayQMoxe/ea76AGLXaq9wwJBah/BkMC+kPDNl28vBBeC/dCDtza9iNnwSbKc6YMDcaY/1a1Qr+p4UnMWnOblopGDc/HWOXNqqk5QuIURuGdDYFhVuiMeRbeQx59g0vMUQdAE3ba09mw2f5LthbzobDuImwNbfHpNmfgzyA6m0Fit/v+NTiI+dYmDtsxoRPYvC2bz34AiIV50ZprBnxuZNMV6FJnKHe11iTiaA1O2Fn6Qj7cRNga+HwCo56V/VH77OYODcSk+3WqgDU73kI6aFglvKpuca8+O5+5wPgw6tJYPYEwtfBBiEec1CRvBqJ21Zh/R4W85ZEwM7KCQ7jJ2CGuT19KvhWL1elsJrea32BGLX7ne8HVPoC+fFWJk5lrkOo51y4T52MXWHrcayyGgV5Jfh8ZTC8HOYgMrmoZ5DC2i3xWOK/EQ428+AwfiJmmM/C5Fmr8faSehWrUIaiDxApx/yIpox/0nhX87UTDZ5/kDZ7lHa1LJJKWxZD+uUaSO+l6Vyz+uZqMnL3BGK1wBEZW5fiVlWUVnmQNkrr8QjErV2M+RaTsGqhB9isfDR92Y5rt+6rLHu3R6kACd+dij2rfPHgchIkTVkI27IPDrZCOIwbjxlmM+RwfC+pwNEHiIxjj/Olt8Z8CIyuFq/H0mYvqCwtPpC1HxhQ0J+/ykZV9nqs9ZoLgZUFdoWFoehQBaLDd8HHfhYWz/gYB7f74avq6D55fd+8Hzm7A7BoxlT4OTshJTYRl662qgDoDeTw0RoUV9Yhq7gWCdmVIEDWLPGHwGoygt0cURIXjG8bU/CgORuhW2Iwe+YCOIz7CDPNZsDKdhneWVwLfYB0c6J1GoXkayexDBUQymBuhPQRUeGKbldHI37tYrhNlt/RWenZaLx+B81tYpypvYwrLbdR19iGwvwSxOzYQ+EQ4VM2+lBrIPnUMBsgsDSDh800JEfH4ezFJo0wesNpbpOg8swVnKqpp+clN0L4mhAIKRwHFMUFg1jtoy8ysenzKMye6Q6HDz/CLDNr+Mz3oIuzmZnaMirKStZGGwbU1ez1VC2QFm+ViyV3dOG+FVhibw1fh1lU6OpzV5FzkEFp8VEU5pXS9clT56jfZ7PyUF5WiVNVF1FSdASVx2voMd72M7Fo5jQK59qx3Wgo346YkIXUwpbNd0ZiVBxqzzfqBEcZVkubmJ4vPCQEwqlTsGKeA0oTV9Gy/HA9ExnxEShL20pfmbtepX6crxKQer4MYMB8NAPxwfM7OTgn2owtS+ZDYGmBzctXoOTQYVyo/wJVNXXISstCWelxlJcfBwGQe4ABgZSXW0BFOXL4FA5XnMT5+msqAhNIxHIW29nCe6Y1Dob74e65WDRW7EDcusUQWlkg0PUTJEbGoOZ8g8qxyuKr+07iTx5TiBAfb7iaTaDASaxSElnr791i0fIBheQrgbTZo0KthdwIRbi/K8hwyyChe48w5O690nybQiGWUXyoAmWlx1AgKkFiZBzSElJRUX4CVdV1yGMOIXlfAgrYYhpbig8dBpOVT9M3XL+DlpsSHD1yGns2bIbn9GnwnzMTeZFB4C7GUdeWvNEXHtZT4OtoRwGSm0AdBLKdgI78fBu1jOUu9jiWFgJSc9MHBDmGDv95kPkffOk9YD4vGhe/29Xk2dEHyjV5UO9qz31VA/LG/ClmWC6Yj5SYJFy8fJ0KQwQlUEjsIIIQkdnsPCRGxoLJyqPbiQvLTMtGPlNELYmkr6yspi6sqLAC6UnpuHLtK3q8QlAP66lY6mgLJiJQBY6nteVrONVyOCRWpSel0YrBwulW1NpIrUtfCMrHkR6MAUXkOwGt9rZ4Fnc1e3aSRdrifVTafqBLcWE/XrLEj3VW1H3VFW3F3mBPFTgXrshrRkRMIjZZEzjVZy8jJyMXh/JLkRSdgIP7D1LrKcwrwfETtUiKjEPKvgScPnMBmWmZ1BWSwEzgtLRxqCg/iV1hG7DgY6seOJJLCfiicjeSNsgtx9t+Br2WfWsW4nrlHl5nh6Av7NwvHM233nrlJ5OI0nuA1Fnhx7qpKnfcs6+zoYBDalo9lnOlFXUNN2hQJ4KeqamnAl9uakNJ8RE6UQAJ7sT1ZKZmInZ3FNicPJrm3KVmGpOIyysqKMeB1EwUiIrReP1uDxz3jy174NyvSwCp7ZGqt+Ja+V0zyXqJNxgHkZdUtJ0dTh0c0qY4e6mZBndSy6o5e5VaDnFvJG6cOHGOWlRF+XGahlgQAVhefgKpcfuRl1tI3Ro5NiU2icas+sY25B4U0Ra8+7Qpcjh7AmnDkE8YUjH7V/Ly0mBoq3ee3WI2SNdCPvs6q8dySKubWA6JEZebb9GqLLEaIjippSmCsIgpRnZGDoVSVlZJKwmk6kssiqQlQA4VlCI9IQ2p8ftxqKAMtRcacOJkrdxy1oXRIE5iDqmWk+q5rtfdN70ROxK1JSSfcIa53PditRubRWo3pPG3zd8N8ywmIXSJD7IzcmmjkcQZNkuEQ3ml1L2RygEBdPZCEw3QFRWVyM1kaewh/VjEcnIzRRTOYVKVPnyKxiQSs0pLjqLxy7uICt8Fp3EfwnniOHS0GvDuervoEoC/01Yno6ZDe/4YPoYIET9PYs6OZe5yOD7eIK172qInMedYNQVy4qTcjRXkFaMwv4wCSEvYj/SEVNrGqTxeSysEja33aNw5X3cNKTGJWDrHEUscptNa2bcNyXpbCJ1ag2PfMqrIup5MJmGE+lpJf8c9aTuI01lhtLFJLUcB59pX1LURSzl69Azqm25SSNXnG5DPHKJwSBwiMPJFxdgQ4AeBpTn2rvJAU8VOg2tYUjHzkswhqas+Q5KezFHYn7iGbtMEh7qwi0091WhFG0U4dTI+EzrRRt9Pt/mbkIbMKz8k4upzUhJPBnueReL3K9NDsX6RM+ZPnoTNQUEQ5RYgKSoOS5zs4WNnDVFkEL5r4iNoq8bBLi63kMbMJs+50iavh9ImzweyFo/hM7dif9DkU/yxpwy1Cm2Of9yajqNpIdiw2AWD0ejrdQ09U/wREIpei65mr+Ext2J/MBTb6CSY7Ux1rwLpHUSHQT5n8Kj43xTlG3FAyIUTSyEmPgzENPRGKOs9TSxxUwQKsQ5ps9fQz62ouFMGWhN/S+YBGYlQSG2KBHBShoHKOeL2y8SMqyHzahkbKJ1qXMK6jzihdblgcOxbMo6tN7a4Op+PtMDFOWN1KduITUu6GuR/V8E+0lkoxYjJQVoTC5b/XcWv0EUNdMeQHlIZJ9pP/+VmkATWFriUY5/LOCYZxnziN5BAQ7X/1ZyN26nPNjIY8thVKmYTh8VscEMFQN15yd3ZzbEryRRH2t7ZBqSrJ3Nb/b+yCG1mwlYL5x7zZzKrjoxjT5KhmQYIT9sf8jxEJ8ggNtzL/5O68/6qt2uaeFmXgpNxslKOsZJxIn8yQwJ594K8ECP/Y0n2MXnnkS7kVTvyx5J0H3OEpuVYPzLwGTj7j7qc81eZli8gv0pxhqJQmmbCHorrMZ3TpIBJAZMCJgVMCpgUMClgUsCkgEkBkwImBUwKmBQwKWBSYEQr8H8FXU/qMgYpAwAAAABJRU5ErkJggg==;" vertex="1" parent="1">
          <mxGeometry x="470" y="372" width="60" height="60" as="geometry" />
        </mxCell>
        <mxCell id="guoJjqlwkhtF7B335C00-40" value="" style="edgeStyle=orthogonalEdgeStyle;rounded=0;orthogonalLoop=1;jettySize=auto;html=1;fillColor=#1ba1e2;strokeColor=#006EAF;" edge="1" parent="1" source="guoJjqlwkhtF7B335C00-42" target="guoJjqlwkhtF7B335C00-55">
          <mxGeometry relative="1" as="geometry" />
        </mxCell>
        <mxCell id="guoJjqlwkhtF7B335C00-41" value="" style="edgeStyle=orthogonalEdgeStyle;rounded=0;orthogonalLoop=1;jettySize=auto;html=1;fillColor=#008a00;strokeColor=#005700;" edge="1" parent="1">
          <mxGeometry relative="1" as="geometry">
            <mxPoint x="470" y="327" as="sourcePoint" />
            <mxPoint x="240" y="282" as="targetPoint" />
          </mxGeometry>
        </mxCell>
        <mxCell id="guoJjqlwkhtF7B335C00-42" value="" style="shape=image;verticalLabelPosition=bottom;labelBackgroundColor=default;verticalAlign=top;aspect=fixed;imageAspect=0;image=data:image/png,iVBORw0KGgoAAAANSUhEUgAAAGQAAABkCAYAAABw4pVUAAAAAXNSR0IArs4c6QAAE9FJREFUeAHtnWlYFFe6x+fu98O9X+4y1zgz0SQzk2WiUQEFDYgKCBpA6UZABYwsoqIRFNcorgjIDrIoW1WzyO6CGwKuoLIZiaiJSlerSW7MyIhJ1NCN//uc0zZ2A930UjSQ2/089VR31alTdf6/et/3nFOnTv/mN6aPSQGTAiYFTAqYFDApYFLApIBJAZMCJgVMCpgUMClgUsCkgEmBwVHg8enRf3ha/UZp55k3npLlyZn/qXhaO/rdwTmbKdc+Cvyt6o26zupRF8kOAqOzetTjzuo3oLqM6iD7+hz8a9mAG8X/LJXkTpNJ2AApx8bI2tnKbjHbKhOz96RipkPKMb/QRcx0kG10H8cek3LMPvkxoqkkDz70IDA6z4y6QPKiltEHhhzO0+rRxXycb9jkAY59v1vMbJRJRKelYvZnGcfCkEUqZn6SSdhT3RLRBohz3uOjoNRNqQHSWf1GJx/nGNI88G3Bf3VLmFUyMdtgiPhaHSthr3ZzomA8ZP5T30JrBjL6ib75DvlxEOeMkoqZSD4sQSsYStYm5dgXMjGbgbvZOvt8EsBVY4dSLKkZXTTkwup6AbjL/lbGsQeI/9dVSL7T02uQiNJxJ/u/tS0HqU11Vo/q6A3lSfWovz4++7vfa5vPkKcDtv+9TCLykXLMD3wLa2h+Uo79W7dE9BlQ/A/aCCWv9o4uJjGDLjWji0YWjAeiP8ok7FVDhRv845nLkOS/rQ2UEZtGxjHzyR04+GIaViNTXJ+UYzplYsZjxAqu7sKJ+cs4NklR0JG2lkrYeOJm1ZVvRG0nDbIuMVM00iD0vd7cCohz/lUb8Tus3ed22AgedlgLH3RMFzppc4xR0uB21r/LxExN38KpuhRpO4Ota1ZimacnVnq5Y/fa5bh6LN6ghuBA59RrfztTTco0kHgUhI0QHXQR3B8ovVH2E8sgrWxtCt52Pg1Ok8zh570S0TuisGPjViyYbgt3G2uErw7ExfJ9kIqZ4QKoFneS/kWTiMMOCK3WcmyxNjBImpOF0XCcYg2h6CncdlZhcXAUQtZHIzUlG3vDd8PTzh6CaVOx3t8X5Qd34Pnd3CGGk1uhqVpM3JQciuD+Y1t3R03wjLJP1wBeWRAJR0sbuBf+8nopeAZB9BV4r0nA6pBdSEzIQGJUAj51dYPLZAus8V5I4fx8J2dI4Eg5Ns4oYmo6iTbBSiZh3bW1DEW6foGowHkOt+gr8FoVjxWhEYjdl4b4vXH41FUAVwsLrPFZiMKUbei8aXQ4bpr0GvR9A/lG3M99R8oxTxRCa7vuA6TgGdxFna+tRRlO4S8QJN3EwtA0BK3agb0RyUiKSUKQlw8+MZuEQMF85MRtwuMbWYNuOaRNNaSNR01A5N0h+rXAewNxS2iFy4pkCsQt/hrcczs0wvFYk4rA1XsQEZWG1IS0HjjLhG4Uzg+tBwcTTv2QtVE0BatujlmhrUX0TtcbiCD+OuZtPyUHknwbrsGpcA6MgVtss1owJP4Qy1kQegCBn0UgfHs8kmJSELwkAC4W5ljq6oKkHSF40JjBPxwJGzDo7kmXE5BeW/LkrrfQ2v7WBEQl0Oc/kwMpeAbXTSUQZv2vWkCCNDGEYTnwWxWBbTuTkbE/CyEBK+FiZgZfJycKh7uSzgscqZh9rEsvsS7a6pWWdKFrK35/6bQGohRLhOkcXEMZuARE07XwwAP1cDLuQ7guBwGhsdi8NQ4pCekUjrO5GXzmzEHM5tW4eTbFQDii/XqJx/dBeJj3e0OfZ+gDRNlyhFnfYd6mUgrHZeV+CFK+VguHWJVgcyl8g/di/eZ9SE/JxMbPNmCe5RQssLVFRNgKtFYnagXn5YtHePnie5qWPOjCA+Z3fOurc366tjn4shBlIMrfhdnfv4YTnApB0i31cLIfwW1LKbwCdmPF6r1IjD+Adas2wNXKqgfOtdMJauEQGAogpFxD3jYhz8D5eOxqqIUoA1H+Lsz54TUcUimIvgL3ghc9gJyzf8L4DWK8GXATY/2+wF/cGTgu2AH/wG2IjUzBxs82wm3ax/CwtcWu0CDcOq/ZrZGBFIY8o9fZGnofQAckKD2f7u/u12bbYAFRhuPOdmLeziq4BMXDeVkcbEKrMXbZTQqDAFFexvpdwzhBFhyFW7FI6I91y1fD5xNXOJubq7UWRTlJbbO3Tkb7zdfoEKMAeVUhmJ3aiXdXteEDAQOz2Z/DzDEc77sfwhj/GypQFIAsXXYiLvMYXWb/5f0Bgcg45rLRACifiIybUtwVhq6NAWQe8wyTtj7oI/oYv+v4QJgnhzN7K971LFNJozsQFmgXGX8oabeY3WQoCMXxgwlEWPgLpsf8gLeCbqsIrbAA5TWxEgu7MJV0+gDp5pgw5ZvXKN9l4twqhaCGrgcLyJwDT/HB2nYVgZUB9PfdzHG7Snp9gMg40QmjQFCchI61JUMzeQjoJA++gbiJnmHyjm8wJlA1WPcHoPc2PoDQ2hZPY4kVmmtcSznRVL5g8A1kVuJjvLPyK5W7vLfomn7zAYSUqUucZ6lRRD53yiRs4HAD4pz1E8a9alNoEnygfXwBkXGsH5+aa8xLyolihwsQQf4LWEV8hzHLbultFcqQ+AIi5UTRGkXkcyd5P2M4AJmd+gR/XnOHFxAKKHwBkYmZI3xqrjGvVy/EaNFIUh3uow5in6Ce8jWcfcIh2H+np5tDudWtrk2hENWQNV9AujnmC40i8rmzi2M4deLqs703ECK+Sj/U8gTaDyUseAHr6EdatSn0hcIXEJmYaedTc415kQcy+giv7piq0lg6DEjZClS+s51w2ngcVq67aYv6PY9yvBnQxqurUgDkCwgZ2a9RRD53Gvr8ozeYztsM5lhOg+MUG8wVrIRbdEOPq+ppU7zqAKS9sm5ZMHPYgvfdi3iHwh8Q9gWfmmvMi28gBFDXPRaVJakI8l8BJ3MLOE6eCgf7RfjQs1Ar0SfMjcR7C4owJuBLrdIrLKL3emQCUXZZD8vw8vl3wEspXj7/FrKHZQYHezLWtzQvBfMXhMJuoiXsx5vDxnIexs3LUC+2/5d4f0EhdWnv+F6UuzR/3eHwB8SILks5qFMYeP2hUHjqUlG4tpKiHAi9N8FuotUrOK4Y75qsMY689WkDPhCy6gH2egaisBS+gBg1qCtXe4llqHy6uwy2EAWI/tZHSrOx8NNNsDP7GPYfmWP6lE8wwTkebwb0/zxDIbRiTbrayQMoxe/ea76AGLXaq9wwJBah/BkMC+kPDNl28vBBeC/dCDtza9iNnwSbKc6YMDcaY/1a1Qr+p4UnMWnOblopGDc/HWOXNqqk5QuIURuGdDYFhVuiMeRbeQx59g0vMUQdAE3ba09mw2f5LthbzobDuImwNbfHpNmfgzyA6m0Fit/v+NTiI+dYmDtsxoRPYvC2bz34AiIV50ZprBnxuZNMV6FJnKHe11iTiaA1O2Fn6Qj7cRNga+HwCo56V/VH77OYODcSk+3WqgDU73kI6aFglvKpuca8+O5+5wPgw6tJYPYEwtfBBiEec1CRvBqJ21Zh/R4W85ZEwM7KCQ7jJ2CGuT19KvhWL1elsJrea32BGLX7ne8HVPoC+fFWJk5lrkOo51y4T52MXWHrcayyGgV5Jfh8ZTC8HOYgMrmoZ5DC2i3xWOK/EQ428+AwfiJmmM/C5Fmr8faSehWrUIaiDxApx/yIpox/0nhX87UTDZ5/kDZ7lHa1LJJKWxZD+uUaSO+l6Vyz+uZqMnL3BGK1wBEZW5fiVlWUVnmQNkrr8QjErV2M+RaTsGqhB9isfDR92Y5rt+6rLHu3R6kACd+dij2rfPHgchIkTVkI27IPDrZCOIwbjxlmM+RwfC+pwNEHiIxjj/Olt8Z8CIyuFq/H0mYvqCwtPpC1HxhQ0J+/ykZV9nqs9ZoLgZUFdoWFoehQBaLDd8HHfhYWz/gYB7f74avq6D55fd+8Hzm7A7BoxlT4OTshJTYRl662qgDoDeTw0RoUV9Yhq7gWCdmVIEDWLPGHwGoygt0cURIXjG8bU/CgORuhW2Iwe+YCOIz7CDPNZsDKdhneWVwLfYB0c6J1GoXkayexDBUQymBuhPQRUeGKbldHI37tYrhNlt/RWenZaLx+B81tYpypvYwrLbdR19iGwvwSxOzYQ+EQ4VM2+lBrIPnUMBsgsDSDh800JEfH4ezFJo0wesNpbpOg8swVnKqpp+clN0L4mhAIKRwHFMUFg1jtoy8ysenzKMye6Q6HDz/CLDNr+Mz3oIuzmZnaMirKStZGGwbU1ez1VC2QFm+ViyV3dOG+FVhibw1fh1lU6OpzV5FzkEFp8VEU5pXS9clT56jfZ7PyUF5WiVNVF1FSdASVx2voMd72M7Fo5jQK59qx3Wgo346YkIXUwpbNd0ZiVBxqzzfqBEcZVkubmJ4vPCQEwqlTsGKeA0oTV9Gy/HA9ExnxEShL20pfmbtepX6crxKQer4MYMB8NAPxwfM7OTgn2owtS+ZDYGmBzctXoOTQYVyo/wJVNXXISstCWelxlJcfBwGQe4ABgZSXW0BFOXL4FA5XnMT5+msqAhNIxHIW29nCe6Y1Dob74e65WDRW7EDcusUQWlkg0PUTJEbGoOZ8g8qxyuKr+07iTx5TiBAfb7iaTaDASaxSElnr791i0fIBheQrgbTZo0KthdwIRbi/K8hwyyChe48w5O690nybQiGWUXyoAmWlx1AgKkFiZBzSElJRUX4CVdV1yGMOIXlfAgrYYhpbig8dBpOVT9M3XL+DlpsSHD1yGns2bIbn9GnwnzMTeZFB4C7GUdeWvNEXHtZT4OtoRwGSm0AdBLKdgI78fBu1jOUu9jiWFgJSc9MHBDmGDv95kPkffOk9YD4vGhe/29Xk2dEHyjV5UO9qz31VA/LG/ClmWC6Yj5SYJFy8fJ0KQwQlUEjsIIIQkdnsPCRGxoLJyqPbiQvLTMtGPlNELYmkr6yspi6sqLAC6UnpuHLtK3q8QlAP66lY6mgLJiJQBY6nteVrONVyOCRWpSel0YrBwulW1NpIrUtfCMrHkR6MAUXkOwGt9rZ4Fnc1e3aSRdrifVTafqBLcWE/XrLEj3VW1H3VFW3F3mBPFTgXrshrRkRMIjZZEzjVZy8jJyMXh/JLkRSdgIP7D1LrKcwrwfETtUiKjEPKvgScPnMBmWmZ1BWSwEzgtLRxqCg/iV1hG7DgY6seOJJLCfiicjeSNsgtx9t+Br2WfWsW4nrlHl5nh6Av7NwvHM233nrlJ5OI0nuA1Fnhx7qpKnfcs6+zoYBDalo9lnOlFXUNN2hQJ4KeqamnAl9uakNJ8RE6UQAJ7sT1ZKZmInZ3FNicPJrm3KVmGpOIyysqKMeB1EwUiIrReP1uDxz3jy174NyvSwCp7ZGqt+Ja+V0zyXqJNxgHkZdUtJ0dTh0c0qY4e6mZBndSy6o5e5VaDnFvJG6cOHGOWlRF+XGahlgQAVhefgKpcfuRl1tI3Ro5NiU2icas+sY25B4U0Ra8+7Qpcjh7AmnDkE8YUjH7V/Ly0mBoq3ee3WI2SNdCPvs6q8dySKubWA6JEZebb9GqLLEaIjippSmCsIgpRnZGDoVSVlZJKwmk6kssiqQlQA4VlCI9IQ2p8ftxqKAMtRcacOJkrdxy1oXRIE5iDqmWk+q5rtfdN70ROxK1JSSfcIa53PditRubRWo3pPG3zd8N8ywmIXSJD7IzcmmjkcQZNkuEQ3ml1L2RygEBdPZCEw3QFRWVyM1kaewh/VjEcnIzRRTOYVKVPnyKxiQSs0pLjqLxy7uICt8Fp3EfwnniOHS0GvDuervoEoC/01Yno6ZDe/4YPoYIET9PYs6OZe5yOD7eIK172qInMedYNQVy4qTcjRXkFaMwv4wCSEvYj/SEVNrGqTxeSysEja33aNw5X3cNKTGJWDrHEUscptNa2bcNyXpbCJ1ag2PfMqrIup5MJmGE+lpJf8c9aTuI01lhtLFJLUcB59pX1LURSzl69Azqm25SSNXnG5DPHKJwSBwiMPJFxdgQ4AeBpTn2rvJAU8VOg2tYUjHzkswhqas+Q5KezFHYn7iGbtMEh7qwi0091WhFG0U4dTI+EzrRRt9Pt/mbkIbMKz8k4upzUhJPBnueReL3K9NDsX6RM+ZPnoTNQUEQ5RYgKSoOS5zs4WNnDVFkEL5r4iNoq8bBLi63kMbMJs+50iavh9ImzweyFo/hM7dif9DkU/yxpwy1Cm2Of9yajqNpIdiw2AWD0ejrdQ09U/wREIpei65mr+Ext2J/MBTb6CSY7Ux1rwLpHUSHQT5n8Kj43xTlG3FAyIUTSyEmPgzENPRGKOs9TSxxUwQKsQ5ps9fQz62ouFMGWhN/S+YBGYlQSG2KBHBShoHKOeL2y8SMqyHzahkbKJ1qXMK6jzihdblgcOxbMo6tN7a4Op+PtMDFOWN1KduITUu6GuR/V8E+0lkoxYjJQVoTC5b/XcWv0EUNdMeQHlIZJ9pP/+VmkATWFriUY5/LOCYZxnziN5BAQ7X/1ZyN26nPNjIY8thVKmYTh8VscEMFQN15yd3ZzbEryRRH2t7ZBqSrJ3Nb/b+yCG1mwlYL5x7zZzKrjoxjT5KhmQYIT9sf8jxEJ8ggNtzL/5O68/6qt2uaeFmXgpNxslKOsZJxIn8yQwJ594K8ECP/Y0n2MXnnkS7kVTvyx5J0H3OEpuVYPzLwGTj7j7qc81eZli8gv0pxhqJQmmbCHorrMZ3TpIBJAZMCJgVMCpgUMClgUsCkgEkBkwImBUwKmBQwKWBSYEQr8H8FXU/qMgYpAwAAAABJRU5ErkJggg==;" vertex="1" parent="1">
          <mxGeometry x="470" y="302" width="60" height="60" as="geometry" />
        </mxCell>
        <mxCell id="guoJjqlwkhtF7B335C00-43" value="" style="shape=image;verticalLabelPosition=bottom;labelBackgroundColor=default;verticalAlign=top;aspect=fixed;imageAspect=0;image=data:image/png,iVBORw0KGgoAAAANSUhEUgAAAeAAAAHgCAYAAAB91L6VAAAAAXNSR0IArs4c6QAAIABJREFUeAHt3QmcLVdd4PFOMqDiiDrivDHpdJ3/uW0y8xwVecLrToJmlGWUZVAJqEBEB3Fh/cjk9WM1oPhhWJyJLMO+xIgkgBjz+iVAHBEZBQYMCoTgZyABWVxIgkgIS5bpf1v1qK5Xy1n+dfve27/3+bzP7Vt1lv/51rn33Fu36pylJf4hgAACCCCAAAIIIIAAAggggAACCCCAAAIIIIAAAggggAACCCCAAAIIIIAAAggggAACCCCAAAIIIIAAAggggAACCCCAAAIIIIAAAggggAACCCCAAAIIIIAAAggggAACCCCAAAIIIIAAAggggAACCCCAAAIIIIAAAggggAACCCCAAAIIIIAAAggggAACCCCAAAIIIIAAAggggAACCCCAAAIIIIAAAggggAACCCCAAAIIIIAAAggggAACCCCAAAIIIIAAAggggAACCCCAAAIIIIAAAggggAACCCCAAAIIIIAAAggggAACCCCAAAIIIIAAAggggAACCCCAAAIIIIAAAggggAACCCCAAAIIIIAAAggggAACCCCAAAIIIIAAAggggAACCCCAAAIIIIAAAggggAACCCCAAAIIIIAAAggggAACCCCAAAIIIIAAAggggAACCCCAAAIIIIAAAggggAACCCCAAAIIIIAAAggggAACCCCAAAIIIIAAAggggAACCCCAAAIIIIAAAggggAACCCCAAAIIIIAAAggggAACCCCAAAIIIIAAAggggAACCCCAAAIIIIAAAggggAACCCCAAAIIIIAAAggggAACCCCAAAIIIIAAAggggAACCCCAAAIIIIAAAggggAACCCCAAAIIIIAAAggggAACCCCAAAIIIIAAAggggAACCCCAAAIIIIAAAggggAACCCCAAAIIIIAAAggggAACCCCAAAIIIIAAAggggAACCCCAAAIIIIAAAggggAACCCCAAAIIIIAAAggggAACCCCAAAIIIIAAAggggAACCCCAAAIIIIAAAggggAACCCCAAAIIIIAAAggggAACCCCAAAIIIIAAAggggAACCCCAAAIIIIAAAggggAACCCCAAAIIIIAAAggggAACCCCAAAIIIIAAAggggAACCCCAAAIIIIAAAggggAACCCCAAAIIIIAAAggggAACCCCAAAIIIIAAAggggAACCCCAAAIIIIAAAggggAACCCCAAAIIIIAAAggggAACCCCAAAIIIIAAAggggAACCCCAAAIIIIAAAggggAACCCCAAAIIIIAAAggggAACCCCAAAIIIIAAAggggAACCCCAAAIIIIAAAggggAACCCCAAAIIIIAAAggggAACCCCAAAIIIIAAAggggAACCCCAAAIIIIAAAggggAACCCCAAAIIIIAAAggggAACCCCAAAIIIIAAAggggAACCCCAAAIIIIAAAggggAACCCCAAAIIIIAAAggggAACCCCAAAIIIIAAAggggAACCCCAAAIIIIAAAggggAACCCCAAAIIIIAAAggggAACCCCAAAIIIIAAAggggAACCCCAAAIIIIAAAggggAACCCCAAAIIIIAAAggggAACCCCAAAIIIIAAAggggAACCCCAAAIIIIAAAggggAACCCCAAAIIIIAAAggggAACCCCAAAIIIIAAAggggAACCCCAAAIIIIAAAggggAACCCCAAAIIIIAAAggggAACCCCAAAIIIIAAAggggAACCCCAAAIIIIAAAggggAACCCCAAAIIIIAAAggggAACCCCAAAIIIIAAAggggAACCCCAAAIIIIAAAggggAACCCCAAAIIIIAAAggggAACCCCAAAIIIIAAAggggAACCCCAAAIIIIAAAggggAACCCCAAAIIIIAAAggggAACCCCAAAIIIIAAAggggAACCCCAAAIIIIAAAggggAACCCCAAAIIIIAAAggggAACCCCAAAIIIIAAAggggAACCCCAAAIIIIAAAggggAACCCCAAAIIIIAAAggggAACCCCAAAIIIIAAAggggAACCCCAAAIIIIAAAggggAACCCCAAAIIIIAAAggggAACCCCAAAIIIIAAAggggAACCCCAAAIIIIAAAggggAACCCCAAAIIIIAAAggggAACCCCAAAIIIIAAAggggAACCCCAAAIIIIAAAggggAACCCCAAAIIIIAAAggggAACCCCAAAIIIIAAAggggAACCCCAAAIIIIAAAggggAACCCCAAAIIIIAAAggggAACCCCAAAIIIIAAAggggAACCCCAAAIIIIAAAggggAACCCCAAAIIIIAAAggggAACCCCAAAIIIIAAAggggAACCCCAAAIIIIAAAggggAACCCCAAAIIIIAAAggggAACCCCAAAIIIIAAAggggAACCCCAAAIIIIAAAggggAACCCCAAAIIIIAAAggggAACCCCAAAIIIGAs4Jx7s4jcnvrfOByKQ2AUgdT+3cznvf/WUQKkUAQQ2HsCRVG8sfkmE/N874nR4nkUiOnTfWkZgOfx6BMzAjMqICIX973hDO2b0WYRFgI7BIb6ceh+BuAdrDxBAIEcARF5Q+ibT1u6nLrJi8C0BNr6bso2BuBpHTHqQWAPCDjnXp/yRlTl2QNENHEBBKr+mvvIALwAnYEmIDArAiJyUc6b0qy0gzgQ6BPI6eP1vAzAfcrsQwCBKAERubD+BhP7d1RlJEZglwRi+3VXegbgXTqAVIvAIgqIyOu63mxCti+iCW1aPIGQvhyShgF48foGLUJg1wS8968JeePpSrNrgVMxAhECXf03djsDcAQ6SRFAoF/AOfeq2Dehevr+0tmLwGwI1Ptszt8MwLNxPIkCgYUQKIriFTlvSAuBQCMWXiCnj9fzMgAvfFehgQhMT0BEXl5/g4n9e3qRUhMC6QKx/borPQNw+jEgJwIINAS89y/terMJ2d4ojqcIzKRASF8OScMAPJOHl6AQmE8B59xLQt54utLMZ6uJeq8JdPXf2O0MwHut59BeBEYUEJEXxb4J1dOPGBpFI2AmUO+zOX8zAJsdEgpCAIGiKF6Y84aEIALzIJDTx+t5GYDn4WgTIwJzIiAiF9TfYGL/npNmEuYeF4jt113pGYD3eEei+QhYCmy9ofyPrjebkO2WsVAWAmMJhPTlkDQMwGMdIcpFYA8KiMgLQt54utLsQTKaPIcCXf03djsD8BwefEJGYFYFROT5sW9C9fSz2i7iQqAuUO+zOX8zANdV+RsBBLIEROS5OW9IWZWTGYEpCeT08XpeBuApHTCqQWAvCHjvn1N/g4n9ey8Y0cb5F4jt113pGYDnvy/QAgRmRsA591tdbzYh22emIQSCQI9ASF8OScMA3IPMLgQQiBMQkWeHvPF0pYmrjdQI7I5AV/+N3c4AvDvHj1oRWEgBEfmN2DehevqFRKFRCydQ77M5fzMAL1zXoEEI7J6A9/6ZOW9Iuxc5NSMQLpDTx+t59+oAvHFk/cOHN884//CRs3y4OikRQKBXwHt/fv0NJvbv3sLZicCMCMT26670e3YA3ly/fWNz/fZDm+u3Hjqy/q6NzfUnPOmyA3eZkcNLGAjsFNi/f/8dvfd3F5EHi8iTROR3RORl+r8oileIyCXOuVeV9+E+1Xv/q5rWOXfX1dXVb9hZ2njPnHPP6HqzCdk+XmSUjICdQEhfDkmz1wdgHYSP/T+y9uXDl61dtnF0/dzzLztwJ7ujRUkIJAiccsop3+G9/wXn3Judc18IeUF3pLlZRK4UkUc5574tIZTgLCLytI4Ybg/ZHlwRCRHYRYGQvhyShgG4NgDvGIzXP394c/3CjaNrDzjnknNO2sVDTdV7TcA558pVhW4KeRFHptHB+OVFUfyHMVxF5CmR8ewYmMeIiTJnW0A/aBZF8WPlh7fXOef+WESuEZHrROSG2v/PisjHROQjInK5vkacc08QkXssLS2dOM1W5vTxel4G4I4BuD4Yb65/6vDm2gUblx88a5rHeM/Utby8fIpz7udE5MXlN7WrnXN/X3vhHXsReu8/5Zz7K32Reu9/X1ffcc492jm3tn///n89Flr9RZP49/VDsem303Jw/FpiHTsGs4Eybi2K4nd1sB+KK2a/9/7wQL29McbUpWnLU+3bZTrnPt/SZ64t37T1jbv6f5Vz7n31/7H1WqUXkdtyvDRvURQ/kBqPiDwmt37NH1u/iBTOuUNFUfxfi/qdc3/nnHv1ZDI5IzaWlPQWMWsZUxiAT9CfqJxzfy0i+tPUSkp7rfMcO+28c6D9+unoru1cvGVzKE499dSTyxfgB606s4jcqp+cnXO/LSI/tLS0ZHbqwiDG3gHYe39/Efm0QT29A1yzfOfcl/WFeeDAgTtYHFnn3EazjpjnsTE4534ppvyutLH1WqUv+2zUMWu2oSiKu6XGU/8A0yw35nlo/ZPJ5ICIXLz1bfeWmPJj0jrn3um9v19oTCnpYuLpSzv2ANwyM90t3vu3iMi9l5aWTkhpu0We5AG4HJi5eCvxKIjI6SLyuqIopvEtT09ZPdc59+8Twz2Wre9FFLivdQDWgU+/9QaWkfVG3VeH9/79k8lk9ViDE/8QkfP66hnaF1ut/q49VGbI/th6rdJbDEQ6qKXGM60B2Dn37/SMi8U3/pDjWaa5wvoMT+UcEUPva3bMAXjoteic+6iewj/99NO/pWrXtB5zB+Ad+bl4a/iw6elV59xLLD7xp3R+/VTsnHtQ6m9FKXU28hw3AJennPXiqN4X6bT2l6dwHzh8NLtTlFdoJ7enu+T2Pd77n7fwaS99/K0WH0S99z+YGqn3/lfG9nPOPbLsW8n9IiPGG7z3P5rq05UvI54dBmMNwHrxZuiHnfLYPG+ap6d3DKBdp5tTth/h4q3j+qyIPEB/o7HqtJnl6MUdevol6l9mnfqi2zEA6ydz59yHDMrd8YI2KO8WPa0bhVNL7L3/tZwYakUF/Ski5+bUV+UNqmyERM65r1YxpD7q7WmpoW29Ln85td56vrb69ZuViFxUT7cbf5cfch7cFmPqNqt2jDEAF0XxEylnVtTJOff6lZWV/akuoflGG4B3Dtp7/uKtk0TkeaGfxKw69VA5RVF8MLSjVOmGygzYf2wA1lPiRVH8bUAe68E1uDw9NVW1PeZx69P0E3PaFVOXpvXePyynvipvbL1W6Z1zX6liSH3MHIBH+Q29vMhqZj5gqrNeaW113FKPVTOf9QA8mUx+pLyuI/i13oxJz1Lq2Uorq7ZypjQAf/2irr128ZZOHFEUxRtbDm5Ox7DK+6i2TtG3zaAd2wOwiHzfDJ0N6PO8TU8d9pm07XPOPT7Hqq3Mvm3OuZ/Oqa/K21fHmPsM3iz1GOptOEn/9A6CyiDnsV65nhIXEb3+oq9/TX2fnmr13n93PdbUv63aZjkAq3vmfAHVMdELtUa9iG3qA/Aeu3hLv/leatVJjcu5KuXqaIMYri9nsrreoKzqhTLqY3l69J4xb1Ii8tic9sXUpWlF5Jyc+qq8sfVapRcRvS876zg65w6mxrN15f0v5tav+av6nXP/WUS+aFHmGGXoLYz65aCKN/XRKjarAVjPqjnn/sEirtSzXzGWuzUA76h3US/eEpEXWHSEEcq4bTKZnBnTUaq0ubHoKTDn3D9FlnOtTi+pp3W99z9bnl46qL+p60UW5bzLeqWn3kqU9SbelV+/rRdF8V2Vw9Bj7n2lQ+U393vvf7Ir9pjtzXKn9VxEvhQTZ1tavQc+NV7Lq8i37rN+hMVv2m1tNN729FSvKp9VPBYD8GQyOdU590mLmMY+9Vz57RgId/5u+/XTxtPcvigXb3nvf9yiI4xUxmurDhD7OFI8rYOmXrFdFMV/Cr1Pb3l5+d/oPdXlJBStZWbGfyTUK/eq2tB6qnTOuf+S2bZtr6q8aT9u3SqSPdtZURTrqXFbDcDl1e/Zk4pYHMuhMvQDq14BmWqm+YbqCN2fOwCfdtppdylnBrN43b/17LPP/lc5LqF5Z24A3jnYz+fFW8vLy9+0dVXqx0M7X2C6z4jIb+qpLZ1wQH9D1fsevfdnlVdXP1Lv9S2K4s/6bnHSmbW0s4Z2kGa6wFizXgR6YZZ+o2vWHfq8nNJvrN/dzw2JI3dijJA66mnKCUyy3PXY1suc5t8Wp2tzZn8Skf86jb4dUkd5JucGo98xe/uEnlnKOc4h7QlJkzMA61XmVjOJichV07wfWJch1BWQypWQdudb785Btz2Gebp4K/fNt9Fh9bexp8as5KM3++tp2XIayx0vQO/9z8zCC67RxnqM7xCRfTkxVnnLb8PW30Y+G/ICzf1NsWpD6GM5h3DdMenv0Pqs01kMNqk/q2hbyvtFk8x6+nJveeU30Lfp2tF6y4z3/rS2vqWDk3Pu7HIyHdPbGPWWm5z7XlPb3syXOgDr+2I5Z3avdbO+jufX6cyE1n07tLx5GIznYuYtvb2n4wBHdRK9WjHnTaX8Jv5Y59wnyniCT6F2dRqLdnWVoXNaW5/6sbq/sxHzs7t8qu25pzSrckIfReQ+jRij+lqVN7Q+63QJ1wUc176c14rVRCaVY8/jbUVRvF2XyNy3b983xzrqa9o59+sWF61VMeoHgNg4qvRVGbmPiQPwSd77P8itu8x//VgLs1RWMY/zMBhvzOLFWzqNoVGH0DeYrNmYqgNerqGrFytlT0Bu2LbmG+gVFldlVm2uP4rIsy3j1sFCf2+u19H8O/cbVbO8oec6y5FFG4fqGWu/ftjMjV9/jkmNT281y61/KL9z7r05s3XV26ZXfIuI/izVfB1FP9cLl0Kvs6jHoH9b1K9lJAzAJ4jIK43q17OMUXc5NB3GfD4fg/GMzLxl+I3rT8c8qKllG3X4HW8Szrm/GXMFJ73dSkT01PaOenOeO+ee0WeY+4beV3bbvvIUZXb72sqexjYRuTHneJR5k99Ey1XIsv062qATOmh/MV0qUGdqMnK73Tl315Tj3NHeaMfYAVhPxxvVrQvXmM4OluIYmmcuBuPdXDZRRF5k1DGeFHpQppnOqG31F+itOd9cQtu+srLiLW51qdqvy0H2nS7PnRoytF1VOv0EX8WW81iVN+1HoyvXdeWvpH9jDcDlBVUmZ7LaGmZ1+5kuWNBW/tC2nL5WzxszAJfXdtTfQ5L/nsa9vkOGqfvnYjCe9sVbukB2vWOl/q1TC6YemDHzpbanJ9+Lxoy3XraIPKsnjugXsd76Uy+//rfeC5pTV72skL/1CuCc+qq8IXWNkUbnCK9iSH10zv1wamy5H5jaYi7vBR5t8K3a6r3/3231R257blVezGNkHZ2vsdABuLxa3erCyhfEtHWW0876YDy1i7e2Lob5c6NOmfSJdOxOYtS26oV48zSvOtTfbS1ud6kZvKHLW0QeXktXtTf4savcru3lb4LB5XfF1lX+2NtnYADO+sDU4fnYsd20/NwPe2XsF6TE2tHu6H4YMgDrB16LVbPKmC+2/kkgxW+MPLM+GI968ZZz7j0WndI597YxDk5umRZtq8ooiuKFufHE5heRF1f15z4WRfHPelVqWwx6u1dO+W1l9m0rF3iPfuNrxthXx5j7iqL4x2Yssc/1d/DUGHM/MDVj1fnfU2OJzbe6urrcrD/h+ctj69X0CfW09tGhAVgvMixP57fmj4zjHTG3daa4zEqe2R+MjS/eKm8xsOgkughA8ty2Y3WAyI7e53Db6urqZKw4u8rVOlOWKOtqd9fKMrmLI3TF37VdL6LpijFme1f5Y2+3mL+3nDUtKVSr1aTUWj+YxUxbmhRwLZNz7htjjnFH2gtrRQb/2VFW3+u+dV/fAKxzx1vcJ14emw/q+uPBDVyghDM/GFtcvFUUxe9adUq9fzdn1qox+o5h2947RnwhZRpfEf38tjpF5CE5Vm1l9m3z3n9vTn1V3r46xtzXNmlMFVPoo84RnhqjzjEeWk9Auuw5lmPbERBT68BXy3dJbJ2avpZ/qPze/V0DsN6ba3F2ROPUGfb0bEFKOxctz6wPxsnezrkNq06p5eiqJdP8ND3UcKu26YL1Q3WNtd/yGDnn3tcWp97akGPVVmbftvKWlN43uZB4+uoYc5/F0pR6mjI1RqsBWE+T7saH5pBj25emKIrLUuz6yozZ1zYA67wFVosr6O1ak8nkP6a0cdHzzOJgnGxudTtIo/N+bDdO17YhNOJKfsPfzfboPNpW7dArXdt+T8q9PaTNvm+biJxu0aa+OsbcZ7Furvf+Xqkx5v5mX9k7516fGkNOvqr+1Ef96Syl/tT6mvmaA/Dq6up3isg1zXSJz2/OuUI+xWVe88zKYJzsp/eGWlzR2exo5Sm65PsckxvUyNiMK/H5ZxrFTvvpCXo6KjH24z50tM1upHP75pQfC2I1A1tsvVbpLQZgEbl3ajy5v9nXjvXDU2PIyVer/7j+GbJPF3FJqT+k7JA09QHYeHEFnWjjnJS27fU8uzkYZ9mLyAUhnS42TXlf4eOygsvMHBtzR/qk35syQ9+RXUTe1BFb9BuYziO8o/ClpaXc5QGb5Q09L4pCLNozVM9Y+2dgAH6ohZ+IFGMZ9ZWbG7uuJtRXfte+3Hqr/NUArBeUGd3XvP06nueJNrrMd2P7tAfjrDbq6VXD+9XaBoTXaUfNCjIxc/WCyXncmvf3iYnVm2XTpR1z2tDIe9ziDLpEZCNN23Hs3BbbUP29LKe+Km9svVbpjeY1vk9qPLkXzZV+t6bWn5uvOn4Zjx9IiSGjvh19vxyAdXGFt1iVqdNVprSJPP0C0xiM+yMI2CsizzfsSDs6a1nuX+ryZQGhmCaxaJOuaWwaVEJhRpMXVMfluAk5vPf3y7GKbdLy8vIpOfVVeWPrtUpvMQA75+6bGo+epqwMUh/1DFVq/bn5UmOu8jnnPpQSQ5U/91FvDXLOvTq3nCq/c+73UheYSHHYq3nGGoyzPctTKe+vOsQYj3pv3LSnrLRoh/5emQ2cWYCI3MOiLVqGc+6dzXC89z+eU36zvKHnuoZyTn1V3qF6xtpvNAAnf7CzGIB1rvGxfIbKrY5fxuM1Q3W07c+or/rwWj2+zLCsK8daWa3NgG3/ImA5GJuY6u9BtbV4q442xuMrTz755DuZBD1QSO6LRL8l9C1iMFC92e7yKkuTY+G9/3AzMP2Wn2PVLG/o+SmnnPIdOfVVeYfqGWu/xQDcNSlKSMy5t42pn07AEVLXGGmq45f66Jz7fylxpdY3Yr4PrK6u3jmlLeSxE8gdjM0i0d+DdeWcETvc9iCig8Dq6ur3mAXeUZBBO67tKHqqm3UxdIO2bNvrPazN4LfmBL9PTvnN8oae629oOfVVeYfqGWu/xQCsZx1S4/Pe/1RlkPF4Y2r9ufkyYq4+hF6XEoNBvVX9Fo/XTXNu+RSvvZgnZTA2dSrv0fzsFDrrTbpaiGnwjcIM2nBVo8jdenqiiJisqqI/BTQbofek5lg1yxt6bvWBYqiesfaLyKdzvDRv5gD8k7n1i8jnxvIZKjc3dv2SMFRH2/7ceg3z36CzZrXFyLbdFXj0+w7c4fCR9XMOHVl/18bm+u0h/80j1kFYT/MYdri+T4wXjbXAvUH8f2KOm1igiNxs0B49Djc1Q9BZmXLKbpY39FwnA8mpr8o7VM9Y+40G4Pulxpd737b6tZ0JSY0nNl91/FIfU2NPrW+EfDcXRXG3WDfSjyfw5KP3/M7DR87YOLR5xidDBt16mlGi0inq9IKdETpf22B8zRhTr+XGrrcZjIKbUKjRIvD6xvvlZvW6MECOVbO8gOcn5dRX5Q2oZ5QkRgPw/VODc849qDLIePx0av25+TJirt47kr69G9Rb1W/x+HFdcjTXkvx5AocuP/P0w5trFxzaXL+pPqjG/J0XQU/u8pvKhdPouHpRiE6J2BNO9C6DuC+KrnSkDFZrA2/d1/z5Zog69V2OVbO8kOcWp9RD6hkjjcUArPdep8aWO3GKHuvU07ipMdfz5fQ1zdvWh+vld/2dW691fufc5qKu89t1DGZh+/nnL514+MjavQ5ftnbZxpH122IG27a0Y7fpBO/9ky2XxevpyPo757Os7onrqSfoE+w010ntO4hGS7hVbT7um0/unOB9sXftK2dKq2JKeuwqe+ztRgPwA1Pj3OsDsH4YTbHLfT+o8jvnXmU1eZFz7tdT2kKeeIHzjx688+Ej64/euOzgNW0Daeq2+EgScpTfkrIvPqk6cd+jLpN44MCBOySEuSNLXx0h+1JXXdkRhMETq4kryjZ/pBmS9/6sEI+uNM3yQp7rfahd5YVuD6lnjDQWdwroIJoam4g8MNSoJ91xH8RS44nN1xNT0Aextp9RQmLIrbeW/+Ei8vTa86C4O9LfOguT/YT4zWuaw1esrx46uvacjc2DN6YOsn35puZS/i682dGRcjphW94rdaLznMblxpm66kpOzG15LVdE0rlrm3VMJpMzc6ya5YU8158ccurUvCH1jJHG4htw5gCcNXWo2s3zKWg9G5dyXHP7Wy2/LphwonPuj2vb2t7DQrfdsLKy4lPaRJ5ugY3LD5516Oj6JRuba7f0DaC5+7ojGGePnpI+bHUKZqADX9m2fF5oswbKDnlxvDu0rjHT5V4k1XA47ndt59xaI02IzbE0KW23uKgspV6LPEYD8INSY/He3z/neJV55/YbsMaf8jOVgdl2n68+PE0mk1OtVpPTtbp3a8781H44i/nO/5Ozv3Hj6Pq5G0fWP5Q7sIbm3xUH/dY0jZmzvPd/kDoblcELbreXItw+tiLyKIO2VAPmcYsxOOcO5pSf0gGdc/+QU6fmTanXIo/eBpMbu95KlBpL7tzdZexzPQCn/ESVe8yq/PVZzCxuCavKFZFXpvaJvZ7v0KVnnnx484zzN46sXx86cFql2zX7lZWVb9cBstaBqjd500fn3G+lNNIgrtuWl5e/KaVuyzze+/9p0JbtY+K9/9lmbN77u+eU3ywv5LnFbFIh9YyRRiexyPHSvDlX/OfO3V3VqzV5AAAZTElEQVTGPtcDcMrrMveYVfn1vvl6v/Le/69qn8HjqJMT1eNehL8PHzl44PDm+oWHjqx9zWpAjS1n1x1F5DGGE0W0Dd66UHX0AuYGLwadM3fXZ6wx/K1Jbb+v2WEmk8mBHKtmeSHPnXOfzKlT84bUM0YaEbkxN3adTjI1NqMBeNfO7uTaaf6U60Ms6tUynHNn14+dfhjQFZqMyr9ZX4/18vl7p8D5l+y/o85WtbG5/u7YwdIq/aHN9a/o78tPPrp25s7odumZiHy/iFxj1AmPG4R1Zq7YVUMsYql+79klVq32BItvXKXFTW2n7oqi+IEcqxQbEfl4Tp2aN6VeizwWF5Dpggqpsegp0Fw7PQORWn9uPoPYb9ezb7FxWNRblnHPZt3e++81/BJyLZN0NIWXlp5y6cF9OlvVxtG1T1sNpLHlHNpc/zu9ovrQ0YPLx0e4y1vKSfavMOzoOwZi59zjY5poEYf3/r/H1GmdVmcIs2iHltF2BbTG65y7a04dKW12zv1NTp2aN6VeizwWt1DpkoKpseSuXlW6z/UArCuExfrl9rcqv17/0lZ3eSZwx3tWlSfh8XIm6fgXZT3NfOjo+ssOHVm7OXbAtEp/3ub6+/QeYr3Iq+3Yz8w2vWBKRF6U0OEGO66+acc01CIG59z/ianTOu3WVZaPs2iHluG9f2ZbfLm3ObWVObRNRK7ObddQHWPtt5hEJHMAvm+u3bx/Ay6K4rtij6+B2fZ7VFEU6x1169mqP7Sqx3t/fkc9C7/5nEvOOWnj6NoDNjbX3241iMaWM3OnmWOOejlw6G+3gwNrTBq9ZSY0jphyu9LqTf8pF3yExjiUzvIity673G/ZQ21o2++c++su89DtbeVOY9vWJAwW/fohqbHmLh9Z+s77N+DoU4Ch/Woond410HXsdK1ri4layhhuzVk1qyvGWd6+8fYD37qxuf6Ejc21T8QOmFbpZ/o0c8zB0+UGLeb8bbwgnhoaQyNf8gcBve8ytE7LdHpfoM57a9GOcgWZE9viW1lZ2Z9TR1uZQ9u89+/PqVPzDtUxxn4RKXLj1vzOuYemxqcXJBrE8NnU+nPzGcSur+UiNg6jevVM0t376i7v27f4kKbtvL4oCumrbxH2WSyKkDsAz81p5pgDrqdRrDp+Wc6lofVb1euce31onZbpjFa92f7g4b1/aVdseqV3jlVXuX3bReRdOXVq3r7yx9q3dfHYublxa37n3E+nxsgALLevrq5OYv0sjpuWEbKUoIg826o+/bC6iJN0WC+KkDIAz/Vp5sAXgC4m/+eGnfHDgfUuWdWpa+iOtWZxX1u8979v1YbJZHJGV126/nNOPV3l9m0XkStz6tS8feWPtU9E3pAbt+b33v9Maoze+3sZxDDX34C996fF+hmYbX+Y1YsWh+our4Uxe9/TBSCG6pyX/YcuPfNb9IKm8zbXPpIyaFrkWZjTzCEHfTKZ/IhV5y+K4h9D6tQ0VnWW5fxiaL0W6fQ2C8MlCD/aN3Wf9/67c6xS2isiR3Lq1Lwp9ebk0StvnXNfyY1b87dNiBIam04EkRtD6qL2oTH2pcuNXfOn3J9vUW9ZxnH30re1V08dW/2EVNY71fegtjblbDvv6BmTMRdFCBmYF/I0c8BB0asDsycv0E4YsxKK4QtOP/l+vO0e2oC2JyXZmnD+aYbxP64vCD2dl1NXX9ld+3Spx5w6NW9X2WNtt/w5JWcAtvhA65z7+7GchsrNPe6aXy8cHKqnud+i3ti69acGq3r1PmPv/Q822zXrz6e1KELXALwXTjMP9oGiKP7MoiPGLMZtUV+jjKl8At23b983W8yVXMZ+vZbXd4B0JZZGO7dPtYVu6yu7a58uORlafk+6fV3lW29fXV1dtjojoe3x3j8sNUaLxTm0f6XWn5uv53jG9Lvvj43DqN7ob9/OuVdb1S0i1+mV1rFtn3b6alGEQ5trH+waGMfevqdOMw8dYBG53KITFkXxt0N1Vfst6quXoXU7576tKn+sR+fcS+r15vztnHvGUJzOOZdTx1D5bfuLonhFTp2a1zl337ayR9imK4C9JTfeRv6Hp8apUyE2yooZuLbTxvyUkxpnV77c2DV/yIVQzfot6i3LOL1Zdt9zvX7EOfdRw/qvmNVJOqpFEQ4dXf/c2ANsV/l79TRzXx/U2ZbeZ9EBu2Zzaqvcor6WMi5uq8tqm4joWq+3tdQb/SarpxlD5sz13q/k1JfSdhH5nZw6y7yvTak7Ns/WWZcnGsTaPH6PiI2jSm8xAOv0plV50360sBy6FaitTRb1ahl6zURb+X3b9AOD1fUDZTue1VfftPft9qIIc3uaeTKZrIrI83Vty7EOmg4CVvOkFkXxwtA4rV5wLeWMsmKJTsLunPunlvqab96hzx8TYlWuaxpa5nHpQupophGR5+a2U68HSLkftBlL33Ndbs5o5qum27l99fbtc879cK6d3l/aV8eY+wxi17MfwRPyVG2xqFfL0PfMqsyYR+/9r1nFoJPB6LKUMfVbpz22KMJla3/R9W107O3zfpr5ROfcO7VTOOe+4Jx7wtLS0knWB8pyPduYdVQNO/uON8+iKL6W8xtem69e1Wn4u68ez/eGHsvl5eVTcqza2jO0bevWrvNy6qzy6kpRY52O0wUTjL+1HOtHzrmfGzLq2i8iP1S1P+Pxhq7yx96eEfMxv675mPtit6hXy9BrJvrq6dmnF6NazpV/Q0YsPWH27zq2KMLm+qfGHmC7yl+I08w64DY7pXPuPbqyR/8hCN+rv5mKyKeb9aQ81288IadUq+hS6ojIozPdBH3DrOLpeiwvqrk+ou5jb0RtefQbm65w1FVfc7vOq9tWTui2Znkhz3MXgGjE9uK+26xC4mmk0XvXn2X1U0Aj1u1jlzkA37OtzMhtNzbaPLWnkXG29nU9CxAbsEW9WkbOzFQisk9vAbOKRUSumtZUuef90drddnNRhLk9zdzWUctTzze1dYTylNuzTj755Du15Q3dprO3FEXx9rY6UrbplbOhdWu6lDpi83jvj6Z+Ci1v1v9v1qc4vfeHI532xba7nj6mrlraEyzWBK7i0IkKLGYL0nl+ra5XqGJre3TOPbJmEfWn9/6stjJjtsXcTRAVXEDimDi70uqtWAFV7UjSVVbsdr1ocUfBkU/K1axMrvPQ2L33r4kMISl517fRsbfP+2nmNuxjp577Op9exCMiT9FlBtsK6dumnxJF5C/6yo/dF7tQdWz5qen1lLROV1l+Kh88ha8Dr84vLSIfSK2zK59z7m2xp2Qnk8m/7SovZHtfP+jbV37LbP2GE1JvS5qrelaq6QylXEbzHD2dPea33nq83vuf7wxoYIeefq2XlfK3XmswUM1ou1Pibclz79gAW8pI6nt60WJs3c30zrnftopHy3HOPbpZh/XzsQfaZvkLcZq57SDELnFXXhh0sb5p6P2QbWVW28qBVy+w+ZJlBxORN1V1hD4a1x/0YtXbOzTWrYsknq7TDepqJuXcveds3Ueq33Z1oLY8BXUsLr3VIWUh79NOO+0uOVahx6OZTt/I9MNLTt0teW/TsxLe+59qsThJTwHqZAbal0XkBTpN6ggxHDsmLfFt7/Pe/0LTI/S50QD8hdD6rNN1mcRs12+RsXHFlN+X1uKC1dXV1W8Qkb/sqydmn/48l3JleIxhc4Ac4/lCnWZuw9XTJ0VR/HPMwW1Je3O5oPo7ROStInKJnmq2WGS9pS59w7op5VNnR1mDb45VPv3god8oq+ez/KgDf8rtEdpHdKDKaVtbPwvdpqeOc+oOyHuLiNygV/0GpA3uGwZlJV9Jr/N6G9T/xdBjZJ3OIHY97Rp9BbBFvVqGXrRoYVLOwf5Fq7icc5/QD9MWsbWVMcaAW5W5iKeZ2wz1KjwdMKf5RmNRV9ItGwbtvF5/V7SaRMQgni7Lz4VMEN/WIXRbeaFcV9mD27vKDdmuHwjL24kG6xnRL7Ru/d3uSUZxPCrEpy2NnmY3iOGmtrKnsc0gdj1eD4yN1aje20899dSTY+vuSl8u2Rra/0LSvTX07oeumLq2V4Ol5ePCnmZuQ9QLP6w64bTKibnvt9lmgxi375UsTxdlLx5gEM9xL0D9nT7miuemkT4vfwM9ruzQeNvKjNmmp+tD69qtdOWFctuTZxjFkDwA6z2wBjF8KeYYWaY1iF2vRP6J2Jgs6tUy9K6B2Lr70ovIxVaxleX8Rl99qfusBt6FP83cBWwx+YFxR+l90y+v7mtdRL6rjfXtBrEem6xg//79dyx/2+2N2aDOmPKvzrklorIqJ0qJqXdH2qqc1Ee1dc791ZTtdrRhoO4v1n9zHEgbWm7yvOJ6pbZBDDenHq/cfAaxq/GDY+MwqlfrNp2DvDwDdZ1hfHqm5gGxPkPpcwfgvXKauddRfzsRkY8ZHuzQN5zYdBfEXs3bbLhBG48NwGXZen+oxRSKsRZt6d9kNS+1LtaQY9V0T3muv18bL93WZpay7TPNq+9zrKq8OVetisg9qnJSH/W0f8pxssiTGnM9n3PuobGx1PPn/K13DcTWPZReL6wzvhjwRl3lbKjemP2pA/CeOs0cAqo3bnvvn2k1PWROZ27m1Rm5rGaZapad8Lw5AG/z6tzAY82QNBRj6fMrIcc5NI32h6F6+/aH1jOUriiKH9st17b26bfytite29LGbnPO/dKQR9d+vdo1tr5menXuKn/s7c1YUp6nLOeYUk9bHl0XegwjXTilrb6MbR+wnKQjZgDes6eZYzqGTsbhnPujjAOc8o2iL88fDt3mFNM+g3a1DsAag06uLiIfMaijz6O+T08rXWR5AUhlWV5oVq8r6u+qHIvHcvrHr07Rtautr9VVbNraZBHb1q1ov9xWdsg2owH4qyF1jZHGwm9rfe7oCzON6r19xOUA9Ta5P7WKU6ej1Z8rrI5hyADMaeYEbX1BF0VxmU7wbXXwY8rR+ah1OsaE0HuzxMTQkbZzANaKdaYwEXmafivtyN/15h6zXQfeK3T2o97GZuwsf9+OiWlH2oyqW7N673+0vHVoRz0jGtfruXHozd0iDu998lkMvY85NwY93dmKP4WNubFr/pSJTCzq1TJa7i83U9NbnDLnhP+MiDxvdXX1e8yCKgvqG4A5zWygrb8ZeO+fYzV380CH14k6XpuyqkloUwfqr7/pdv3dOwBXcehFGbqilPG9pnrf6stWVlb2V/WM9VhOidllMLh9jLj03qQp3/6lE3i8JuQCG4N+pQPIr6a66W/SBjHcklp/bj6D2LVPRl9FblSvzjo16prg+lNMzJch/T2/KIo36vU9+lrOPT5d+ZsDMKeZu6Tyt+tUlWs6GOviDFYXB5Rz/75OTzN2nd7LD/3rJRi84IIG4KrG8lTuI5xzb074BndTuRCGfgC651j38lWxNh711NfgQNuVplGW6VN9U6lW7OqqP2e79u1ydrK7hgaeU1+VN2cALn/+SD5eZQy3hrbXOl1lkPOY8ht6Tn31vClT88Yall+Eho6xTvX7mDG/kdfjrgZgTjPXVabwtw6WOs+xnjYTkReVp6t1GjU93XFDNUCXp2J11qFr9E3TOfd7eopWB9yUmaxym1Z/0ST+HTUAN+I9Se/P1eko1cB7/1L9Rlve86cfQvQbs07q8BCdEWfKA24j1CWdoGXoxd65v1nYGM918oly1qzP5sRa5tXT+u/WqUFT+qVB/WqZvJKW9iuDGG4b4ziFlKmLXdT/64o+5Z0ZendG9f/a8kOsvp9s/69fJZ/yAcbAbPs1sLq6eueQduakKc9Kvasl5o/pBbSps97lxLSxuf6eQ0fXHqbrAOeUQ949ItDSeTsHkY60OQPwHlGeejNP1GsWnHOP11vCnHObWx9iri7fuHXZy2Nv2OW2q3U6Uefcq3Vhka25n+8z9inEqYtQYZDAysrKt1v8N176sjN2vQJfRD6nfVo/wJfXgZzQmYEdCMySQMegGjMIMwDP0gElFgT2mIBOtKMz8e2xZtPcRRBgAF6Eo0gbEEAAAQTmToABeO4OGQEjgAACCCyCAAPwIhxF2oAAAgggMHcCDMBzd8gIGAEEEEBgEQQYgBfhKNIGBBBAAIG5E2AAnrtDRsAIIIAAAosgwAC8CEeRNiCAAAIIzJ0AA/DcHTICRgABBBBYBAEG4EU4irQBAQQQQGDuBBiA5+6QETACCCCAwCIIMAAvwlGkDQgggAACcyfAADx3h4yAEUAAAQQWQYABeBGOIm1AAAEEEJg7AQbguTtkBIwAAgggsAgCDMCLcBRpAwIIIIDA3AkwAM/dISNgBBBAAIFFEGAAXoSjSBsQQAABBOZOgAF47g4ZASOAAAIILIIAA/AiHEXagAACCCAwdwIMwHN3yAgYAQQQQGARBBiAF+Eo0gYEEEAAgbkTYACeu0NGwAgggAACiyDAALwIR5E2IIAAAgjMnQAD8NwdMgJGAAEEEFgEAQbgRTiKtAEBBBBAYO4EGIDn7pARMAIIIIDAIggwAC/CUaQNCCCAAAJzJ8AAPHeHjIARQAABBBBAAAEEEEAAAQQQQAABBBBAAAEEEEAAAQQQQAABBBBAAAEEEEAAAQQQQAABBBBAAAEEEEAAAQQQQAABBBBAAAEEEEAAAQQQQAABBBBAAAEEEEAAAQQQQAABBBBAAAEEEEAAAQQQQAABBBBAAAEEEEAAAQQQQAABBBBAAAEEEEAAAQQQQAABBBBAAAEEEEAAAQQQQAABBBBAAAEEEEAAAQQQQAABBBBAAAEEEEAAAQQQQAABBBBAAAEEEEAAAQQQQAABBBBAAAEEEEAAAQQQQAABBBBAAAEEEEAAAQQQQAABBBBAAAEEEEAAAQQQQAABBBBAAAEEEEAAAQQQQAABBBBAAAEEEEAAAQQQQAABBBBAAAEEEEAAAQQQQAABBBBAAAEEEEAAAQQQQAABBBBAAAEEEEAAAQQQQAABBBBAAAEEEEAAAQQQQAABBBBAAAEEEEAAAQQQQAABBBBAAAEEEEAAAQQQQAABBBBAAAEEEEAAAQQQQAABBBBAAAEEEEAAAQQQQAABBBBAAAEEEEAAAQQQQAABBBBAAAEEEEAAAQQQQAABBBBAAAEEEEAAAQQQQAABBBBAAAEEEEAAAQQQQAABBBBAAAEEEEAAAQQQQAABBBBAAAEEEEAAAQQQQAABBBBAAAEEEEAAAQQQQAABBBBAAAEEEEAAAQQQQAABBBBAAAEEEEAAAQQQQAABBBBAAAEEEEAAAQQQQAABBBBAAAEEEEAAAQQQQAABBBBAAAEEEEAAAQQQQAABBBBAAAEEEEAAAQQQQAABBBBAAAEEEEAAAQQQQAABBBBAAAEEEEAAAQQQQAABBBBAAAEEEEAAAQQQQAABBBBAAAEEEEAAAQQQQAABBBBAAAEEEEAAAQQQQAABBBBAAAEEEEAAAQQQQAABBBBAAAEEEEAAAQQQQAABBBBAAAEEEEAAAQQQQAABBBBAAAEEEEAAAQQQQAABBBBAAAEEEEAAAQQQQAABBBBAAAEEEEAAAQQQQAABBBBAAAEEEEAAAQQQQAABBBBAAAEEEEAAAQQQQAABBBBAAAEEEEAAAQQQQAABBBBAAAEEEEAAAQQQQAABBBBAAAEEEEAAAQQQQAABBBBAAAEEEEAAAQQQQAABBBBAAAEEEEAAAQQQQAABBBBAAAEEEEAAAQQQQAABBBBAAAEEEEAAAQQQQAABBBBAAAEEEEAAAQQQQAABBBBAAAEEEEAAAQQQQAABBBBAAAEEEEAAAQQQQAABBBBAAAEEEEAAAQQQQAABBBBAAAEEEEAAAQQQQAABBBBAAAEEEEAAAQQQQAABBBBAAAEEEEAAAQQQQAABBBBAAAEEEEAAAQQQQAABBBBAAAEEEEAAAQQQQAABBBBAAAEEEEAAAQQQQAABBBBAAAEEEEAAAQQQQAABBBBAAAEEEEAAAQQQQAABBBBAAAEEEEAAAQQQQAABBBBAAAEEEEAAAQQQQAABBBBAAAEEEEAAAQQQQAABBBBAAAEEEEAAAQQQQAABBBBAAAEEEEAAAQQQQAABBBBAAAEEEEAAAQQQQAABBBBAAAEEEEAAAQQQQAABBBBAAAEEEEAAAQQQQAABBBBAAAEEEEAAAQQQQAABBBBAAAEEEEAAAQQQQAABBBBAAAEEEEAAAQQQQAABBBBAAAEEEEAAAQQQQAABBBBAAAEEEEAAAQQQQAABBBBAAAEEEEAAAQQQQAABBBBAAAEEEEAAAQQQQAABBBBAAAEEEEAAAQQQQAABBBBAAAEEEEAAAQQQQAABBBBAAAEEEEAAAQQQQAABBBBAAAEEEEAAAQQQQAABBBBAAAEEEEAAAQQQQAABBBBAAAEEEEAAAQQQQAABBBBAAAEEEEAAAQQQQAABBBBAAAEEEEAAAQQQQAABBBBAAAEEEEAAAQQQQAABBBBAAAEEEEAAAQQQQAABBBBAAAEEEEAAAQQQQAABBBBAAAEEEEAAAQQQQAABBBBAAAEEEEAAAQQQQAABBBBAAAEEEEAAAQQQQAABBBBAAAEEEEAAAQQQQAABBBBAAAEEEEAAAQQQQAABBBBAAAEEEEAAAQQQQAABBBBAAAEEEEAAAQQQQAABBBBAAAEEEEAAAQQQQAABBBBAAAEEEJhhgf8P9M0mAVk17tEAAAAASUVORK5CYII=;" vertex="1" parent="1">
          <mxGeometry x="190" y="262" width="50" height="50" as="geometry" />
        </mxCell>
        <mxCell id="guoJjqlwkhtF7B335C00-46" value="" style="shape=image;verticalLabelPosition=bottom;labelBackgroundColor=default;verticalAlign=top;aspect=fixed;imageAspect=0;image=data:image/png,iVBORw0KGgoAAAANSUhEUgAAAGAAAABgCAYAAADimHc4AAAAAXNSR0IArs4c6QAADAtJREFUeAHtnXt0E1Uex+Njj/s8/oNKJnWxM+GtoFKgBWxTEFoqtEmhFEWXgtjKQ+hx1xZpZzryKKDSFXktB105HAQpCk2bBBGVwgIF27QVapOStA2Li+tjd2VRFrD0t+emvTXNJJlJyEwmaXrOnDu5c+/v/n7fz33MzSSpQhH9iyoQVSCqQFSBqAJhpECMmtUQFGMgSPoyQdE/EhTTTFAlm5QUPSqMwgg/V2PI4oEqijERFAM+DgMqF37RydxjFUX/gSDpKz6E74GipJirBMkUKhRZd8g8LPm7d2/sivsINV0lRHj3MspY+uj9g1lC/lHK1EOlmkkhKOaSu7B+vSaZb5AdmYYoT7dIsvBugix+yy+hfa4L9E0lVbJKoWHvlGfEMvJKSbGpSpL5uy/xn0jPhyMHM+DKhUTncfiAFtLSl/WsAd7qKtXMmRiKVcsoXPm4olKzMYS6eLc38XD+q2uegc5vxgN82/u4+fUEWLfqGV4IBMV8r6SY5xQK9nb5RB9CT+4b8affoDsWoXc437Qkc8THMP5pmSgEQFcZstgcE8uOCWHooW2aGMT2Iyi6gKDor3DvFpL+zTTNK4BqQ7pwAF1rRoeKKtne/wH2gdCqIWHr/Ul6NEEV71RS9P+ECO5e5o/5C7wCyF/6nL8AukcDcwNNf8pY+jEJpZCmqXuGsb9VUexEgipZ3/WWgc9dLK+A5LBi+M6m4UBAU1Ps0GLe+u5AOa9Jxq4kSzaoSGZSv8EFv5NGJRFaIUh6PkEWmwmK6eAE6fOWkR9QXu7zvRZitCgvWPD8rYvP9asDxaCi6BwRJBLXJEEy/w228K72li7JhUtfTIJ/NE2ExYvyxBDf1eb34qolgnWVmnnfVbBwPleS9H4RJBLXJLrFC2fRXXzvVJJsnLhqiWSdoIr3uATiOqTD5lxFFe8SSR7xzd5HsfcqSeZLfyHEDmQgZfQKmKOhYcGUVyBv2qswL2MrPK3dAbO0u2CGbjc8kfk+TNFVOA90jvLQNVRmfsYWZx1Ud05iMaSOLoIBA2m/oStJ+mJ/9cv3iK+UiC0QFDtOSdLXfUGIGUhDevwKyEtdA3O122CyrgKSdMagHsgmsp2buhrSxxYBatOXT8hnlZqNF1Ea6UyrSGahp2DHP1IEeWmloNXtDarYQuDpdHshb+oaGD+yyCMIJUXnSqeQBC0RaobFEMaOLOrInf5nSNYZJBfeHQ7yITe9DBJGrOgBoaIYWgJJpG+CUJesjX9sUz2au92FCPVr5NOkpDKrkmJWS6+MZC3CbfxCG2DC9N0wNqUM4ibR8IhmKYyYMA+GJ8yEYWOmwtAxU2FwXDIMjtPAoEfjnQc6R3noGiqDyqI6qC6yMTa1DCZMf5cXukZnAMmkCE1DHgBoKyEhbRs8mvwSPDhuFgxxERYLHKwU2X5oXDY8mlzgbDNJV9ULSp8CgER/OHFhr54cLKGF2kGj5uHERZCQ9hcniD4BID51IwyP1/ZMH0LFErvc8IRMSEjdGOlTkELBJo+8LraYgdpfmTziWmimZglbvZkd+9PGxx+CIaO6FtBAxQpmPeTLlskPws3s2OsSSiF9U6BQ3AbZJKCjSTsIZo2LC/lUpEuIg/qMwU6fIJvslF4VCVt0BYAgdM6m4KT+TVi6JAeGxiVIBmNIXALkzJsNh/ash45sCouP0r4FAGZTAI5K53HJvBvK31oJLyyZB3GJP9/jB2uqGZ2Y7ASN2viqbndXu+16V/H7NgAMAqUdbXpwnNoJn75fBm+/WQT08oUwf/5ToMvSwdT0aZCcmuKENGz0OEAHAoby0jKmOcugsqgOqnv0gzKnLWTTtQ3neZ8DcLJoAOQMuYrXAdcRwBGne2SImu8OYP6wH6B21WAJZ2XpmoK6kt/DZ+y/oboAYNnorqHvMgWJKrQ3mK4A8scAHF8OUMf+C06zMdIpI1FLUMt+AHUsChCgpgjglXTwNQKshjVQmj0U1s4eBi3Gtdzpw5uo3fmC6mMAKzMAaoq7fOvycZ9EskjXDNSyV3oAoCDbKgDenOtVWCT+8hSl81j35HCv5byNHEH1EYBN8wDaK1zFB6grCb9PQfCh5ADg6cGCBPRhw7/6+t4Aatn/8MUTdtehjq3oNQJ8iId6tdVQ6px+nFOQKZApyJ/6HADvhZ3AfA6juwvnIozXAR4A3qYWUfJ7TUEl30HjahVfPGF5HT5bfT/Usfuhjr0MbQc6RREzELBtH3Q6fapj90XkHZCn3gIOfaNsADgqaz35GNF54KjcIx8AFeH74atAewk4qhbLBsCFysj6CIoQKHBRr5YFgHZ9J7QZBwjxOeLKgKOyJuQQ2vXHI05YoQGBo2pOyAFc0GcJ9TfiygGU3wGOSmvIILRXNgH08a+rwgX95JABcFROjLheHUhA4KjcIT2Eii2B+BqRdeBi+a/AUVkrIYQasJnuikgxAw0K7AfulWg9aIZLVf0C9TOi63VDEHMknI6Kz9OFnNNRe+X24E9HVVuh/egveZqPXkYKAChug7MbAFrL/X4SxgGHbDS+Htmf9wl2t3ECQM8NzCzAuY0Atr0ADg8fK/H61rMewLYH4OzGriddtWwUgD+QegDghzcobSgFaNoC0LITwP4eQNvBbih6gLYDXXnoWtNmgPpS90eMUQC3DMAVhr/n0RHgj/zda4C/IvsqHwUQBeCfAiEu7XEN8NXD+a5FRwA/0dy6ul8UrDlZ2GBp3dxgtTmaLOeg9Ytj8NXZA3C54S24YV7fe2H1IToqi+qgusgGstXQbLfXW1o35LMn8hVsH38H1BVH2V9ryYKVJwy6eYd/0mQaocFq93p4gtIl9o5usau7xPZio95id34ZL2Pu4RuLVlQfXPTisftdfelT5y+yx9KfL6y2TJ5l6vmqKB8Adzhrt5yBtZtPewXmXh4DwN9VnjjT1DlnySfNzyz9NK1PiD91qukubc5HOTOe/egSFsE19QcAEh/XFQrBHQCuj9Lpcw9/OSX70KJR06t+HXEwJmQaSI3OtG7iTONl16Ddz4UCcBUf2xACwRcAbEeTafghKcO4Efkc3iBY9nZNpuHxJJ2pPFFr7MAB+kqFAPAkPrbJB0EIAGwrSWu8+ZjWeCRJZ8jKyioPn5/BfzzryN2JWuOyJK2xtScYgb/9IysArj5rja2JOkOhZrqMnyMkaw2jkjJN25N0xh/9FR6XFwIALayeRgFf70f1/BoBrgC6zxN1hmtoRCdnmsbLbHry8CMcHgLAQntKkzNNsPDlY4LuaE41tPQswNhWzefneesiAAuXVwNqC9cLLDXI7c29wAGkPHkI6NdOwZFTFl4B8W2l6dgXHAE/PN4suD5qa9UbpyHt6Q85doQBiQAAc5Z8Alt21cGZc/w9FwuP0z36zznC7a06KxgAtlPbZIN39jdATv6nHHu+QYQpgElZJljGHIcDh8/5LRYWDaVbd5k5gm3bbb4lm1WfNMHLa0/C5FmHOLa5MMIMwIxnP4LXtp+BE+aWWxIJQyjd/PMmDIsjZBHG9X2lNY3n4Y23awH5jG1z0zAAgBa6516qdg7x+mZbUITHwhWsPsERp7D0RFDbMFtssM/wuXPEama4L9oyBhDIooqFFZrmvlTNAZBXWB1UAK6+cBdtmQFgj8KdTy36+Nr2PWZAC5ur82KcZ+V+zAGQnXdE9HZRbNvfNcOcxR9ft9ls8vlkXaPFNkUMob3ZTJnNXSjRyPNWXoz8Rktrpmw2Y+YW+ztiBOnJpqdNGF4khWzGPNkMLK+1XBYA0FBssNi+DywI7w9fvNnztAnDAPzZjHmzLzjfYrtqtVpD/y9OzM22eMFOe3lS5U99T5swDCCQzZg/bXPKNrdNDvkoqLfYX+A41i10IG9+ebOF8z1twjAAvs1YsP1ptLYWhhxAQ8v5nVgc9zTYASP7njZhGADfZizY/tRb7aH/TYnGFnuNu/D4dbADRnY9bcIwAL7NWND9sdgaQz4C6q22Fiy4exr0gK128LQJwwD4NmPB9qfe0toWegAW29fuwuPXwQ4Y2fW0CcMA+DZjQffHYv9WBgDs17Dg7mnQA7bawdMmDAPg24wF2596iz3yf+o45D0s6kBUgagCUQWiCkQViCoQmQr8H8Bz8Ud8mtbNAAAAAElFTkSuQmCC;" vertex="1" parent="1">
          <mxGeometry x="680" y="362" width="43" height="43" as="geometry" />
        </mxCell>
        <mxCell id="guoJjqlwkhtF7B335C00-47" value="Security Analyst" style="text;html=1;align=center;verticalAlign=middle;resizable=0;points=[];autosize=1;strokeColor=none;fillColor=none;" vertex="1" parent="1">
          <mxGeometry x="730" y="368.5" width="110" height="30" as="geometry" />
        </mxCell>
        <mxCell id="guoJjqlwkhtF7B335C00-48" value="" style="shape=image;verticalLabelPosition=bottom;labelBackgroundColor=default;verticalAlign=top;aspect=fixed;imageAspect=0;image=data:image/png,iVBORw0KGgoAAAANSUhEUgAAAGAAAABgCAYAAADimHc4AAAAAXNSR0IArs4c6QAADAtJREFUeAHtnXt0E1Uex+Njj/s8/oNKJnWxM+GtoFKgBWxTEFoqtEmhFEWXgtjKQ+hx1xZpZzryKKDSFXktB105HAQpCk2bBBGVwgIF27QVapOStA2Li+tjd2VRFrD0t+emvTXNJJlJyEwmaXrOnDu5c+/v/n7fz33MzSSpQhH9iyoQVSCqQFSBqAJhpECMmtUQFGMgSPoyQdE/EhTTTFAlm5QUPSqMwgg/V2PI4oEqijERFAM+DgMqF37RydxjFUX/gSDpKz6E74GipJirBMkUKhRZd8g8LPm7d2/sivsINV0lRHj3MspY+uj9g1lC/lHK1EOlmkkhKOaSu7B+vSaZb5AdmYYoT7dIsvBugix+yy+hfa4L9E0lVbJKoWHvlGfEMvJKSbGpSpL5uy/xn0jPhyMHM+DKhUTncfiAFtLSl/WsAd7qKtXMmRiKVcsoXPm4olKzMYS6eLc38XD+q2uegc5vxgN82/u4+fUEWLfqGV4IBMV8r6SY5xQK9nb5RB9CT+4b8affoDsWoXc437Qkc8THMP5pmSgEQFcZstgcE8uOCWHooW2aGMT2Iyi6gKDor3DvFpL+zTTNK4BqQ7pwAF1rRoeKKtne/wH2gdCqIWHr/Ul6NEEV71RS9P+ECO5e5o/5C7wCyF/6nL8AukcDcwNNf8pY+jEJpZCmqXuGsb9VUexEgipZ3/WWgc9dLK+A5LBi+M6m4UBAU1Ps0GLe+u5AOa9Jxq4kSzaoSGZSv8EFv5NGJRFaIUh6PkEWmwmK6eAE6fOWkR9QXu7zvRZitCgvWPD8rYvP9asDxaCi6BwRJBLXJEEy/w228K72li7JhUtfTIJ/NE2ExYvyxBDf1eb34qolgnWVmnnfVbBwPleS9H4RJBLXJLrFC2fRXXzvVJJsnLhqiWSdoIr3uATiOqTD5lxFFe8SSR7xzd5HsfcqSeZLfyHEDmQgZfQKmKOhYcGUVyBv2qswL2MrPK3dAbO0u2CGbjc8kfk+TNFVOA90jvLQNVRmfsYWZx1Ud05iMaSOLoIBA2m/oStJ+mJ/9cv3iK+UiC0QFDtOSdLXfUGIGUhDevwKyEtdA3O122CyrgKSdMagHsgmsp2buhrSxxYBatOXT8hnlZqNF1Ea6UyrSGahp2DHP1IEeWmloNXtDarYQuDpdHshb+oaGD+yyCMIJUXnSqeQBC0RaobFEMaOLOrInf5nSNYZJBfeHQ7yITe9DBJGrOgBoaIYWgJJpG+CUJesjX9sUz2au92FCPVr5NOkpDKrkmJWS6+MZC3CbfxCG2DC9N0wNqUM4ibR8IhmKYyYMA+GJ8yEYWOmwtAxU2FwXDIMjtPAoEfjnQc6R3noGiqDyqI6qC6yMTa1DCZMf5cXukZnAMmkCE1DHgBoKyEhbRs8mvwSPDhuFgxxERYLHKwU2X5oXDY8mlzgbDNJV9ULSp8CgER/OHFhr54cLKGF2kGj5uHERZCQ9hcniD4BID51IwyP1/ZMH0LFErvc8IRMSEjdGOlTkELBJo+8LraYgdpfmTziWmimZglbvZkd+9PGxx+CIaO6FtBAxQpmPeTLlskPws3s2OsSSiF9U6BQ3AbZJKCjSTsIZo2LC/lUpEuIg/qMwU6fIJvslF4VCVt0BYAgdM6m4KT+TVi6JAeGxiVIBmNIXALkzJsNh/ash45sCouP0r4FAGZTAI5K53HJvBvK31oJLyyZB3GJP9/jB2uqGZ2Y7ASN2viqbndXu+16V/H7NgAMAqUdbXpwnNoJn75fBm+/WQT08oUwf/5ToMvSwdT0aZCcmuKENGz0OEAHAoby0jKmOcugsqgOqnv0gzKnLWTTtQ3neZ8DcLJoAOQMuYrXAdcRwBGne2SImu8OYP6wH6B21WAJZ2XpmoK6kt/DZ+y/oboAYNnorqHvMgWJKrQ3mK4A8scAHF8OUMf+C06zMdIpI1FLUMt+AHUsChCgpgjglXTwNQKshjVQmj0U1s4eBi3Gtdzpw5uo3fmC6mMAKzMAaoq7fOvycZ9EskjXDNSyV3oAoCDbKgDenOtVWCT+8hSl81j35HCv5byNHEH1EYBN8wDaK1zFB6grCb9PQfCh5ADg6cGCBPRhw7/6+t4Aatn/8MUTdtehjq3oNQJ8iId6tdVQ6px+nFOQKZApyJ/6HADvhZ3AfA6juwvnIozXAR4A3qYWUfJ7TUEl30HjahVfPGF5HT5bfT/Usfuhjr0MbQc6RREzELBtH3Q6fapj90XkHZCn3gIOfaNsADgqaz35GNF54KjcIx8AFeH74atAewk4qhbLBsCFysj6CIoQKHBRr5YFgHZ9J7QZBwjxOeLKgKOyJuQQ2vXHI05YoQGBo2pOyAFc0GcJ9TfiygGU3wGOSmvIILRXNgH08a+rwgX95JABcFROjLheHUhA4KjcIT2Eii2B+BqRdeBi+a/AUVkrIYQasJnuikgxAw0K7AfulWg9aIZLVf0C9TOi63VDEHMknI6Kz9OFnNNRe+X24E9HVVuh/egveZqPXkYKAChug7MbAFrL/X4SxgGHbDS+Htmf9wl2t3ECQM8NzCzAuY0Atr0ADg8fK/H61rMewLYH4OzGriddtWwUgD+QegDghzcobSgFaNoC0LITwP4eQNvBbih6gLYDXXnoWtNmgPpS90eMUQC3DMAVhr/n0RHgj/zda4C/IvsqHwUQBeCfAiEu7XEN8NXD+a5FRwA/0dy6ul8UrDlZ2GBp3dxgtTmaLOeg9Ytj8NXZA3C54S24YV7fe2H1IToqi+qgusgGstXQbLfXW1o35LMn8hVsH38H1BVH2V9ryYKVJwy6eYd/0mQaocFq93p4gtIl9o5usau7xPZio95id34ZL2Pu4RuLVlQfXPTisftdfelT5y+yx9KfL6y2TJ5l6vmqKB8Adzhrt5yBtZtPewXmXh4DwN9VnjjT1DlnySfNzyz9NK1PiD91qukubc5HOTOe/egSFsE19QcAEh/XFQrBHQCuj9Lpcw9/OSX70KJR06t+HXEwJmQaSI3OtG7iTONl16Ddz4UCcBUf2xACwRcAbEeTafghKcO4Efkc3iBY9nZNpuHxJJ2pPFFr7MAB+kqFAPAkPrbJB0EIAGwrSWu8+ZjWeCRJZ8jKyioPn5/BfzzryN2JWuOyJK2xtScYgb/9IysArj5rja2JOkOhZrqMnyMkaw2jkjJN25N0xh/9FR6XFwIALayeRgFf70f1/BoBrgC6zxN1hmtoRCdnmsbLbHry8CMcHgLAQntKkzNNsPDlY4LuaE41tPQswNhWzefneesiAAuXVwNqC9cLLDXI7c29wAGkPHkI6NdOwZFTFl4B8W2l6dgXHAE/PN4suD5qa9UbpyHt6Q85doQBiQAAc5Z8Alt21cGZc/w9FwuP0z36zznC7a06KxgAtlPbZIN39jdATv6nHHu+QYQpgElZJljGHIcDh8/5LRYWDaVbd5k5gm3bbb4lm1WfNMHLa0/C5FmHOLa5MMIMwIxnP4LXtp+BE+aWWxIJQyjd/PMmDIsjZBHG9X2lNY3n4Y23awH5jG1z0zAAgBa6516qdg7x+mZbUITHwhWsPsERp7D0RFDbMFtssM/wuXPEama4L9oyBhDIooqFFZrmvlTNAZBXWB1UAK6+cBdtmQFgj8KdTy36+Nr2PWZAC5ur82KcZ+V+zAGQnXdE9HZRbNvfNcOcxR9ft9ls8vlkXaPFNkUMob3ZTJnNXSjRyPNWXoz8Rktrpmw2Y+YW+ztiBOnJpqdNGF4khWzGPNkMLK+1XBYA0FBssNi+DywI7w9fvNnztAnDAPzZjHmzLzjfYrtqtVpD/y9OzM22eMFOe3lS5U99T5swDCCQzZg/bXPKNrdNDvkoqLfYX+A41i10IG9+ebOF8z1twjAAvs1YsP1ptLYWhhxAQ8v5nVgc9zTYASP7njZhGADfZizY/tRb7aH/TYnGFnuNu/D4dbADRnY9bcIwAL7NWND9sdgaQz4C6q22Fiy4exr0gK128LQJwwD4NmPB9qfe0toWegAW29fuwuPXwQ4Y2fW0CcMA+DZjQffHYv9WBgDs17Dg7mnQA7bawdMmDAPg24wF2596iz3yf+o45D0s6kBUgagCUQWiCkQViCoQmQr8H8Bz8Ud8mtbNAAAAAElFTkSuQmCC;" vertex="1" parent="1">
          <mxGeometry x="290" y="502" width="40" height="40" as="geometry" />
        </mxCell>
        <mxCell id="guoJjqlwkhtF7B335C00-49" value="" style="edgeStyle=orthogonalEdgeStyle;rounded=0;orthogonalLoop=1;jettySize=auto;html=1;fillColor=#e51400;strokeColor=#B20000;" edge="1" parent="1" source="guoJjqlwkhtF7B335C00-50" target="guoJjqlwkhtF7B335C00-36">
          <mxGeometry relative="1" as="geometry" />
        </mxCell>
        <mxCell id="guoJjqlwkhtF7B335C00-50" value="" style="shape=image;verticalLabelPosition=bottom;labelBackgroundColor=default;verticalAlign=top;aspect=fixed;imageAspect=0;image=data:image/png,iVBORw0KGgoAAAANSUhEUgAAAGQAAABkCAYAAABw4pVUAAAAAXNSR0IArs4c6QAABqJJREFUeAHtnUcI7UQUhj8LioqK+FTsWBArFhDUhSjqc2NbWBHxgago2BYuRF2oWBaCiL2A2MvGgl10IxbUhR3rsz2wLRR71/vjHTLMzU0ySSb33uQcuGSSnDnnzP9n5iaTyQyYGAKGgCFgCBgC/UVgNeBM4B3gd2AFcDuwXUGRNweuBZYDvwGfANcAOm7SAIGNgDeBf3N+P41IOirH9iHAdzn6svE9sDQnjx2qgMA6wLtTgHUE/Q2c69k6G/izJI+I3MfLY8mKCNxcAqwjRds3xj//WFH6K2C9inGYGrA38E8EIUXgTzt3oyFdHYGnEpMhktTcbV89pOFq7t4BGa7W3DJcmKuX/PoOCfl1dHu8pHpow9NcfXxr6q7gLranDw/m6iU+tMPa4ch+oXp4w9O8bQaE6G5u4+FBXV7iVYFvZ0CIasqJ5eENT+OgGZEhQu4ZHtzlJb5uhoSoZq5cHuJwNFYCPp8hIaolew4H7ukl3QA4fvTEfN+MyRAhLwO6Bd56erj9PLM2cBrwyrj7QmDM2+8D4CJgs35S8H+pdgbUoffDHBIw7YJQV/6DwIF9IkZdE7fOcW2YRkZ4/Dlgl0UnRh2Fny1QjQhJCPfV93XqopKyySj4L3tEhiNHT/YnLCIpl/SQDEeKBk0snFzYY0LUDC+crA+830NSNBTpyIVjYxzwWsAFwKc9IOZn4K4+3Gm5i2mHETHLgCvHT+bPj57SPxwN41FBXds8663uotQcvQQ8DNwwGuN1FrAvoJdngxCNMJk1Ec7/XoNAvKSQ6ljMa9LOHz0l7wocC1wFvDZq/v6qQZ7yKK9syJZsqhl1JLit7pwUiwlwRQ5Ad+Ygo6Gl5wBf5Og7YN1WOtJVnlD0X+D03PbyUGnI+1sCfwQgqc9rjSmgHBboOlD9rXTyZM2c/jT53iJPecjH7sgB+bIcQDSCXUNHffDz0tLJ663Nq43ybRIgoI67vOGj94/fmehdhT5DiLkrk67yKK/euzyQQ6R8qifaxBAwBAwBQ8AQGCQCewBPAvoaKe8OZ8jHhMkTgDDqROToFyOi9ELUHZ7emCYX1Ywh14CYsj+WnA1rpqIuxh+7ICTmCjHdDhgxkOOa7OSUGCFGSFS7PW8XjNWQObsLNEKMkLg2dd6alNTxWA2xGmI1pKiWWQ2xGmI1xGrInNUCI8QIyf6aiq4GOzfZfGfIJUoZ6JOgF2GSiIbMbJFzOzdJVoZcopSBPgl6ESaJaMjMFjm3c5NkZcglShnok6AXYZKIhsxskXM7N0lWhlyiVNegPzoexa7v3h+v8fyhkR/Kq5HwstV1/IloyMx2XaBNM9dsVQNQfXviRKR0Hb/znWzbZYH00Y4vmkko1r/y+NL15De+7yTpWECa6OsrXV+2rUHINr4B4KMaNpqUIXDf/m6T4GLzhlO4alWDWBv6yteXF2vYiPXp6/u+k6R9Z6nTmqvKlyNqgHm4bwB4qIaNJuUM3Le/2yS42LzhCgan1ADz5ACCm2rYiI3b1w/ct7/rO0udvjgIP+/78rIYlMeXrmcp8n0nSZcB0Ob5M4ISXF3j6lYeX7SeVZsxltnyfSdJlwXQ5vljghLcWwNM5fFFszm0GWOZLd93knRZAG2e3y8owbM1wFQeX/avYaNJmXzfSdJNgovNu2NQgrdqgPl2YGOnGjZi4/b1A/ft7/rOUqfDxVa+rgHmNwEEmrw5ddy+/cB9+7u+s5RpzeLjz8e+Ss3ZgLTWlFZecCKbZUvrtVku5zfZts1gi2xpRlNfNmxwZYczAmnZvCLfbZ7zy5Ak3WawRbZeD6LXfCRF+kXnwgmQq0xeU2Qv5lxQjPZ3Y4Jpovt0EPoBDQhRXl+eaWArtky+3yTp2IDq6muSMV+OawCi8vpydwNbseXx/SZJdzV7g6bk80VP7bFgOH1NZOmLbLtzKbfh+xw/htbSmjYiZSGc7fOCiJv0QV0a2JJt5yfltpOJAzS1RswkYnULfFIAYpNeWq3O4Its142raj5htJvvNGVac3howIFmKqgaYKye1jT0Re9GYm04/Ud8Q0DK9RLVTKlmdEZGULbOdpu86dNyRiYtI9DkXfjylmMZvDlNcNxktIjuDE1aREDd8O7/oO42HOzQYnjDMrVuxXl6y4h6FQjHaA0LyYalVYeg3u5pCbsysKuefw84esr04w3D7V/2gwH9+VYFty09+VzaPzibl2jFDMhwpGrZV5MAgSorHjgA294aIQEZ2p1Vk/WxNVk5bNghQ8AQMAQMgYVD4D/3EOtQDiicWwAAAABJRU5ErkJggg==;" vertex="1" parent="1">
          <mxGeometry x="560" y="62" width="50" height="50" as="geometry" />
        </mxCell>
        <mxCell id="guoJjqlwkhtF7B335C00-51" value="" style="shape=image;verticalLabelPosition=bottom;labelBackgroundColor=default;verticalAlign=top;aspect=fixed;imageAspect=0;image=data:image/png,iVBORw0KGgoAAAANSUhEUgAAAGQAAABkCAYAAABw4pVUAAAAAXNSR0IArs4c6QAABqJJREFUeAHtnUcI7UQUhj8LioqK+FTsWBArFhDUhSjqc2NbWBHxgago2BYuRF2oWBaCiL2A2MvGgl10IxbUhR3rsz2wLRR71/vjHTLMzU0ySSb33uQcuGSSnDnnzP9n5iaTyQyYGAKGgCFgCBgC/UVgNeBM4B3gd2AFcDuwXUGRNweuBZYDvwGfANcAOm7SAIGNgDeBf3N+P41IOirH9iHAdzn6svE9sDQnjx2qgMA6wLtTgHUE/Q2c69k6G/izJI+I3MfLY8mKCNxcAqwjRds3xj//WFH6K2C9inGYGrA38E8EIUXgTzt3oyFdHYGnEpMhktTcbV89pOFq7t4BGa7W3DJcmKuX/PoOCfl1dHu8pHpow9NcfXxr6q7gLranDw/m6iU+tMPa4ch+oXp4w9O8bQaE6G5u4+FBXV7iVYFvZ0CIasqJ5eENT+OgGZEhQu4ZHtzlJb5uhoSoZq5cHuJwNFYCPp8hIaolew4H7ukl3QA4fvTEfN+MyRAhLwO6Bd56erj9PLM2cBrwyrj7QmDM2+8D4CJgs35S8H+pdgbUoffDHBIw7YJQV/6DwIF9IkZdE7fOcW2YRkZ4/Dlgl0UnRh2Fny1QjQhJCPfV93XqopKyySj4L3tEhiNHT/YnLCIpl/SQDEeKBk0snFzYY0LUDC+crA+830NSNBTpyIVjYxzwWsAFwKc9IOZn4K4+3Gm5i2mHETHLgCvHT+bPj57SPxwN41FBXds8663uotQcvQQ8DNwwGuN1FrAvoJdngxCNMJk1Ec7/XoNAvKSQ6ljMa9LOHz0l7wocC1wFvDZq/v6qQZ7yKK9syJZsqhl1JLit7pwUiwlwRQ5Ad+Ygo6Gl5wBf5Og7YN1WOtJVnlD0X+D03PbyUGnI+1sCfwQgqc9rjSmgHBboOlD9rXTyZM2c/jT53iJPecjH7sgB+bIcQDSCXUNHffDz0tLJ663Nq43ybRIgoI67vOGj94/fmehdhT5DiLkrk67yKK/euzyQQ6R8qifaxBAwBAwBQ8AQGCQCewBPAvoaKe8OZ8jHhMkTgDDqROToFyOi9ELUHZ7emCYX1Ywh14CYsj+WnA1rpqIuxh+7ICTmCjHdDhgxkOOa7OSUGCFGSFS7PW8XjNWQObsLNEKMkLg2dd6alNTxWA2xGmI1pKiWWQ2xGmI1xGrInNUCI8QIyf6aiq4GOzfZfGfIJUoZ6JOgF2GSiIbMbJFzOzdJVoZcopSBPgl6ESaJaMjMFjm3c5NkZcglShnok6AXYZKIhsxskXM7N0lWhlyiVNegPzoexa7v3h+v8fyhkR/Kq5HwstV1/IloyMx2XaBNM9dsVQNQfXviRKR0Hb/znWzbZYH00Y4vmkko1r/y+NL15De+7yTpWECa6OsrXV+2rUHINr4B4KMaNpqUIXDf/m6T4GLzhlO4alWDWBv6yteXF2vYiPXp6/u+k6R9Z6nTmqvKlyNqgHm4bwB4qIaNJuUM3Le/2yS42LzhCgan1ADz5ACCm2rYiI3b1w/ct7/rO0udvjgIP+/78rIYlMeXrmcp8n0nSZcB0Ob5M4ISXF3j6lYeX7SeVZsxltnyfSdJlwXQ5vljghLcWwNM5fFFszm0GWOZLd93knRZAG2e3y8owbM1wFQeX/avYaNJmXzfSdJNgovNu2NQgrdqgPl2YGOnGjZi4/b1A/ft7/rOUqfDxVa+rgHmNwEEmrw5ddy+/cB9+7u+s5RpzeLjz8e+Ss3ZgLTWlFZecCKbZUvrtVku5zfZts1gi2xpRlNfNmxwZYczAmnZvCLfbZ7zy5Ak3WawRbZeD6LXfCRF+kXnwgmQq0xeU2Qv5lxQjPZ3Y4Jpovt0EPoBDQhRXl+eaWArtky+3yTp2IDq6muSMV+OawCi8vpydwNbseXx/SZJdzV7g6bk80VP7bFgOH1NZOmLbLtzKbfh+xw/htbSmjYiZSGc7fOCiJv0QV0a2JJt5yfltpOJAzS1RswkYnULfFIAYpNeWq3O4Its142raj5htJvvNGVac3howIFmKqgaYKye1jT0Re9GYm04/Ud8Q0DK9RLVTKlmdEZGULbOdpu86dNyRiYtI9DkXfjylmMZvDlNcNxktIjuDE1aREDd8O7/oO42HOzQYnjDMrVuxXl6y4h6FQjHaA0LyYalVYeg3u5pCbsysKuefw84esr04w3D7V/2gwH9+VYFty09+VzaPzibl2jFDMhwpGrZV5MAgSorHjgA294aIQEZ2p1Vk/WxNVk5bNghQ8AQMAQMgYVD4D/3EOtQDiicWwAAAABJRU5ErkJggg==;" vertex="1" parent="1">
          <mxGeometry x="683" y="432" width="40" height="40" as="geometry" />
        </mxCell>
        <mxCell id="guoJjqlwkhtF7B335C00-52" value="Attacker" style="text;html=1;align=center;verticalAlign=middle;resizable=0;points=[];autosize=1;strokeColor=none;fillColor=none;" vertex="1" parent="1">
          <mxGeometry x="745" y="442" width="70" height="30" as="geometry" />
        </mxCell>
        <mxCell id="guoJjqlwkhtF7B335C00-53" value="Have full access to everywhere" style="text;html=1;align=center;verticalAlign=middle;resizable=0;points=[];autosize=1;strokeColor=none;fillColor=none;" vertex="1" parent="1">
          <mxGeometry x="215" y="542" width="190" height="30" as="geometry" />
        </mxCell>
        <mxCell id="guoJjqlwkhtF7B335C00-54" value="" style="edgeStyle=orthogonalEdgeStyle;rounded=0;orthogonalLoop=1;jettySize=auto;html=1;fillColor=#e51400;strokeColor=#B20000;" edge="1" parent="1" source="guoJjqlwkhtF7B335C00-16" target="guoJjqlwkhtF7B335C00-55">
          <mxGeometry relative="1" as="geometry">
            <mxPoint x="450" y="150" as="sourcePoint" />
            <mxPoint x="150" y="472" as="targetPoint" />
            <Array as="points" />
          </mxGeometry>
        </mxCell>
        <mxCell id="guoJjqlwkhtF7B335C00-55" value="" style="shape=image;verticalLabelPosition=bottom;labelBackgroundColor=default;verticalAlign=top;aspect=fixed;imageAspect=0;image=data:image/png,iVBORw0KGgoAAAANSUhEUgAAAGQAAABkCAYAAABw4pVUAAAAAXNSR0IArs4c6QAABjNJREFUeAHtnUvMNFMQhh+XWLiT3zU2LFgICf/KgpUFCQkRQVgTthZ2bCywlV/CDolbkEjEJZbESrAigrhfwuaPS4h7VzJTkeqZnlNfV5+p6e908mXOmVP11ltvdffpmdPTH7StKdAUaAo0BZoCeRU4BrgLeBs4DPyb7O834EPgQeBAXhljmF0AfJCsAEM7xA/ApTGp50M5B/hxh4qxLNT3wKn55BzP6NkdLMayKA+PTz8XwhXAP6YgTwFy1GTbzgAeM1z/Ai7ORnSvfI4C3jcJvgscuVfACn5y4fGR4fwmcESF2JOHuNMkJkfK5ZNHHR/gGsNbTl83j4fdLsIpKybyJ7dLyRX9ZVOUr4DjXQjJjGUyXE6Mc3m9P5nGxXQuBP6cYUF+B84vViGR4YszLMbyKH8pkc7FVORT7jKBub3+VKxCIsO5FcHmk0jqMio2gbn1y1RIZDW3Ath8EkldRsUmMLd+mQqJrOZWAJtPIqnLqNgE5tYvUyGRVWkBngbkG9Ztb2cBLzgu1bfN1x2/tCCnuZGnc5DlgFLe07GYCLkkMVlnyLTJUkEJb7HZua0ksVaQimVtBakodkmoVpASlSratIJUFLskVCtIiUoVbVpBKopdEqoVpESlijYlBRGb9sGwUlFKC/IMcGYlTkNhzu5uhvMsOw9hpRwrLciu2qUUfYjUrgpdynso95RjpYntql1K0YdI7arQpbyHck85VppYWw+pVL7SgrTL3kQFaV+/VyqGhCk5QlpBWkEGFWgrhoPy1B9sBamv+WDEVpBBeeoPtoLU13wwYivIoDz1B/d9QeTSuH0wrLTjlXwOEZu2HpKsIKWFy2ZXSca4MNkEjOYTp1QlpGgBsuFVkjEuTDYBo/nEKVUJKVqAbHiVZIwLk03AaD5xSlVCihYgG14lGePCZBMwmk+cUpWQogXIhldJxrgw2QSM5hOnVCWkaAFW4X0OXA+cAJy4aNtH863yi3hvrIxHA+cBVwJ3AA8BzwPvAfJwmy+Bq8cG+b9/RNJDGFIMeWKd3eSRrl8XrukP4W8as3FX9Y/rfmp9UffMyeuAu7svUg8BrwEfA38UcJSihG2bEho7Lkmu2+TZiGPxN/kvY58OXAbc1j159V7g8W6vf6vb678L4rCMM/p1U0Jjx48dYChHzlj8Tf7ypFU5tWyyGzs+kKZvaCyRTf5yOli3yWlrk3+G8W8XR5McVXJ03bqC97oc3e9PnfC1A4xuWZHY1HxW4cs8IfOFzBsyf8g8IqdamVfWHeEWZyBN35AFju7LQ/1PXkFJ/qPBN1ssiFwxyZWTXEHJlZR3szp5/dfaW+Ap+l8ANywueU/q/s3ETRNdYckELRP1E12h71tM4DKRy4Ru81orSOFANJ6GtcDZ+590V0uvdyI/sji1yOcbed770Fwlydq8VIA9NqLxlIYFzt5X4s6Gzcvp3jOPxtMAFjh7X4k7GzYvp3vPPBpPA1jg7H0l7mzYvJzuPfNoPA1ggbP3lbizYfNyuvfMo/E0gAXO3lfizobNy+neM4/G0wAWOHtfiTsbNi+ne888Gk8DWODsfSXubNi8nO4982g8DWCBp+hHrococWfD5uV075lH42kACxzdj14PUeLOhs3L6d4zj8bTABY4ur/t9ZDofNbhqaBjG+sCRL2/7ttS4V1jPSQqj004Y+ug/psCjR0f+o5pV9ZDSjRQQcc2SoKNsdmF9ZAx+S19x9ZB/ZeAU71Gr4cocWfD5ud075lH42kACzxFP3I9RIk7GzYvp3vPPBpPA1jg7H0l7mzYvJzuPfNoPA1ggbP3lbizYfNyuvfMo/E0gAXO3lfizobNy+neM4/G0wAWOHtfiTsbNi+ne888Gk8DWODsfSXubNi8nO4982g8DWCBs/eVuLNh83K698yj8TSABc7eV+LOhs3L6d4zj8bTABY4e3/2twH9suKepexFWcdvFjfKvTqjgqwr1Kr3095Kegnw6z4tyrJQqW62lslEivJKd2vmz/u8MMsC2deqP0fQ2X0GDflXFnJH++3AA8BzwDvA4Qo72gzkq5uCrE4eBG4E7gEeBd4APgX+DihY3WxmHm3sjz5leaFtlRSQH/OcuzgV2p9Fy6nwM+Cq/wDleXiRHNxGbAAAAABJRU5ErkJggg==;" vertex="1" parent="1">
          <mxGeometry x="380" y="342" width="40" height="40" as="geometry" />
        </mxCell>
      </root>
    </mxGraphModel>
  </diagram>
</mxfile>
